<svg width="208" height="208" fill="none" xmlns="http://www.w3.org/2000/svg"><path d="M189.969 76.418H20v59.957h169.969V76.418z" fill="#F3F3F5"/><path d="M189.969 136.389H20v8.359h169.969v-8.359z" fill="#D2D3DB"/><path d="M166.328 104.16v-6.17l-2.552-1.707-15.573-3.417-.639 1.898 11.489 2.847-8.755-.189-23.412-3.416-.639 2.467 17.904 4.468-17.904 4.169.767 2.372 23.284-2.852 8.627-.089-9.779 3.701 1.152 1.519 13.198-4.073 2.832-1.528z" fill="#fff"/><path d="M149.146 110.192l-.66-1.09-4.623.659.733 2.833-5.987-.003-11.553-1.634-.809 1.528 8.494 2.4-8.494 2.893.809 1.256 11.553-2.156 5.327.082-5.945 2.51.735 1.201 7.562-2.95 1.923-1.498.055-2.537-1.978-2.675 2.858-.819zM151.821 117.106c-1.609 0-2.912-.97-2.912-2.164 0-1.195 1.303-2.164 2.912-2.164 1.608 0 2.91.967 2.91 2.164 0 1.196-1.303 2.164-2.91 2.164zM171.502 104.378c-2.277 0-4.123-1.372-4.123-3.065 0-1.694 1.846-3.064 4.123-3.064 2.278 0 4.122 1.37 4.122 3.064 0 1.693-1.846 3.065-4.122 3.065z" fill="#fff"/><path d="M159.259 197.399c0-5.855-8.699-10.601-19.429-10.601-10.73 0-19.422 4.746-19.422 10.601 0 5.854 8.691 10.601 19.422 10.601 10.732 0 19.429-4.745 19.429-10.601zm-35.171 0c0-4.744 7.047-8.588 15.738-8.588 8.69 0 15.738 3.844 15.738 8.588 0 4.743-7.048 8.59-15.738 8.59-8.691 0-15.738-3.845-15.738-8.59zM159.259 163.61c0-5.855-8.699-10.601-19.429-10.601-10.73 0-19.422 4.746-19.422 10.601 0 5.854 8.699 10.601 19.43 10.601 10.732 0 19.421-4.747 19.421-10.601zm-35.171 0c0-4.744 7.047-8.59 15.738-8.59 8.69 0 15.738 3.846 15.738 8.59 0 4.743-7.048 8.59-15.738 8.59-8.691 0-15.738-3.847-15.738-8.59zM170.3 188.516v-20.251h-3.774v20.251h3.774zM178.024 191.431v-5.041c0-.77-.624-1.394-1.394-1.394h-.985c-.77 0-1.395.624-1.395 1.394v5.041c0 .77.625 1.395 1.395 1.395h.985c.77 0 1.394-.625 1.394-1.395zM179.911 169.902v4.639a1.395 1.395 0 01-1.394 1.395h-.987c-.37 0-.725-.147-.986-.409a1.392 1.392 0 01-.409-.986v-4.639h3.778-.002z" fill="#E9EAEE"/><path d="M139.132 181.268l37.415 6.897-1.207 1.95-37.417-6.896 1.209-1.951z" fill="#E9EAEE"/><path d="M137.707 181.927l27.12-13.825 2.577 1.504-27.121 13.826-2.576-1.505z" fill="#E9EAEE"/><path d="M170.497 188.361l-1.98-1.754-27.034 9.089v-13.849l-3.777.08v15.486c0 .859 1.731 1.387 3.067.935l29.724-9.987zM140.592 162.664l39.326 7.25-1.209 1.952-39.324-7.249c-.988-.182-1.517-.766-1.183-1.306.333-.54 1.406-.83 2.39-.647z" fill="#E9EAEE"/><path d="M69.207 183.472c5.475 0 9.914-4.438 9.914-9.913 0-5.475-4.439-9.913-9.914-9.913s-9.913 4.438-9.913 9.913c0 5.475 4.438 9.913 9.913 9.913z" fill="#2A313C"/><path d="M69.209 178.834a5.275 5.275 0 100-10.55 5.275 5.275 0 000 10.55z" stroke="#808290" stroke-width=".672" stroke-miterlimit="10"/><path d="M69.25 185.832c6.778 0 12.272-5.495 12.272-12.273s-5.494-12.272-12.272-12.272c-6.778 0-12.273 5.494-12.273 12.272 0 6.778 5.495 12.273 12.273 12.273z" fill="#585A68"/><path d="M139.859 168.34l2.035 11.05M145.171 170.242l-8.587 7.247M146.152 175.797l-10.551-3.864" stroke="#808290" stroke-width=".672" stroke-miterlimit="10"/><path d="M140.817 163.647a9.916 9.916 0 109.915 9.915 9.919 9.919 0 00-9.915-9.915zm0 15.187a5.27 5.27 0 01-4.874-3.256 5.274 5.274 0 114.874 3.256z" fill="#2A313C"/><path d="M147.667 164.274a11.641 11.641 0 00-12.928-.518 11.644 11.644 0 0010.091 20.867 11.643 11.643 0 005.92-17.008 11.646 11.646 0 00-3.083-3.341zm-.076 14.358a8.384 8.384 0 01-8.75 3.219 8.393 8.393 0 01-5.652-11.678 8.395 8.395 0 0112.556-3.264 8.387 8.387 0 011.846 11.723z" fill="#585A68"/><path d="M137.685 149.577l-5.051-3.098L116.37 173l5.051 3.098 16.264-26.521z" fill="#34D085"/><path d="M121.399 176.093v-4.454h-41.38v4.454h41.38z" fill="#34D085"/><path d="M80.02 176.112l1.326-4.252-16.74-5.22-1.326 4.252 16.74 5.22zM120.878 86.989l5.815-1.137 16.921 86.566a2.964 2.964 0 01-5.817 1.136l-16.921-86.565h.002z" fill="#34D085"/><path d="M80.018 177.237h41.38" stroke="#585A68" stroke-width=".672" stroke-miterlimit="10"/><path d="M102.601 170.194h5.783v-10.58h-5.783v10.58z" fill="#FFAB80"/><path d="M107.542 80.128h-4.659v17.534l-1.518 65.17h8.404l4.658-64.683s1.417-14.066-6.885-18.021z" fill="#34D085"/><path d="M102.195 171.62v-4.538h6.565l7.318 3.177a.71.71 0 01.165 1.199.706.706 0 01-.447.159l-13.601.003z" fill="#2A313C"/><path d="M110.946 168.421c.717-.146 1.423-.34 2.114-.579.574-.214 1.174-.51 1.476-1.073.208-.388.368-1.401-.327-1.387-.598.013-1.151.472-1.574.851-.63.576-1.226 1.181-1.838 1.773l.314.247a7.781 7.781 0 001.019-1.958c.248-.718.45-1.519.371-2.284-.027-.274-.087-.598-.357-.733-.315-.158-.614.107-.809.329a3.768 3.768 0 00-.842 1.827c-.158.908-.069 1.829.028 2.738.029.26.438.263.409 0-.137-1.259-.288-2.648.362-3.805.128-.247.301-.468.509-.652.137-.11.203-.07.251.079.041.154.06.313.056.472a5.721 5.721 0 01-.373 1.914 7.368 7.368 0 01-.964 1.862c-.138.193.158.404.315.247.573-.553 1.143-1.113 1.72-1.661a4.19 4.19 0 01.814-.638c.13-.074.269-.131.412-.17.044-.013.17-.06.216-.03.046.03.052.174.055.222.06.728-.681 1.167-1.259 1.394a15.72 15.72 0 01-2.203.617c-.257.057-.148.452.108.393l-.003.005z" fill="#2F313F"/><path d="M90.11 169.97l-5.718-.856 1.61-10.461 5.719.856-1.612 10.461z" fill="#FFAB80"/><path d="M98.226 80.128c-6.69 1.858-6.55 15.728-6.55 15.728l-.456 28.456-7.344 38.52h8.35l11.68-37.678 8.656-37.869-9.677-7.162-4.659.005z" fill="#34D085"/><path d="M92.28 162.771l11.682-37.678 6.489-28.393" stroke="#fff" stroke-width=".318" stroke-miterlimit="10"/><path d="M91.324 171.62v-1.706a2.835 2.835 0 00-2.833-2.832H86.1a3.29 3.29 0 00-3.203 2.54l-.472 2 8.9-.002z" fill="#2A313C"/><path d="M105.258 45.969c-2.046-.046-3.722 1.29-3.76 2.99l-.105 4.607c-.04 1.696 1.581 3.108 3.62 3.147 2.038.04 3.722-1.29 3.761-2.99l.104-4.606c.041-1.69-1.582-3.1-3.62-3.148z" fill="#FFAB80"/><path d="M108.175 46.974c-.337-1.668-4.652-3.057-7.355-1.101-2.36 1.714-2.585 3.191-2.36 5.097.225 1.906 1.731 3 2.905 3.508 1.174.508 1.519-.75 1.519-.75s-1.4-.315-1.069-1.902c.33-1.586 2.079-.733 2.079-.733s4.617-2.45 4.281-4.119z" fill="#2A313C"/><path d="M101.05 48.583a3.703 3.703 0 00-4.024-.157c-2.19 1.268-.401 2.647-.401 2.647s-4.77 1.74-5.546 4.25c-.605 1.95 1.64 5.35 6.011 2.689 4.372-2.662 3.96-9.429 3.96-9.429z" fill="#2A313C"/><path d="M104.986 82.394c-1.184 3.906-4.201 7.008-8.01 8.55M100.868 159.848l9.619-.075M83.75 159.812h9.556" stroke="#424D5C" stroke-width=".528" stroke-miterlimit="10"/><path d="M105.138 49.797l-.874-.163-1.391 7.457.874.163 1.391-7.457z" fill="#249D64"/><path d="M99.707 50.598l-.677.577 4.217 4.95.677-.576-4.217-4.95z" fill="#249D64"/><path d="M103.421 41.775c-3.778-.173-7.948 2.622-8.066 6.331-.104 3.277 2.231 3.45 3.442 3.373 3.009-.192 11.108-3.346 11.108-3.346.588-3.222-2.707-6.187-6.484-6.358z" fill="#34D085"/><path d="M94.489 72.566l.965 9.443 15.698-.107 1.196-8.184c.707-7.153-1.536-13.508-8.874-14.06-8.23-.586-9.468 7.89-8.985 12.908z" fill="#424D5C"/><path d="M111.315 78.6c1.417.565 11.565 7.166 11.565 7.166l-2.991 3.814-12.033-4.395s-6.219-2.6-4.092-6.352c1.96-3.439 6.127-.8 7.551-.233z" fill="#FFAB80"/><path d="M121.906 90.578c1.714.398 1.898-.315 2.894-.189 1.662.206 2.709 2.345 3.645 1.206 1.442-1.754-.579-4.769-2.378-5.592-1.342-.614-4.502-.58-6.068-.24-1.173.252-1.709 2.59-1.709 2.59s1.384 1.707 3.616 2.225zM104.998 83.338l4.678-3.51-2.636-12.563a5.715 5.715 0 00-3.881-4.28l-.084-.027a4.689 4.689 0 00-5.654 2.496c-.323.706-.521 1.473-.416 2.22.741 5.365 5.493 13.348 7.993 15.664z" fill="#FFAB80"/><path d="M124.47 92.128a2.05 2.05 0 100-4.1 2.05 2.05 0 000 4.1z" fill="#585A68"/><path d="M55.33 3.132h-4.743a3.208 3.208 0 00-2.27.944L44.965 7.43a3.209 3.209 0 00-.944 2.267v4.744a3.213 3.213 0 00.944 2.27l3.354 3.353a3.208 3.208 0 002.269.944h4.743a3.207 3.207 0 002.27-.944l3.353-3.354a3.204 3.204 0 00.945-2.27V9.703a3.202 3.202 0 00-.945-2.268L57.6 4.081a3.206 3.206 0 00-2.27-.95z" fill="#F8858E"/><path d="M50.084 8.45l-.81.81a.642.642 0 000 .907l5.585 5.584c.25.251.657.251.908 0l.81-.809a.642.642 0 000-.908L50.991 8.45a.642.642 0 00-.908 0z" fill="#fff"/><path d="M54.86 8.45l-5.585 5.583a.642.642 0 000 .908l.809.81c.25.25.657.25.908 0l5.584-5.585a.642.642 0 000-.908l-.809-.809a.642.642 0 00-.908 0zM143.462 105.28l-.796 2.784-8.38-2.398c.566-1.978 4.776-1.648 4.776-1.648l4.4 1.262z" fill="#fff"/><path d="M104.984 0a14.785 14.785 0 100 29.57 14.785 14.785 0 000-29.57z" fill="#34D085"/><path d="M104.983 1.262a13.522 13.522 0 100 27.043 13.522 13.522 0 000-27.043z" stroke="#85E3B6" stroke-width=".834" stroke-miterlimit="10"/><path d="M111.528 9.59a1.425 1.425 0 00-2.017 0l-5.981 5.98-2.623-2.61a1.429 1.429 0 00-2.018 0l-1.191 1.19a1.429 1.429 0 000 2.019l2.617 2.617 2.706 2.704a.705.705 0 00.504.209.713.713 0 00.504-.21l2.704-2.703 5.98-5.98a1.425 1.425 0 000-2.018l-1.185-1.198z" fill="#fff"/><path d="M124.748 21.928l.215-1.305.216 1.305a1.682 1.682 0 001.385 1.385l1.305.215-1.305.214a1.684 1.684 0 00-1.385 1.387l-.216 1.304-.215-1.307a1.678 1.678 0 00-1.385-1.387l-1.305-.214 1.305-.215a1.681 1.681 0 001.385-1.382z" fill="#E8E9ED"/><g opacity=".8" fill="#fff"><path opacity=".8" d="M72.817 101.586l2.974-.246-4.04-48.823-2.974.246 4.04 48.823z"/><path opacity=".8" d="M75.805 101.333l-2.318-1.93-7.326 8.798 2.319 1.931 7.325-8.799z"/><path opacity=".8" d="M68.482 110.117V107.1l-36.838.007v3.016l36.838-.006zM76.82 112.995a4.373 4.373 0 100-8.747 4.373 4.373 0 000 8.747z"/><path opacity=".8" d="M76.819 110.474a1.852 1.852 0 100-3.704 1.852 1.852 0 000 3.704zM28.55 113.005a4.374 4.374 0 100-8.747 4.374 4.374 0 000 8.747z"/><path opacity=".8" d="M28.551 110.483a1.852 1.852 0 100-3.704 1.852 1.852 0 000 3.704zM70.28 54.694a2.016 2.016 0 100-4.032 2.016 2.016 0 000 4.032zM71.092 108.99a5.491 5.491 0 015.002-7.686 5.488 5.488 0 015.106 3.404l-10.108 4.282z"/><path opacity=".8" d="M24.185 104.947a5.488 5.488 0 119.843 4.86l-9.843-4.86zM72.208 105.876l-4.691 2.011.963 2.248 4.691-2.011-.963-2.248zM67.968 62.55l1.666-.138 1.531 18.507-1.666.138a2.518 2.518 0 01-2.717-2.302l-1.115-13.48a2.517 2.517 0 012.301-2.726zM57.4 60.898L57.297 81.2l-2.611 22.759h-3.692c-.548-11.489-1.005-16.719.609-22.732l.591-20.302 5.206-.027z"/><path opacity=".8" d="M50.676 103.939v3.189h8.074a.52.52 0 00.5-.39.518.518 0 00-.256-.581l-4.146-2.218h-4.172zM42.746 80.96c2.186-10.701 3.705-16.318 4.379-20.175l9.778 1.657s-7.178 18.306-7.367 18.685c-.375.756-1.606 3.236-3.098 3.804-1.062.405-3.123.395-4.527.016l.835-3.986z"/><path opacity=".8" d="M49.668 81.189c-3.777 10.24-7.928 22.75-7.928 22.75l-3.641.081s1.82-15.52 5.012-22.485l6.557-.346z"/><path opacity=".8" d="M37.708 103.271l-.505 3.147 4.372.702h3.683a.513.513 0 00.269-.944l-3.64-2.238-4.179-.667zM59.733 43.744c-.261 3.572-3.063 8.253-6.61 7.995-3.547-.259-6.494-5.351-6.232-8.93a6.437 6.437 0 0111.318-3.783 6.439 6.439 0 011.524 4.718z"/><path opacity=".8" d="M49.668 49.894c-2.866 1.808-3.887 10.58-3.887 10.58l-2.13 16.47-5.94 22.556 6.139 1.171 7.469-22.125 6.973-24.428-3.132-3.508-5.492-.716z"/><path opacity=".8" d="M57.082 50.662h-5.638v10.571l-2.038 39.293h6.188l2.863-19.633 1.292-19.108s.881-9.59-2.667-11.123zM53.973 27.925c-1.33.076-2.36 1.034-2.296 2.142l.17 3.008c.061 1.101 1.191 1.944 2.518 1.87 1.327-.074 2.36-1.034 2.296-2.14l-.17-3.01c-.056-1.106-1.186-1.944-2.518-1.87z"/><path opacity=".8" d="M57.083 29.47c0-1.914-1.95-1.944-1.95-1.944s-1.173-1.15-3.09-.62c-1.05.29-1.772 1.122-2.079 1.659-.307.536-.547 1.101-.314 2.159.17.771 1.303 1.731 1.139 1.766-1.794.294-2.433.023-2.397.857.036.834 1.26 2.106 2.724 1.97 1.98-.182 2.112-2.313 2.112-2.313s-.895-.256-.736-1.093c.2-1.061 1.347-.473 1.347-.473l.612-1.372 2.632-.596zM70.655 48.56c.944-.046 2.37 1.035 2.665 2.431.092.445-.027 1.248-.73 1.259-.704.011-1.036-1.346-2.286-1.11-.944.178-1.232 1.124-1.82 1.513-.219.123-.475.166-.723.12-.84-.067.022-3.16.022-3.16s1.925-1.01 2.872-1.053zM55.485 48.732l12.347.888.124 3.165s-5.508.806-8.253.966c-1.755.102-2.297-.031-3.05-.434-2.444-1.308-1.168-4.585-1.168-4.585z"/><path opacity=".8" d="M56.483 53.319c-2.552-1.219-5.52-5.466-5.52-5.466l4.425-3.727 5.244 8.069s-.902 2.675-4.149 1.123zM53.002 45.349a3.323 3.323 0 001.1-4.569 3.323 3.323 0 00-4.566-1.111 3.323 3.323 0 00-1.1 4.569 3.323 3.323 0 004.566 1.111z"/><path opacity=".8" d="M56.498 44.882l-5.644 3.443-2.504-4.243 5.667-3.46 2.48 4.26zM54.809 34.006l-3.598-2.293-.298.468 3.598 2.293.298-.468z"/><path opacity=".8" d="M54.735 33.954l-.486-3.49-.549.077.486 3.49.55-.077zM54.79 34.051l.235 1.076a.277.277 0 01-.542.118l-.234-1.076.541-.118z"/><path opacity=".8" d="M54.752 34.617l-.29.049a.276.276 0 01-.297-.158l-.172-.393a.274.274 0 01.208-.38l.488-.081a.276.276 0 01.296.17c.016.039.022.08.019.121l-.032.422a.275.275 0 01-.22.25zM48.623 30.053c-.184-1.017.07-2.082 1.067-3.078 1.082-1.078 2.536-1.557 4.22-1.484 1.438.061 2.608.738 3.173 1.468.42.543.579 1.546.129 1.694-.539.177-1.022.272-1.54.618-.786.52-.561 1.23-1.438 1.47-.877.24-1.172.07-1.68.201-.335.085-.666.298-.945.797-.157.27-.427.8-1.092.772-.482-.02-1.634-1.024-1.894-2.458z"/></g><path opacity=".8" d="M72.817 101.585l2.974-.246-4.04-48.822-2.973.246 4.04 48.822z" fill="#585A68"/><path opacity=".8" d="M75.805 101.333l-2.318-1.93-7.326 8.798 2.319 1.931 7.325-8.799z" fill="#585A68"/><path opacity=".8" d="M68.483 110.117l-.001-3.017-36.838.007v3.016l36.838-.006zM76.82 112.995a4.373 4.373 0 100-8.747 4.373 4.373 0 000 8.747z" fill="#585A68"/><path opacity=".8" d="M76.82 110.474a1.853 1.853 0 10-.001-3.706 1.853 1.853 0 000 3.706z" fill="#CAD1DB"/><path opacity=".8" d="M28.55 113.004a4.373 4.373 0 10.001-8.747 4.373 4.373 0 000 8.747z" fill="#585A68"/><path opacity=".8" d="M28.551 110.483a1.852 1.852 0 100-3.704 1.852 1.852 0 000 3.704z" fill="#CAD1DB"/><path opacity=".8" d="M70.283 54.694a2.016 2.016 0 100-4.032 2.016 2.016 0 000 4.032zM71.091 108.99a5.494 5.494 0 011.108-6.036 5.485 5.485 0 013.894-1.65 5.487 5.487 0 015.107 3.403L71.09 108.99zM24.184 104.947a5.488 5.488 0 119.843 4.86l-9.843-4.86z" fill="#585A68"/><path opacity=".8" d="M72.208 105.876l-4.691 2.011.963 2.248 4.691-2.011-.963-2.248zM67.969 62.55l1.665-.138 1.531 18.507-1.665.138a2.518 2.518 0 01-2.717-2.302l-1.116-13.48a2.517 2.517 0 012.302-2.726z" fill="#585A68"/><path opacity=".8" d="M57.401 60.898L57.298 81.2l-2.611 22.759h-3.692c-.548-11.489-1.005-16.719.609-22.732l.591-20.302 5.206-.027z" fill="#FFAB80"/><path opacity=".8" d="M50.677 103.939v3.189h8.074a.52.52 0 00.5-.39.518.518 0 00-.256-.581l-4.146-2.218h-4.172z" fill="#EA4755"/><path opacity=".8" d="M42.747 80.96c2.186-10.701 3.705-16.318 4.379-20.175l9.778 1.657s-7.179 18.306-7.367 18.685c-.375.756-1.606 3.236-3.098 3.804-1.062.405-3.124.395-4.527.016l.835-3.986z" fill="#FFAB80"/><path opacity=".8" d="M49.667 81.189c-3.778 10.24-7.928 22.75-7.928 22.75l-3.641.081s1.82-15.52 5.012-22.485l6.557-.346z" fill="#FFAB80"/><path opacity=".8" d="M37.71 103.271l-.506 3.147 4.372.702h3.683a.512.512 0 00.269-.944l-3.64-2.238-4.179-.667z" fill="#EA4755"/><path opacity=".8" d="M59.732 43.744c-.261 3.572-3.062 8.253-6.61 7.995-3.547-.259-6.493-5.351-6.232-8.93a6.439 6.439 0 1112.842.935z" fill="#F8858E"/><path opacity=".8" d="M49.667 49.894c-2.865 1.808-3.887 10.58-3.887 10.58l-2.13 16.47L37.712 99.5l6.138 1.171 7.47-22.125 6.973-24.428-3.132-3.508-5.492-.716z" fill="#F8858E"/><path opacity=".8" d="M57.082 50.662h-5.637v10.571l-2.038 39.293h6.188l2.863-19.633 1.292-19.108s.881-9.59-2.668-11.123z" fill="#F8858E"/><path opacity=".8" d="M53.973 27.925c-1.33.076-2.36 1.034-2.296 2.142l.17 3.008c.061 1.101 1.191 1.944 2.518 1.87 1.326-.074 2.36-1.034 2.296-2.14l-.17-3.01c-.057-1.106-1.187-1.944-2.518-1.87z" fill="#FFAB80"/><path opacity=".8" d="M57.082 29.47c0-1.914-1.95-1.944-1.95-1.944s-1.173-1.15-3.09-.62c-1.05.29-1.772 1.122-2.079 1.658-.307.537-.547 1.102-.314 2.16.17.77 1.303 1.73 1.139 1.765-1.794.295-2.433.024-2.397.858.036.834 1.26 2.106 2.724 1.97 1.98-.182 2.112-2.313 2.112-2.313s-.895-.256-.736-1.094c.2-1.06 1.347-.472 1.347-.472l.612-1.372 2.632-.597z" fill="#2F313F"/><path opacity=".8" d="M70.655 48.56c.944-.046 2.37 1.035 2.665 2.431.092.445-.027 1.248-.73 1.259-.704.011-1.036-1.346-2.286-1.11-.944.178-1.232 1.124-1.82 1.513-.219.123-.475.166-.723.12-.84-.067.022-3.16.022-3.16s1.925-1.01 2.872-1.053z" fill="#FFAB80"/><path opacity=".8" d="M55.487 48.732l12.347.888.124 3.165s-5.508.806-8.253.966c-1.755.102-2.298-.032-3.05-.434-2.444-1.308-1.168-4.585-1.168-4.585z" fill="#FFAB80"/><path opacity=".8" d="M56.484 53.319c-2.553-1.219-5.52-5.466-5.52-5.466l4.424-3.727 5.244 8.069s-.902 2.675-4.148 1.123z" fill="#FFAB80"/><path opacity=".8" d="M53.002 45.349a3.323 3.323 0 001.1-4.569 3.323 3.323 0 00-4.566-1.111 3.323 3.323 0 00-1.1 4.569 3.323 3.323 0 004.566 1.111z" fill="#FBC4C8"/><path opacity=".8" d="M56.498 44.882l-5.644 3.443-2.504-4.243 5.667-3.46 2.48 4.26z" fill="#FBC4C8"/><path opacity=".8" d="M54.809 34.006l-3.598-2.293-.298.468 3.598 2.293.298-.468z" fill="#A4AFBF"/><path opacity=".8" d="M54.738 33.955l-.486-3.49-.549.076.486 3.49.55-.076zM54.792 34.051l.235 1.076a.277.277 0 11-.542.118l-.234-1.076.541-.118z" fill="#A4AFBF"/><path opacity=".8" d="M54.752 34.617l-.29.049a.276.276 0 01-.297-.158l-.172-.393a.274.274 0 01.208-.38l.488-.081a.276.276 0 01.296.17c.016.039.022.08.019.121l-.032.422a.275.275 0 01-.22.25zM48.623 30.053c-.184-1.017.07-2.082 1.067-3.078 1.082-1.078 2.536-1.557 4.22-1.484 1.438.061 2.608.738 3.173 1.468.42.543.579 1.546.129 1.694-.539.177-1.022.272-1.54.618-.786.52-.561 1.23-1.438 1.47-.877.24-1.172.07-1.68.201-.335.085-.666.298-.945.797-.157.27-.427.8-1.092.772-.482-.02-1.634-1.024-1.894-2.458z" fill="#A4AFBF"/></svg>