<svg width="208" height="208" fill="none" xmlns="http://www.w3.org/2000/svg"><path d="M147.442 175.233h-5.533v-74.188a8.12 8.12 0 00-16.241 0v74.188h-5.53v-74.188a13.652 13.652 0 018.392-12.764 13.652 13.652 0 0114.977 3.002 13.665 13.665 0 013.941 9.762l-.006 74.188zM183.64 175.233h-5.534v-74.188a8.12 8.12 0 00-16.241 0v74.188h-5.533v-74.188a13.653 13.653 0 0123.309-9.655 13.657 13.657 0 013.999 9.655v74.188z" fill="#A4AFBF"/><path d="M56.504 179.952c6.468 0 11.71-5.243 11.71-11.711 0-6.467-5.242-11.71-11.71-11.71-6.467 0-11.71 5.243-11.71 11.71 0 6.468 5.243 11.711 11.71 11.711z" fill="#2A313C"/><path d="M56.503 174.474a6.233 6.233 0 10.001-12.465 6.233 6.233 0 000 12.465z" stroke="#80818F" stroke-width=".794" stroke-miterlimit="10"/><path d="M56.553 182.74c8.008 0 14.5-6.491 14.5-14.499 0-8.007-6.492-14.498-14.5-14.498-8.007 0-14.498 6.491-14.498 14.498 0 8.008 6.491 14.499 14.498 14.499z" fill="#585A68"/><path d="M139.972 162.074l2.404 13.055M146.245 164.321l-10.143 8.561M147.407 170.884l-12.466-4.563" stroke="#80818F" stroke-width=".794" stroke-miterlimit="10"/><path d="M141.104 156.529a11.712 11.712 0 10-.003 23.424 11.712 11.712 0 00.003-23.424zm0 17.943a6.23 6.23 0 01-6.115-7.449 6.24 6.24 0 014.899-4.897 6.237 6.237 0 016.399 2.653 6.235 6.235 0 01-5.183 9.693z" fill="#2A313C"/><path d="M149.189 157.271a13.764 13.764 0 10-11.332 24.505 13.767 13.767 0 0014.356-5.282 13.765 13.765 0 00-3.024-19.223zm-.089 16.962a9.913 9.913 0 11-13.184-14.296 9.912 9.912 0 0111.008.446 9.93 9.93 0 013.96 6.473 9.905 9.905 0 01-1.776 7.377h-.008z" fill="#585A68"/><path d="M137.404 139.907l-5.967-3.659-19.215 31.33 5.967 3.659 19.215-31.33z" fill="#34D085"/><path d="M73.951 170.207l1.727-.337 1.773 9.074a.88.88 0 01-1.726.338l-1.774-9.075z" fill="#585A68"/><path d="M118.163 171.232v-5.262H69.277v5.262h48.886z" fill="#34D085"/><path d="M69.279 171.256l1.566-5.024-19.776-6.167-1.567 5.024 19.777 6.167zM117.548 65.966l6.861-1.341 19.99 102.268a3.493 3.493 0 01-2.76 4.101 3.496 3.496 0 01-4.101-2.76l-19.99-102.268z" fill="#34D085"/><path d="M69.276 172.587h48.886" stroke="#585A68" stroke-width=".794" stroke-miterlimit="10"/><path d="M121.793 72.037a2.423 2.423 0 100-4.846 2.423 2.423 0 000 4.846z" fill="#585A68"/><path d="M63.754 80.711c1.057 1.569 6.124 12.097 6.124 12.097l-4.194 3.398-9.388-11.746s-4.524-6.99.26-9.32c4.387-2.145 6.144 4.004 7.198 5.571z" fill="#FFAA80"/><path d="M54.94 81.274l6.785-2.497 1.188-15.8a7.042 7.042 0 00-3.13-6.407l-.09-.058a5.786 5.786 0 00-7.56 1.015c-.625.726-1.122 1.57-1.254 2.487-.958 6.618 1.893 17.654 4.062 21.26z" fill="#FFAA80"/><path d="M69.58 92.208c.89 1.03 2.89 3.278 3.388 5.303.497 2.025.114 4.18-1.317 4.452-.565.109-.74-.98-1.233-2.136-.443-1.04-1.198-2.174-1.734-1.838-.573.359 1.15 1.66.194 2.33-.656.462-1.899-.971-2.489-1.83-.97-1.415-1.36-3.522-1.594-4.815-.235-1.293 2.499-4.1 4.784-1.466z" fill="#FFAD80"/><path d="M50.137 188.027h7.138v-13.06h-7.138v13.06z" fill="#FFAA80"/><path d="M56.233 76.865h-5.749v21.632l-1.876 80.426h10.373l5.744-79.804s1.76-17.373-8.491-22.254z" fill="#34D085"/><path d="M49.636 189.785v-5.602h8.1l9.033 3.92a.876.876 0 01.205 1.48.874.874 0 01-.552.196l-16.786.006z" fill="#2A313C"/><path d="M60.436 185.837c.885-.18 1.757-.419 2.61-.716.707-.262 1.449-.629 1.821-1.323.257-.479.455-1.73-.404-1.712-.737.015-1.42.582-1.941 1.05-.777.711-1.515 1.458-2.27 2.187l.388.306a9.53 9.53 0 001.241-2.419c.307-.885.555-1.876.46-2.817-.035-.338-.107-.738-.443-.907-.388-.194-.757.134-.998.406a4.644 4.644 0 00-1.038 2.256c-.195 1.12-.086 2.258.035 3.38.035.319.54.323.504 0-.169-1.553-.355-3.269.447-4.697.158-.304.37-.578.627-.805.171-.134.25-.086.31.097.053.189.076.386.069.582a6.985 6.985 0 01-.46 2.361 9.047 9.047 0 01-1.189 2.297c-.17.241.195.499.389.307.706-.683 1.41-1.375 2.124-2.05.3-.303.637-.568 1.002-.789.161-.09.332-.16.51-.209.055-.016.208-.074.264-.037.057.037.067.215.07.274.072.899-.84 1.442-1.553 1.722-.886.32-1.795.574-2.718.759-.317.072-.183.559.134.487l.01.01z" fill="#2F313F"/><path d="M34.72 187.748l-7.055-1.059 1.986-12.91 7.058 1.058-1.988 12.911z" fill="#FFAA80"/><path d="M44.738 76.865c-8.257 2.295-9.396 19.601-9.396 19.601l-8.313 82.478h10.303l13.153-80.44V76.86l-5.747.006z" fill="#34D085"/><path d="M36.22 189.785v-2.103a3.497 3.497 0 00-3.496-3.495h-2.95a4.054 4.054 0 00-3.953 3.134l-.582 2.468 10.98-.004z" fill="#2A313C"/><path d="M50.48 52.162h-.184c-8.87.072-15.182 8.653-12.667 17.157l3.06 10.346h19.265l3.218-10.315c2.639-8.467-3.63-17.116-12.499-17.188h-.192z" fill="#424D5C"/><path d="M57.793 35.908c-2.464-.51-4.806.738-5.231 2.787l-1.155 5.568c-.426 2.05 1.227 4.127 3.689 4.64 2.462.512 4.806-.739 5.23-2.787l1.156-5.569c.427-2.05-1.223-4.126-3.69-4.639z" fill="#FFAA80"/><path d="M61.113 37.782c-.037-2.101-4.967-4.751-8.684-2.97-3.244 1.552-3.852 3.3-4.007 5.66-.156 2.358 1.433 4.028 2.743 4.906 1.311.877 2.01-.571 2.01-.571s-1.627-.703-.872-2.547c.756-1.845 2.688-.422 2.688-.422s6.157-1.957 6.122-4.056z" fill="#2A313C"/><path d="M52.929 34.601a4.571 4.571 0 00-3.787-3.22c-3.093-.44-4.388 2.18-4.388 2.18s-3.975-1.864-6.64-.024c-2.076 1.433-2.494 6.45 3.784 7.185 6.277.734 11.03-6.12 11.03-6.12z" fill="#2A313C"/><path d="M45.723 79.665c-1.462 4.819-5.186 8.648-9.887 10.55M57.797 79.665c.872 3.634 3.633 8.405 7.045 10.096M47.998 175.255l11.872-.091M26.87 175.212h11.794" stroke="#424D5C" stroke-width=".651" stroke-miterlimit="10"/><path d="M42.396 80.527c.113 1.887-1.96 16.675-1.96 16.675l-5.824-1.342-1.383-15.75s-.347-8.313 4.961-7.894c4.864.383 4.093 6.423 4.206 8.31z" fill="#FFAA80"/><path d="M41.376 101.012c-1.004 1.479-1.975-3.33-2.676-2.464-1.165 1.442-1.124 7.353-3.107 6.728-2.672-.839-2.573-5.093-2.037-7.476.399-1.778 1.653-3.767 3.154-5.048 1.126-.971 3.405.518 3.405.518s2.507 5.907 1.26 7.742zM33.347 78.608l7.184.73 8.122-13.605a7.05 7.05 0 00.06-7.132l-.054-.091a5.788 5.788 0 00-7.219-2.468c-.882.369-1.703.9-2.233 1.666-3.816 5.49-6.19 16.706-5.86 20.9z" fill="#FFAA80"/><path d="M175.788 1.74a14.787 14.787 0 00-13.659 9.127 14.788 14.788 0 003.205 16.112 14.786 14.786 0 0022.747-2.24 14.787 14.787 0 00-1.839-18.668 14.783 14.783 0 00-10.454-4.33z" fill="#34D085"/><path d="M175.788 3.003a13.52 13.52 0 00-13.262 16.16 13.524 13.524 0 0018.437 9.855 13.52 13.52 0 00-5.175-26.015z" stroke="#85E3B6" stroke-width=".834" stroke-miterlimit="10"/><path d="M182.333 11.331a1.43 1.43 0 00-2.018 0l-5.98 5.98-2.624-2.61a1.427 1.427 0 00-2.017 0l-1.192 1.19a1.431 1.431 0 000 2.019l2.617 2.617 2.706 2.703a.715.715 0 001.009 0l2.703-2.703 5.981-5.98a1.429 1.429 0 000-2.018l-1.185-1.198z" fill="#fff"/></svg>