<svg width="308" height="308" fill="none" xmlns="http://www.w3.org/2000/svg"><path d="M163.97 173.847c3.613 8.377-57.382 101.194-115.554 67.932-37.203-21.275-20.678-88.171 49.909-66.273 17.937-15.968 54.767-26.792 65.645-1.659z" fill="#2A313C"/><path d="M100.068 175.962S60.706 148.714 35.17 190.27" stroke="#2A313C" stroke-width="13.053" stroke-miterlimit="10"/><path d="M206.449 146.101c.83-28.243-24.332-39.607-47.459-39.607-23.252 0-47.418 16.05-47.501 41.39-.083 21.566 5.149 27.207 5.149 27.207 6.187.456 8.636-2.82 8.636-7.548 0 0-.041-1.825 0-18.58.042-7.714 16.858-16.175 33.716-16.05 16.857.124 33.715 8.751 33.715 15.884v18.704c0 4.728 2.201 7.59 7.972 7.382 0 .042 5.066-4.81 5.772-28.782z" fill="#2A313C"/><path d="M120.789 202.09c7.636 0 13.826-6.183 13.826-13.811 0-7.627-6.19-13.81-13.826-13.81-7.637 0-13.827 6.183-13.827 13.81 0 7.628 6.19 13.811 13.827 13.811zM197.19 202.09c7.636 0 13.827-6.183 13.827-13.811 0-7.627-6.191-13.81-13.827-13.81s-13.827 6.183-13.827 13.81c0 7.628 6.191 13.811 13.827 13.811z" fill="#FFAB80"/><path d="M193.364 216.025c-.166 0-.332 0-.498-.042a2.635 2.635 0 01-1.993-3.11l4.775-59.016c-.207-20.281-17.19-44.128-37.162-44.128-19.473 0-35.666 23.847-35.833 44.128l3.488 59.057a2.6 2.6 0 01-2.034 3.069c-1.371.249-2.699-.705-2.948-2.073v-.042l-10.339-59.306c-.042-.166-.042-.332-.042-.456 0-23.184 25.411-49.644 47.708-49.644 22.837 0 48.871 26.46 48.871 49.644 0 .165 0 .331-.041.497l-11.46 59.307a2.54 2.54 0 01-2.492 2.115z" fill="#249D64"/><path d="M158.987 110.476c-21.093 0-38.2 17.087-38.2 38.155v57.233c0 21.069 17.107 38.155 38.2 38.155 21.093 0 38.2-17.086 38.2-38.155v-57.233c0-21.068-17.107-38.155-38.2-38.155z" fill="#FFAB80"/><path d="M159.448 168.579l6.478 34.464h-13.868l7.39-34.464z" fill="#E9885E"/><path d="M158.991 96.043c-31.473 0-57.051 25.547-57.051 56.942 0 1.079.872 1.991 1.993 1.991h110.115c1.08 0 1.993-.871 1.993-1.991 0-31.395-25.577-56.942-57.05-56.942zM256.428 58.581a22.73 22.73 0 00-21.003 14.034 22.732 22.732 0 0029.702 29.703 22.738 22.738 0 0014.034-21.003 22.734 22.734 0 00-22.733-22.733z" fill="#34D085"/><path d="M256.426 60.523a20.79 20.79 0 00-19.209 12.835 20.793 20.793 0 1019.209-12.835z" stroke="#85E3B6" stroke-width="1.27" stroke-miterlimit="10"/><path d="M266.49 73.329a2.193 2.193 0 00-3.102 0l-9.196 9.196-4.034-4.015a2.197 2.197 0 00-3.103 0l-1.832 1.83a2.198 2.198 0 000 3.104l4.025 4.025 4.16 4.157a1.097 1.097 0 001.551 0l4.157-4.157 9.196-9.196a2.195 2.195 0 000-3.103l-1.822-1.841z" fill="#fff"/></svg>