<?xml version="1.0" encoding="UTF-8"?>
<svg xmlns="http://www.w3.org/2000/svg" xmlns:xlink="http://www.w3.org/1999/xlink" width="100px" height="px" viewBox="0 0 101 36" version="1.1">
<g id="surface1">
<path style=" stroke:none;fill-rule:nonzero;fill:rgb(0%,0%,0%);fill-opacity:1;" d="M 33.175781 10.390625 C 33.019531 10.277344 32.511719 9.644531 31.824219 8.441406 L 30.902344 6.820312 C 31.894531 6.15625 32.484375 5.035156 32.472656 3.84375 C 32.472656 1.976562 31.160156 0.71875 29.214844 0.71875 L 19.484375 0.71875 L 19.484375 2.382812 L 20.074219 2.429688 C 20.304688 2.449219 20.445312 2.464844 20.53125 2.484375 C 20.546875 2.625 20.546875 2.777344 20.546875 3.011719 L 20.546875 5.078125 L 18.148438 5.078125 L 18.148438 3.011719 C 18.148438 2.777344 18.152344 2.625 18.164062 2.484375 C 18.253906 2.464844 18.394531 2.449219 18.632812 2.429688 L 19.226562 2.386719 L 19.226562 0.71875 L 14.074219 0.71875 L 14.074219 2.382812 L 14.667969 2.425781 C 14.898438 2.445312 15.039062 2.464844 15.125 2.484375 C 15.136719 2.625 15.140625 2.773438 15.140625 3.007812 L 15.140625 13.066406 L 15.148438 13.71875 C 15.148438 14.03125 15.132812 14.109375 15.128906 14.125 C 14.757812 15.144531 13.839844 15.667969 12.953125 16.171875 L 12.414062 16.484375 C 11.558594 17.003906 10.441406 17.535156 8.667969 17.535156 C 4.710938 17.535156 4.28125 12.4375 4.28125 10.246094 C 4.28125 7.257812 4.8125 2.242188 8.371094 2.242188 C 11.515625 2.242188 12.023438 5.652344 12.042969 5.796875 L 12.121094 6.347656 L 13.777344 6.351562 L 13.777344 2.804688 C 13.78125 2.09375 13.390625 1.441406 12.765625 1.105469 C 12.171875 0.773438 10.527344 0.140625 8.535156 0.140625 C 1.785156 0.140625 0 6.515625 0 9.886719 C 0 14.296875 1.167969 17.386719 3.472656 19.058594 C 5.382812 20.445312 7.5 20.445312 8.40625 20.445312 C 10.09375 20.445312 11.089844 19.71875 12.902344 18.394531 L 14.160156 17.488281 C 16.714844 15.679688 20.066406 14.425781 20.097656 14.414062 C 20.117188 14.40625 22.46875 13.53125 24.539062 13.011719 C 24.558594 13.007812 26.839844 12.359375 28.8125 12.203125 L 29.402344 12.15625 L 29.402344 10.542969 L 28.808594 10.5 C 28.65625 10.488281 28.503906 10.46875 28.351562 10.441406 C 28.339844 10.265625 28.335938 10.089844 28.335938 9.914062 L 28.335938 7.796875 L 28.8125 8.839844 C 29.589844 10.621094 30.105469 11.796875 31.035156 11.796875 L 33.4375 11.796875 L 33.4375 10.582031 Z M 33.175781 10.390625 "/>
<path style=" stroke:none;fill-rule:nonzero;fill:rgb(0%,0%,0%);fill-opacity:1;" d="M 21.375 23.019531 L 20.023438 22.285156 C 18.335938 21.394531 17.894531 21.121094 17.925781 20.226562 C 17.972656 18.890625 19.046875 17.828125 21.035156 17.050781 C 21.78125 16.757812 22.710938 16.390625 23.179688 16.699219 C 23.636719 17.003906 23.902344 17.988281 23.929688 19.476562 L 23.9375 20.101562 L 25.753906 20.101562 L 25.753906 14.785156 C 25.753906 14.304688 25.519531 13.917969 25.132812 13.773438 C 24.027344 13.363281 21.230469 14.324219 19.710938 15.191406 C 16.933594 16.777344 14.3125 18.273438 14.3125 21.023438 C 14.3125 23.492188 15.304688 24.21875 16.9375 25.125 L 17.441406 25.40625 C 20.882812 27.316406 23.160156 28.574219 23.160156 30.035156 C 23.160156 31.691406 22.566406 33.664062 19.746094 33.664062 C 16.800781 33.664062 16.074219 30.480469 15.894531 29.109375 L 15.824219 28.550781 L 14.074219 28.550781 L 14.074219 33.675781 C 14.074219 34.09375 14.242188 34.425781 14.511719 34.621094 C 15.675781 35.265625 18.214844 35.992188 19.972656 35.992188 C 23.375 35.992188 27.183594 33.105469 27.183594 29.238281 C 27.183594 26.542969 24.4375 24.761719 21.375 23.019531 Z M 21.375 23.019531 "/>
<path style=" stroke:none;fill-rule:nonzero;fill:rgb(0%,0%,0%);fill-opacity:1;" d="M 94.546875 18.210938 L 93.898438 17.65625 C 92.988281 16.890625 92.613281 16.558594 92.613281 16.058594 C 92.613281 15.566406 92.820312 15.273438 93.164062 15.273438 C 93.613281 15.273438 93.957031 15.726562 94.179688 16.628906 L 94.300781 17.117188 L 95.769531 17.117188 L 95.769531 14.550781 C 95.753906 14.214844 95.554688 13.914062 95.25 13.765625 C 94.570312 13.550781 93.914062 13.496094 93.003906 13.496094 C 90.980469 13.496094 89.511719 14.761719 89.511719 16.503906 C 89.511719 18.074219 90.546875 19.027344 91.449219 19.683594 C 93.128906 20.929688 93.253906 21.410156 93.253906 21.992188 C 93.253906 22.691406 92.804688 23.128906 92.386719 23.128906 C 91.628906 23.128906 91.207031 22.191406 91.074219 21.390625 L 90.988281 20.855469 L 89.472656 20.855469 L 89.472656 20.921875 L 88.59375 20.921875 L 88.351562 21.511719 C 87.902344 22.613281 87.765625 22.945312 86.722656 22.945312 C 85.90625 22.945312 85.90625 22.945312 85.90625 22.4375 L 85.90625 19.902344 L 86.28125 19.902344 C 86.464844 19.902344 86.71875 19.902344 86.742188 20.683594 L 86.761719 21.304688 L 88.355469 21.304688 L 88.355469 17.203125 L 89.125 17.203125 L 89.125 13.664062 L 69.648438 13.664062 L 69.121094 17.089844 L 70.59375 17.089844 L 70.890625 16.5 C 71.285156 15.707031 71.433594 15.457031 71.960938 15.457031 L 72.347656 15.457031 L 72.347656 22.449219 C 72.347656 22.683594 72.34375 22.835938 72.332031 22.976562 C 72.179688 23.003906 72.027344 23.023438 71.875 23.03125 L 71.316406 23.074219 L 71.628906 20.921875 L 70.113281 20.921875 L 69.886719 21.5 C 69.441406 22.609375 69.308594 22.945312 68.25 22.945312 C 67.445312 22.945312 67.445312 22.945312 67.445312 22.546875 L 67.445312 15.949219 C 67.445312 15.71875 67.449219 15.566406 67.460938 15.421875 C 67.613281 15.398438 67.761719 15.378906 67.917969 15.371094 L 68.507812 15.324219 L 68.507812 13.660156 L 63.375 13.660156 L 63.375 15.324219 L 63.96875 15.367188 C 64.195312 15.386719 64.335938 15.402344 64.425781 15.421875 C 64.4375 15.5625 64.441406 15.714844 64.441406 15.949219 L 64.441406 22.449219 C 64.441406 22.683594 64.4375 22.835938 64.425781 22.976562 C 64.273438 23 64.125 23.019531 63.972656 23.027344 L 63.488281 23.027344 C 63.390625 23.027344 63.164062 22.804688 62.957031 22.191406 C 62.503906 20.839844 61.023438 16.230469 60.296875 13.941406 L 60.152344 13.496094 L 58.425781 13.496094 C 58.425781 13.496094 56.765625 18.460938 56.671875 18.757812 C 56.199219 18.511719 55.675781 18.375 55.144531 18.367188 C 54.738281 18.367188 54.332031 18.484375 53.9375 18.707031 L 53.9375 15.949219 C 53.9375 15.714844 53.941406 15.5625 53.953125 15.421875 C 54.042969 15.402344 54.183594 15.386719 54.410156 15.367188 L 55.003906 15.324219 L 55.003906 13.660156 L 49.867188 13.660156 L 49.867188 14.429688 C 49.675781 14.222656 49.433594 14.070312 49.164062 13.980469 C 48.59375 13.765625 47.875 13.496094 46.714844 13.496094 C 42.621094 13.496094 41.136719 16.867188 41.136719 19.136719 C 41.136719 19.773438 41.210938 20.367188 41.339844 20.921875 L 40.367188 20.921875 L 40.125 21.511719 C 39.675781 22.613281 39.539062 22.945312 38.496094 22.945312 C 37.679688 22.945312 37.679688 22.945312 37.679688 22.4375 L 37.679688 19.902344 L 38.054688 19.902344 C 38.238281 19.902344 38.492188 19.902344 38.515625 20.683594 L 38.535156 21.304688 L 40.128906 21.304688 L 40.128906 17.203125 L 40.898438 17.203125 L 40.898438 13.664062 L 33.613281 13.664062 L 33.613281 14.738281 C 33.003906 14.046875 32.039062 13.664062 30.789062 13.664062 L 26.027344 13.664062 L 26.027344 15.324219 L 26.617188 15.371094 C 26.847656 15.386719 26.988281 15.40625 27.074219 15.421875 C 27.089844 15.566406 27.089844 15.71875 27.089844 15.949219 L 27.089844 22.449219 C 27.089844 22.683594 27.089844 22.835938 27.074219 22.976562 C 26.925781 23.003906 26.773438 23.019531 26.617188 23.03125 L 26.027344 23.074219 L 26.027344 24.738281 L 31.160156 24.738281 L 31.160156 23.074219 L 30.570312 23.03125 C 30.414062 23.019531 30.261719 23.003906 30.113281 22.976562 C 30.097656 22.800781 30.09375 22.625 30.09375 22.449219 L 30.09375 20.542969 L 30.3125 20.554688 C 32.722656 20.554688 34.339844 19.085938 34.339844 16.90625 C 34.339844 16.316406 34.226562 15.796875 34.011719 15.355469 L 34.203125 15.371094 C 34.429688 15.386719 34.570312 15.40625 34.660156 15.425781 C 34.671875 15.566406 34.675781 15.71875 34.675781 15.949219 L 34.675781 22.449219 C 34.675781 22.683594 34.671875 22.835938 34.660156 22.976562 C 34.507812 23.003906 34.355469 23.019531 34.203125 23.03125 L 33.613281 23.074219 L 33.613281 24.738281 L 41.3125 24.738281 L 41.707031 22.023438 C 42.539062 23.882812 44.234375 24.90625 46.558594 24.90625 C 47.460938 24.890625 48.355469 24.714844 49.195312 24.390625 C 49.390625 24.3125 49.679688 24.199219 49.871094 24.003906 L 49.871094 24.742188 L 57.890625 24.742188 L 57.890625 23.03125 L 57.273438 23.03125 L 57.308594 22.8125 L 57.730469 21.476562 C 58.128906 21.617188 58.507812 21.699219 58.875 21.699219 C 59.113281 21.699219 59.386719 21.667969 59.679688 21.621094 L 60.054688 22.808594 C 60.082031 22.894531 60.09375 22.964844 60.101562 23.027344 L 59.4375 23.03125 L 59.4375 24.742188 L 71.078125 24.742188 L 71.285156 23.320312 L 71.285156 24.742188 L 76.417969 24.742188 L 76.417969 23.078125 L 75.824219 23.03125 C 75.671875 23.023438 75.519531 23.007812 75.367188 22.980469 C 75.355469 22.804688 75.351562 22.628906 75.351562 22.453125 L 75.351562 15.457031 L 75.75 15.457031 C 76.28125 15.457031 76.425781 15.703125 76.8125 16.480469 L 77.121094 17.09375 L 78.523438 17.09375 L 78.523438 22.453125 C 78.523438 22.683594 78.519531 22.835938 78.507812 22.980469 C 78.355469 23.007812 78.203125 23.023438 78.050781 23.03125 L 77.460938 23.078125 L 77.460938 24.742188 L 89.542969 24.742188 L 89.628906 24.136719 C 89.703125 24.242188 89.800781 24.328125 89.910156 24.390625 C 90.714844 24.742188 91.515625 24.90625 92.527344 24.90625 C 94.8125 24.90625 96.410156 23.554688 96.410156 21.617188 C 96.410156 20.308594 95.902344 19.386719 94.546875 18.210938 Z M 61.710938 28.234375 L 61.710938 29.210938 L 62.074219 29.226562 C 62.183594 29.226562 62.296875 29.242188 62.402344 29.269531 L 62.4375 29.722656 L 62.4375 30.984375 L 60.355469 28.238281 L 55.546875 28.234375 L 55.546875 29.199219 L 55.898438 29.226562 L 56.097656 29.253906 L 56.105469 29.5 L 56.105469 32.988281 L 56.097656 33.238281 L 55.898438 33.265625 L 55.546875 33.292969 L 55.546875 34.253906 L 58.335938 34.253906 L 58.335938 33.289062 L 57.984375 33.261719 L 57.785156 33.234375 C 57.78125 33.152344 57.777344 33.070312 57.773438 32.988281 L 57.773438 29.5 C 57.773438 29.246094 57.84375 29.261719 57.976562 29.242188 L 58.28125 29.214844 L 58.660156 29.226562 C 58.765625 29.226562 58.921875 29.261719 59.097656 29.558594 L 59.097656 32.769531 L 59.066406 33.21875 L 59.066406 33.226562 C 59.058594 33.234375 59.019531 33.253906 58.875 33.261719 L 58.515625 33.285156 L 58.515625 34.25 L 60.90625 34.25 L 60.90625 33.277344 L 60.542969 33.261719 C 60.285156 33.25 60.21875 33.21875 60.203125 33.210938 L 60.171875 32.765625 L 60.171875 30.914062 L 60.695312 31.628906 C 61.328125 32.488281 61.984375 33.375 62.453125 34.078125 L 62.566406 34.25 L 63.507812 34.25 L 63.507812 29.714844 C 63.519531 29.5625 63.53125 29.410156 63.539062 29.257812 C 63.546875 29.253906 63.585938 29.230469 63.734375 29.222656 L 64.089844 29.199219 L 64.089844 28.234375 Z M 61.710938 28.234375 "/>
<path style=" stroke:none;fill-rule:nonzero;fill:rgb(0%,0%,0%);fill-opacity:1;" d="M 67.839844 32.085938 L 67.746094 32.328125 C 67.5625 32.789062 67.222656 33.335938 66.640625 33.335938 C 65.554688 33.335938 65.390625 31.96875 65.390625 31.152344 C 65.394531 30.183594 65.714844 29.152344 66.597656 29.152344 C 67.105469 29.152344 67.417969 29.476562 67.53125 30.109375 L 67.585938 30.421875 L 68.457031 30.421875 L 68.457031 29.078125 C 68.457031 28.9375 68.410156 28.589844 67.960938 28.425781 C 67.539062 28.234375 67.078125 28.140625 66.617188 28.148438 C 64.65625 28.148438 63.632812 29.6875 63.632812 31.210938 C 63.632812 33.167969 64.71875 34.339844 66.535156 34.339844 C 67.023438 34.335938 67.507812 34.234375 67.964844 34.050781 C 68.125 33.988281 68.410156 33.867188 68.460938 33.507812 L 68.464844 33.507812 L 68.730469 32.085938 Z M 67.839844 32.085938 "/>
<path style=" stroke:none;fill-rule:nonzero;fill:rgb(0%,0%,0%);fill-opacity:1;" d="M 69.402344 32.460938 C 68.921875 32.460938 68.53125 32.882812 68.53125 33.398438 C 68.53125 33.917969 68.921875 34.34375 69.40625 34.34375 C 69.863281 34.34375 70.265625 33.902344 70.265625 33.398438 C 70.265625 32.886719 69.867188 32.460938 69.402344 32.460938 Z M 90.207031 1.460938 C 89.394531 1.460938 87.808594 1.421875 87.808594 1.421875 C 87.308594 0.378906 85.800781 0.417969 84.71875 0.417969 C 83.636719 0.417969 82.089844 0.609375 80.738281 0.609375 C 79.382812 0.609375 77.761719 0.183594 77.566406 0.109375 C 77.375 0.03125 77.21875 -0.0859375 77.179688 0.144531 C 77.140625 0.378906 77.488281 1.460938 77.488281 1.460938 C 76.523438 1.539062 75.671875 1.421875 75.324219 1.304688 C 74.976562 1.1875 74.824219 1.304688 74.824219 1.574219 C 74.824219 1.847656 75.324219 2.621094 75.324219 2.621094 C 74.628906 2.695312 73.007812 2.582031 72.8125 2.503906 C 72.621094 2.425781 72.386719 2.464844 72.425781 2.773438 C 72.464844 3.082031 73.007812 3.933594 73.007812 3.933594 C 71.539062 4.050781 70.105469 3.898438 69.914062 3.78125 C 69.71875 3.664062 69.5625 3.664062 69.5625 3.972656 C 69.5625 4.28125 69.871094 5.054688 69.871094 5.054688 L 59.550781 5.152344 L 56.996094 5.152344 L 56.996094 2.511719 L 57.910156 2.511719 C 58.113281 2.511719 58.390625 2.511719 58.613281 3.730469 L 58.710938 4.253906 L 60.214844 4.253906 L 60.214844 0.714844 L 50.316406 0.714844 L 47.453125 7.035156 L 44.714844 0.714844 L 40.902344 0.714844 L 40.902344 2.109375 C 40.066406 1.175781 38.902344 0.550781 37.484375 0.550781 C 34.519531 0.550781 32.195312 3.089844 32.195312 6.332031 C 32.195312 9.988281 34.695312 11.960938 37.042969 11.960938 C 39.621094 11.960938 42.363281 9.875 42.367188 6.007812 L 42.367188 9.101562 L 42.324219 9.828125 L 42.3125 9.960938 C 42.308594 9.996094 42.300781 10.0625 41.871094 10.089844 L 41.269531 10.128906 L 41.269531 11.796875 L 45.339844 11.796875 L 45.339844 10.128906 L 44.738281 10.089844 C 44.320312 10.0625 44.308594 9.96875 44.304688 9.929688 C 44.261719 9.660156 44.246094 9.382812 44.25 9.105469 L 44.25 7.03125 L 46.28125 11.796875 L 47.414062 11.796875 L 49.550781 7.0625 L 49.550781 9.511719 C 49.550781 9.742188 49.550781 9.898438 49.535156 10.039062 C 49.386719 10.0625 49.234375 10.082031 49.078125 10.089844 L 48.488281 10.136719 L 48.488281 11.800781 L 60.632812 11.800781 L 61.183594 7.984375 L 59.683594 7.984375 L 59.445312 8.570312 C 58.996094 9.671875 58.859375 10.007812 57.816406 10.007812 C 57 10.007812 57 10.007812 57 9.496094 L 57 6.964844 L 59.554688 6.964844 L 66.359375 6.992188 C 69.21875 6.992188 71.964844 7.6875 74.476562 8.578125 C 76.992188 9.464844 78.035156 11.515625 78.460938 12.019531 C 78.886719 12.519531 79.195312 12.945312 79.8125 12.945312 C 80.363281 12.929688 80.867188 12.621094 81.125 12.132812 C 81.335938 11.714844 82.015625 10.121094 83.445312 8.5 C 84.875 6.875 86.382812 6.761719 87.699219 6.640625 C 89.011719 6.527344 91.949219 6.679688 91.949219 6.679688 L 91.988281 6.414062 C 91.988281 6.414062 91.253906 5.484375 90.789062 5.328125 C 90.324219 5.175781 88.777344 5.175781 88.777344 5.175781 C 88.855469 4.789062 89.085938 4.75 90.558594 4.75 C 92.027344 4.75 92.335938 6.335938 92.335938 6.488281 C 92.335938 6.640625 92.527344 6.875 92.644531 6.683594 C 92.761719 6.492188 93.339844 5.441406 93.339844 4.128906 C 93.339844 1.613281 91.019531 1.460938 90.207031 1.460938 Z M 28.242188 29.320312 C 28.054688 29.320312 27.898438 29.472656 27.898438 29.660156 C 27.898438 29.851562 28.054688 30.003906 28.242188 30.003906 L 54.34375 30.003906 C 54.53125 30.003906 54.6875 29.851562 54.6875 29.660156 C 54.6875 29.472656 54.53125 29.320312 54.34375 29.320312 Z M 27.851562 31.210938 C 27.660156 31.210938 27.507812 31.363281 27.507812 31.554688 C 27.507812 31.742188 27.660156 31.898438 27.851562 31.898438 L 54.34375 31.898438 C 54.53125 31.898438 54.6875 31.742188 54.6875 31.554688 C 54.6875 31.363281 54.53125 31.210938 54.34375 31.210938 Z M 69.679688 29.320312 C 69.488281 29.320312 69.335938 29.472656 69.335938 29.660156 C 69.335938 29.851562 69.488281 30.003906 69.679688 30.003906 L 96.234375 30.003906 C 96.425781 30.003906 96.578125 29.851562 96.578125 29.660156 C 96.578125 29.472656 96.425781 29.320312 96.234375 29.320312 Z M 69.679688 31.210938 C 69.488281 31.210938 69.335938 31.363281 69.335938 31.554688 C 69.335938 31.742188 69.488281 31.898438 69.679688 31.898438 L 96.234375 31.898438 C 96.425781 31.898438 96.578125 31.742188 96.578125 31.554688 C 96.578125 31.363281 96.425781 31.210938 96.234375 31.210938 Z M 99.199219 24.679688 C 100.171875 24.679688 101 23.9375 101 22.925781 C 101 21.921875 100.171875 21.183594 99.199219 21.183594 C 98.21875 21.183594 97.390625 21.925781 97.390625 22.925781 C 97.390625 23.9375 98.21875 24.679688 99.199219 24.679688 Z M 99.199219 24.679688 "/>
<path style=" stroke:none;fill-rule:nonzero;fill:rgb(100%,100%,100%);fill-opacity:1;" d="M 33 10.625 C 32.734375 10.429688 32.144531 9.59375 31.566406 8.585938 L 30.503906 6.722656 L 30.628906 6.648438 C 31.597656 6.0625 32.175781 5.011719 32.175781 3.839844 C 32.175781 2.148438 30.984375 1.011719 29.210938 1.011719 L 19.777344 1.011719 L 19.777344 2.109375 L 20.097656 2.132812 C 20.390625 2.15625 20.589844 2.1875 20.714844 2.222656 L 20.804688 2.253906 L 20.816406 2.347656 C 20.839844 2.53125 20.839844 2.710938 20.839844 3.011719 L 20.839844 5.371094 L 17.851562 5.371094 L 17.851562 3.007812 C 17.851562 2.710938 17.855469 2.53125 17.878906 2.347656 L 17.890625 2.253906 L 17.984375 2.222656 C 18.105469 2.1875 18.3125 2.15625 18.609375 2.132812 L 18.929688 2.109375 L 18.929688 1.011719 L 14.371094 1.011719 L 14.371094 2.109375 L 14.691406 2.132812 C 14.984375 2.15625 15.1875 2.1875 15.308594 2.222656 L 15.398438 2.253906 L 15.410156 2.347656 C 15.433594 2.53125 15.4375 2.710938 15.4375 3.011719 L 15.4375 13.066406 L 15.445312 13.71875 C 15.445312 14.058594 15.425781 14.164062 15.410156 14.222656 C 15 15.347656 14.035156 15.898438 13.101562 16.429688 L 12.566406 16.738281 C 11.675781 17.277344 10.515625 17.828125 8.667969 17.828125 C 4.449219 17.828125 3.992188 12.523438 3.992188 10.246094 C 3.992188 7.144531 4.558594 1.945312 8.378906 1.945312 C 11.769531 1.945312 12.320312 5.601562 12.339844 5.757812 L 12.378906 6.054688 L 13.484375 6.054688 L 13.484375 2.804688 C 13.484375 2.195312 13.171875 1.667969 12.621094 1.359375 C 12.050781 1.042969 10.464844 0.433594 8.535156 0.433594 C 2.015625 0.433594 0.292969 6.617188 0.292969 9.886719 C 0.292969 14.199219 1.421875 17.203125 3.644531 18.820312 C 5.476562 20.152344 7.527344 20.152344 8.40625 20.152344 C 9.996094 20.152344 10.96875 19.445312 12.730469 18.160156 L 13.988281 17.25 C 16.578125 15.417969 19.851562 14.191406 19.882812 14.179688 C 19.902344 14.171875 22.457031 13.203125 24.625 12.675781 C 24.8125 12.621094 24.625 12.675781 24.625 12.675781 C 24.644531 12.667969 26.785156 12.070312 28.789062 11.914062 L 29.105469 11.886719 L 29.105469 10.816406 L 28.789062 10.789062 C 28.578125 10.78125 28.371094 10.75 28.167969 10.699219 L 28.078125 10.675781 L 28.066406 10.578125 C 28.042969 10.359375 28.035156 10.136719 28.042969 9.914062 L 28.042969 7.195312 L 28.382812 7.191406 L 29.078125 8.722656 C 29.8125 10.398438 30.296875 11.503906 31.035156 11.503906 L 33.144531 11.503906 L 33.144531 10.730469 Z M 41.542969 2.429688 C 41.839844 2.429688 42.167969 2.734375 42.371094 3.1875 L 42.371094 5.992188 C 42.359375 4.707031 41.9375 3.457031 41.164062 2.429688 Z M 41.542969 2.429688 "/>
<path style=" stroke:none;fill-rule:nonzero;fill:rgb(100%,100%,100%);fill-opacity:1;" d="M 37.488281 0.847656 C 40.324219 0.847656 42.078125 3.523438 42.078125 6 C 42.078125 9.683594 39.488281 11.671875 37.046875 11.671875 C 34.839844 11.671875 32.492188 9.800781 32.492188 6.332031 C 32.492188 3.257812 34.683594 0.847656 37.488281 0.847656 Z M 21.230469 23.277344 L 19.886719 22.542969 C 18.144531 21.625 17.597656 21.28125 17.632812 20.21875 C 17.683594 18.75 18.820312 17.601562 20.929688 16.777344 C 21.742188 16.457031 22.75 16.058594 23.34375 16.457031 C 23.898438 16.824219 24.195312 17.839844 24.226562 19.464844 L 24.230469 19.808594 L 25.464844 19.808594 L 25.464844 14.78125 C 25.464844 14.429688 25.300781 14.148438 25.035156 14.050781 C 24.039062 13.679688 21.261719 14.644531 19.859375 15.445312 C 17.160156 16.988281 14.609375 18.445312 14.609375 21.023438 C 14.609375 23.261719 15.363281 23.914062 17.085938 24.867188 L 17.585938 25.148438 C 21.121094 27.109375 23.457031 28.402344 23.457031 30.035156 C 23.457031 31.824219 22.8125 33.957031 19.75 33.957031 C 16.574219 33.957031 15.796875 30.59375 15.609375 29.148438 L 15.570312 28.84375 L 14.371094 28.84375 L 14.371094 33.675781 C 14.371094 33.992188 14.488281 34.238281 14.671875 34.371094 C 15.796875 34.992188 18.265625 35.699219 19.972656 35.699219 C 23.238281 35.699219 26.894531 32.933594 26.894531 29.238281 C 26.890625 26.703125 24.214844 24.96875 21.230469 23.277344 Z M 21.230469 23.277344 "/>
<path style=" stroke:none;fill-rule:nonzero;fill:rgb(100%,100%,100%);fill-opacity:1;" d="M 30.3125 20.261719 C 32.546875 20.257812 34.046875 18.914062 34.046875 16.90625 C 34.046875 16.292969 33.878906 15.738281 33.625 15.300781 C 33.101562 14.46875 32.109375 13.957031 30.789062 13.957031 L 26.316406 13.957031 L 26.316406 15.054688 L 26.640625 15.078125 C 26.933594 15.101562 27.132812 15.128906 27.253906 15.164062 L 27.34375 15.195312 L 27.359375 15.289062 C 27.382812 15.472656 27.382812 15.664062 27.382812 15.953125 L 27.382812 22.453125 C 27.382812 22.742188 27.382812 22.929688 27.359375 23.117188 L 27.34375 23.210938 L 27.253906 23.238281 C 26.945312 23.289062 26.632812 23.328125 26.316406 23.351562 L 26.316406 24.449219 L 30.863281 24.449219 L 30.863281 23.351562 C 30.550781 23.328125 30.238281 23.289062 29.929688 23.238281 L 29.835938 23.210938 L 29.824219 23.117188 C 29.800781 22.898438 29.792969 22.675781 29.796875 22.453125 L 29.796875 20.242188 C 29.800781 20.238281 30.304688 20.257812 30.3125 20.261719 Z M 30.3125 20.261719 "/>
<path style=" stroke:none;fill-rule:nonzero;fill:rgb(100%,100%,100%);fill-opacity:1;" d="M 49.296875 21.132812 L 49.210938 21.351562 C 48.824219 22.3125 48.085938 23.460938 46.765625 23.460938 C 44.375 23.460938 44.015625 20.683594 44.015625 19.027344 C 44.027344 17.050781 44.730469 14.941406 46.679688 14.941406 C 48.136719 14.941406 48.648438 16.074219 48.820312 17.023438 L 48.871094 17.308594 L 49.839844 17.308594 L 49.839844 15.164062 C 49.839844 14.878906 49.683594 14.476562 49.101562 14.269531 C 48.554688 14.0625 47.820312 13.789062 46.714844 13.789062 C 42.835938 13.789062 41.425781 16.988281 41.425781 19.140625 C 41.425781 19.816406 41.503906 20.457031 41.65625 21.035156 L 41.703125 21.21875 L 40.5625 21.21875 L 40.394531 21.625 C 39.941406 22.734375 39.734375 23.242188 38.496094 23.242188 C 37.488281 23.242188 37.386719 23.167969 37.386719 22.4375 L 37.386719 19.609375 L 38.054688 19.609375 C 38.414062 19.609375 38.78125 19.734375 38.808594 20.675781 L 38.820312 21.007812 L 39.832031 21.007812 L 39.832031 16.90625 L 40.601562 16.90625 L 40.601562 13.957031 L 33.902344 13.957031 L 33.902344 15.054688 L 34.222656 15.078125 C 34.519531 15.101562 34.71875 15.128906 34.839844 15.167969 L 34.929688 15.195312 L 34.945312 15.289062 C 34.96875 15.476562 34.96875 15.664062 34.96875 15.953125 L 34.96875 22.453125 C 34.96875 22.742188 34.96875 22.929688 34.945312 23.117188 L 34.929688 23.210938 L 34.839844 23.238281 C 34.636719 23.289062 34.433594 23.320312 34.222656 23.328125 L 33.902344 23.355469 L 33.902344 24.449219 L 41.058594 24.449219 L 41.488281 21.46875 L 41.773438 21.441406 C 42.464844 23.488281 44.164062 24.617188 46.554688 24.617188 C 47.640625 24.617188 48.628906 24.296875 49.085938 24.121094 C 49.410156 23.996094 49.824219 23.828125 49.863281 23.320312 L 50.277344 21.136719 C 50.042969 21.132812 49.4375 21.132812 49.296875 21.132812 Z M 49.296875 21.132812 "/>
<path style=" stroke:none;fill-rule:nonzero;fill:rgb(100%,100%,100%);fill-opacity:1;" d="M 70.3125 21.214844 L 70.15625 21.605469 C 69.710938 22.726562 69.503906 23.238281 68.246094 23.238281 C 67.300781 23.238281 67.148438 23.191406 67.148438 22.546875 L 67.148438 15.949219 C 67.148438 15.660156 67.1875 15.191406 67.1875 15.191406 L 67.277344 15.164062 C 67.398438 15.128906 67.601562 15.097656 67.894531 15.078125 L 68.214844 15.050781 L 68.214844 13.953125 L 63.667969 13.953125 L 63.667969 15.050781 L 63.988281 15.078125 C 64.195312 15.085938 64.402344 15.113281 64.605469 15.164062 L 64.695312 15.191406 C 64.695312 15.191406 64.734375 15.652344 64.734375 15.949219 L 64.734375 22.449219 C 64.734375 22.75 64.695312 23.207031 64.695312 23.207031 C 64.695312 23.207031 64.363281 23.3125 63.984375 23.320312 L 63.488281 23.320312 C 63.085938 23.320312 62.808594 22.671875 62.679688 22.285156 C 62.226562 20.933594 59.972656 13.890625 59.9375 13.789062 L 58.640625 13.789062 L 56.839844 19.175781 L 56.6875 19.089844 C 56.144531 18.796875 55.65625 18.660156 55.144531 18.660156 C 54.71875 18.660156 54.292969 18.804688 53.875 19.085938 L 53.644531 19.238281 L 53.644531 15.949219 C 53.644531 15.65625 53.683594 15.191406 53.683594 15.191406 L 53.773438 15.164062 C 53.976562 15.113281 54.179688 15.085938 54.386719 15.074219 L 54.710938 15.050781 L 54.710938 13.953125 L 50.164062 13.953125 L 50.164062 15.050781 L 50.484375 15.074219 C 50.777344 15.097656 50.980469 15.125 51.101562 15.164062 L 51.191406 15.191406 C 51.191406 15.191406 51.226562 15.648438 51.226562 15.949219 L 51.226562 22.449219 C 51.226562 22.75 51.191406 23.207031 51.191406 23.207031 L 51.101562 23.234375 C 50.898438 23.28125 50.691406 23.3125 50.484375 23.324219 L 50.164062 23.347656 L 50.164062 24.445312 L 57.597656 24.445312 L 57.597656 23.320312 C 57.453125 23.320312 57.0625 23.285156 57.0625 23.285156 L 56.972656 23.046875 C 56.972656 23.046875 57.019531 22.738281 57.023438 22.730469 L 57.539062 21.101562 L 57.6875 21.160156 C 58.109375 21.324219 58.496094 21.402344 58.871094 21.402344 C 59.128906 21.402344 59.425781 21.371094 59.753906 21.308594 L 59.878906 21.285156 L 60.332031 22.714844 C 60.492188 23.101562 60.421875 23.265625 60.421875 23.265625 L 60.074219 23.320312 L 59.726562 23.320312 L 59.726562 24.445312 L 70.820312 24.445312 L 71.289062 21.214844 Z M 70.3125 21.214844 "/>
<path style=" stroke:none;fill-rule:nonzero;fill:rgb(100%,100%,100%);fill-opacity:1;" d="M 92.527344 24.613281 C 91.558594 24.613281 90.824219 24.46875 90.0625 24.140625 C 90.050781 24.132812 90.035156 24.125 90.019531 24.117188 C 89.863281 24.023438 89.769531 23.847656 89.769531 23.625 L 89.769531 23.171875 L 89.476562 23.152344 L 89.289062 24.445312 L 77.757812 24.445312 L 77.757812 23.347656 L 78.074219 23.324219 C 78.371094 23.300781 78.570312 23.269531 78.691406 23.234375 L 78.785156 23.207031 L 78.796875 23.113281 C 78.820312 22.890625 78.828125 22.667969 78.824219 22.445312 L 78.824219 15.949219 C 78.824219 15.65625 78.820312 15.46875 78.796875 15.28125 L 78.785156 15.1875 L 78.691406 15.160156 C 78.519531 15.117188 78.347656 15.089844 78.167969 15.078125 L 77.984375 15.0625 L 78.25 16.792969 L 77.304688 16.792969 C 77.226562 16.644531 77.152344 16.492188 77.078125 16.34375 C 76.707031 15.609375 76.484375 15.160156 75.75 15.160156 L 75.058594 15.160156 L 75.058594 22.449219 C 75.058594 22.738281 75.0625 22.929688 75.085938 23.113281 L 75.097656 23.207031 L 75.1875 23.238281 C 75.308594 23.273438 75.511719 23.300781 75.804688 23.324219 L 76.125 23.347656 L 76.125 24.449219 L 71.578125 24.449219 L 71.578125 23.347656 L 71.902344 23.324219 C 72.191406 23.300781 72.394531 23.273438 72.515625 23.238281 L 72.605469 23.207031 L 72.621094 23.113281 C 72.644531 22.929688 72.644531 22.75 72.644531 22.449219 L 72.644531 15.160156 L 71.964844 15.160156 C 71.234375 15.160156 71.007812 15.617188 70.632812 16.367188 L 70.414062 16.796875 L 69.46875 16.796875 L 69.90625 13.957031 L 88.839844 13.957031 L 88.839844 16.90625 L 88.070312 16.90625 L 88.070312 21.007812 L 87.058594 21.007812 L 87.046875 20.675781 C 87.015625 19.734375 86.648438 19.609375 86.292969 19.609375 L 85.617188 19.609375 L 85.617188 22.4375 C 85.617188 23.167969 85.722656 23.242188 86.726562 23.242188 C 87.96875 23.242188 88.175781 22.734375 88.628906 21.625 L 88.792969 21.21875 L 89.769531 21.21875 L 89.769531 21.148438 L 90.738281 21.148438 L 90.785156 21.441406 C 90.9375 22.351562 91.445312 23.421875 92.390625 23.421875 C 92.945312 23.421875 93.546875 22.875 93.546875 21.996094 C 93.546875 21.320312 93.414062 20.78125 91.625 19.449219 C 90.773438 18.835938 89.804688 17.945312 89.804688 16.507812 C 89.804688 14.933594 91.148438 13.792969 93 13.792969 C 93.878906 13.792969 94.507812 13.839844 95.136719 14.042969 C 95.332031 14.109375 95.476562 14.339844 95.476562 14.554688 L 95.476562 16.824219 L 94.527344 16.824219 L 94.460938 16.5625 C 94.203125 15.511719 93.765625 14.984375 93.160156 14.984375 C 92.773438 14.984375 92.320312 15.265625 92.320312 16.0625 C 92.320312 16.691406 92.71875 17.054688 93.707031 17.882812 C 94.089844 18.210938 94.261719 18.367188 94.367188 18.433594 C 95.648438 19.542969 96.113281 20.40625 96.113281 21.621094 C 96.113281 23.378906 94.636719 24.613281 92.527344 24.613281 Z M 56.703125 6.667969 L 56.703125 9.496094 C 56.703125 10.222656 56.804688 10.300781 57.8125 10.300781 C 59.054688 10.300781 59.261719 9.792969 59.714844 8.683594 L 59.878906 8.277344 L 60.84375 8.277344 L 60.375 11.503906 L 48.78125 11.503906 L 48.78125 10.40625 L 49.101562 10.382812 C 49.394531 10.359375 49.597656 10.332031 49.71875 10.292969 L 49.808594 10.265625 L 49.820312 10.171875 C 49.84375 9.953125 49.851562 9.730469 49.847656 9.507812 L 49.847656 6.378906 L 49.566406 6.320312 L 47.222656 11.503906 L 46.476562 11.503906 L 44.238281 6.253906 L 43.957031 6.308594 L 43.957031 9.105469 C 43.957031 9.496094 43.972656 9.761719 44.011719 9.96875 C 44.039062 10.222656 44.226562 10.351562 44.71875 10.382812 L 45.042969 10.402344 L 45.042969 11.503906 L 41.5625 11.503906 L 41.5625 10.402344 L 41.886719 10.382812 C 42.386719 10.351562 42.566406 10.253906 42.601562 9.996094 L 42.613281 9.851562 L 42.65625 9.117188 L 42.65625 3.105469 C 42.40625 2.527344 41.964844 2.136719 41.539062 2.136719 L 41.191406 2.136719 L 41.191406 1.011719 L 44.519531 1.011719 L 47.441406 7.765625 L 50.503906 1.011719 L 59.917969 1.011719 L 59.917969 3.964844 L 58.953125 3.964844 C 58.929688 3.847656 58.902344 3.683594 58.902344 3.683594 C 58.675781 2.464844 58.355469 2.21875 57.910156 2.21875 L 56.703125 2.21875 L 56.703125 5.449219 L 58.878906 5.449219 L 58.511719 5.796875 L 56.355469 5.796875 L 56.355469 1.871094 L 57.910156 1.871094 C 58.765625 1.871094 59.058594 2.621094 59.242188 3.617188 L 59.574219 3.617188 L 59.574219 1.359375 L 53.566406 1.359375 L 53.566406 1.789062 C 54.105469 1.828125 54.535156 1.898438 54.582031 2.160156 C 54.632812 2.425781 54.632812 2.632812 54.632812 3.007812 L 54.632812 9.503906 C 54.632812 9.878906 54.632812 10.089844 54.582031 10.351562 C 54.535156 10.613281 54.105469 10.683594 53.566406 10.726562 L 53.566406 11.152344 L 60.074219 11.152344 L 60.441406 8.617188 L 60.109375 8.617188 C 59.597656 9.867188 59.363281 10.640625 57.8125 10.640625 C 56.808594 10.640625 56.355469 10.558594 56.355469 9.492188 L 56.355469 6.320312 L 58.664062 6.320312 L 58.949219 6.667969 Z M 62.582031 5.464844 L 72.222656 5.433594 C 72.351562 5.433594 73.183594 5.105469 73.21875 4.992188 C 73.21875 4.992188 72.140625 5.039062 71.34375 4.957031 C 70.542969 4.878906 70.203125 4.386719 70.152344 4.222656 C 70.152344 4.222656 71.230469 4.308594 72.042969 4.289062 C 72.859375 4.273438 74.800781 4.257812 74.933594 4.257812 C 75.0625 4.257812 76.171875 3.847656 76.320312 3.652344 C 76.320312 3.652344 74.457031 3.652344 74.066406 3.636719 C 73.644531 3.601562 73.273438 3.339844 73.105469 2.949219 C 73.105469 2.949219 75.210938 2.980469 76.253906 2.980469 C 76.253906 2.980469 76.777344 3.09375 77.070312 3.09375 C 77.363281 3.09375 78.71875 2.574219 78.960938 2.492188 C 78.960938 2.492188 77.136719 2.492188 76.546875 2.441406 C 75.960938 2.394531 75.585938 1.90625 75.550781 1.742188 C 75.550781 1.742188 76.90625 1.839844 78.277344 1.722656 C 78.277344 1.722656 78.714844 1.855469 79.289062 1.886719 C 79.859375 1.921875 80.820312 1.644531 80.820312 1.644531 C 80.820312 1.644531 79.449219 1.625 79.011719 1.527344 C 78.570312 1.429688 78.050781 0.8125 77.851562 0.550781 C 77.851562 0.550781 79.304688 0.878906 80.546875 0.878906 C 81.785156 0.878906 83.9375 0.679688 84.835938 0.679688 C 85.730469 0.679688 87.183594 0.664062 87.609375 1.707031 C 87.609375 1.707031 90.023438 1.742188 90.496094 1.773438 C 90.96875 1.804688 92.976562 2.066406 92.976562 4.058594 C 92.976562 4.515625 92.828125 5.136719 92.503906 5.410156 C 92.503906 5.410156 92.078125 4.238281 90.851562 4.238281 C 89.628906 4.238281 87.28125 4.53125 86.9375 5.445312 C 86.9375 5.445312 84.785156 6.164062 83.824219 6.898438 C 82.863281 7.632812 81.554688 9.179688 81.210938 9.636719 C 81.210938 9.636719 81.148438 9.589844 81.195312 9.34375 C 81.195312 9.34375 82.4375 7.582031 83.546875 6.699219 C 84.65625 5.820312 86.367188 5.394531 86.367188 5.394531 C 86.367188 5.394531 85.503906 5.214844 84.328125 5.738281 C 83.15625 6.261719 82.421875 6.910156 81.246094 8.070312 C 80.070312 9.226562 79.875 9.441406 79.074219 9.523438 C 78.273438 9.605469 78.015625 8.917969 77.527344 8.738281 L 77.441406 8.792969 C 77.441406 8.792969 78.570312 9.753906 79.1875 10.71875 C 79.574219 11.320312 79.695312 11.84375 79.988281 11.84375 C 80.28125 11.84375 80.574219 11.222656 80.855469 10.703125 C 81.132812 10.179688 82.359375 8.238281 83.9375 7.0625 C 85.339844 6.019531 87.363281 5.710938 87.964844 5.613281 C 88.570312 5.515625 89.890625 5.496094 90.101562 5.546875 C 90.316406 5.59375 90.609375 5.90625 90.496094 6.167969 C 90.496094 6.167969 87.984375 6.050781 86.496094 6.394531 C 85.011719 6.738281 83.363281 7.390625 81.894531 9.691406 C 80.425781 11.988281 80.414062 12.464844 79.789062 12.464844 C 79.171875 12.464844 78.871094 11.746094 78.632812 11.402344 C 78.371094 11.027344 77.523438 9.707031 76.25 8.921875 C 74.976562 8.140625 72.824219 7.242188 70.492188 6.800781 C 68.160156 6.363281 64.257812 5.871094 62.644531 5.804688 Z M 97.75 22.925781 C 97.75 22.101562 98.382812 21.476562 99.199219 21.476562 C 99.585938 21.46875 99.957031 21.621094 100.230469 21.894531 C 100.5 22.167969 100.648438 22.539062 100.644531 22.925781 C 100.652344 23.3125 100.503906 23.6875 100.234375 23.964844 C 99.960938 24.238281 99.585938 24.394531 99.199219 24.386719 C 98.8125 24.394531 98.4375 24.242188 98.164062 23.964844 C 97.890625 23.691406 97.738281 23.316406 97.75 22.925781 Z M 97.75 22.925781 "/>
<path style=" stroke:none;fill-rule:nonzero;fill:rgb(0%,0%,0%);fill-opacity:1;" d="M 15.734375 14.335938 C 15.824219 14.082031 15.78125 13.441406 15.78125 13.066406 L 15.78125 3.007812 C 15.78125 2.632812 15.78125 2.425781 15.734375 2.164062 C 15.683594 1.898438 15.253906 1.832031 14.71875 1.789062 L 14.71875 1.359375 L 18.582031 1.359375 L 18.582031 1.789062 C 18.03125 1.828125 17.605469 1.898438 17.554688 2.160156 C 17.507812 2.425781 17.507812 2.632812 17.507812 3.007812 L 17.507812 5.714844 L 21.1875 5.714844 L 21.1875 3.007812 C 21.1875 2.632812 21.1875 2.425781 21.140625 2.164062 C 21.09375 1.898438 20.664062 1.832031 20.125 1.789062 L 20.125 1.359375 L 23.980469 1.359375 L 23.980469 1.789062 C 23.441406 1.828125 23.011719 1.898438 22.964844 2.160156 C 22.917969 2.425781 22.917969 2.632812 22.917969 3.007812 L 22.917969 10.761719 C 22.917969 11.136719 22.917969 11.347656 22.964844 11.609375 C 23.011719 11.871094 23.441406 11.941406 24.40625 11.917969 L 24.40625 12.351562 C 22.160156 12.886719 20.128906 13.671875 20.128906 13.671875 L 20.128906 13.242188 C 20.667969 13.199219 21.09375 12.511719 21.140625 12.246094 C 21.191406 11.984375 21.191406 11.546875 21.191406 11.171875 L 21.191406 6.394531 L 17.507812 6.394531 L 17.507812 12.382812 C 17.507812 12.753906 17.578125 13.117188 17.871094 13.410156 C 18.058594 13.597656 18.75 13.605469 19.5 13.566406 L 19.5 13.996094 C 19.5 13.996094 16.464844 15.074219 13.789062 16.96875 C 11.117188 18.859375 10.203125 19.804688 8.40625 19.804688 C 6.613281 19.804688 0.640625 19.738281 0.640625 9.886719 C 0.640625 7.273438 1.980469 0.78125 8.535156 0.78125 C 10.398438 0.78125 11.929688 1.371094 12.453125 1.664062 C 12.878906 1.882812 13.144531 2.324219 13.136719 2.804688 L 13.136719 5.707031 L 12.679688 5.707031 C 12.679688 5.707031 12.125 1.597656 8.375 1.597656 C 4.621094 1.597656 3.644531 6.167969 3.644531 10.246094 C 3.644531 14.324219 4.949219 18.171875 8.667969 18.171875 C 10.464844 18.171875 11.667969 17.683594 12.746094 17.03125 C 13.820312 16.378906 15.195312 15.816406 15.734375 14.335938 Z M 28.757812 11.566406 L 28.757812 11.136719 C 28.222656 11.09375 27.792969 11.023438 27.746094 10.761719 C 27.695312 10.5 27.695312 10.289062 27.695312 9.914062 L 27.695312 6.847656 L 28.601562 6.847656 C 29.566406 8.773438 30.316406 11.15625 31.035156 11.15625 L 32.796875 11.15625 L 32.796875 10.90625 C 32.457031 10.660156 31.832031 9.742188 31.269531 8.761719 L 30.019531 6.570312 C 31.085938 6.15625 31.832031 5.117188 31.832031 3.84375 C 31.832031 2.136719 30.609375 1.359375 29.210938 1.359375 L 24.90625 1.359375 L 24.90625 1.789062 C 25.441406 1.832031 25.871094 1.898438 25.921875 2.164062 C 25.96875 2.425781 25.96875 2.632812 25.96875 3.007812 L 25.96875 9.914062 C 25.96875 10.289062 25.96875 10.855469 25.921875 11.117188 C 25.871094 11.378906 25.441406 11.789062 24.90625 11.832031 L 24.90625 12.261719 C 24.90625 12.261719 26.691406 11.726562 28.757812 11.566406 Z M 37.046875 11.324219 C 39.492188 11.324219 41.730469 9.246094 41.730469 6.003906 C 41.730469 3.550781 40.003906 1.195312 37.484375 1.195312 C 34.855469 1.195312 32.835938 3.496094 32.835938 6.335938 C 32.835938 9.605469 35.066406 11.324219 37.046875 11.324219 Z M 37.046875 11.324219 "/>
<path style=" stroke:none;fill-rule:nonzero;fill:rgb(0%,0%,0%);fill-opacity:1;" d="M 53.117188 1.789062 C 52.210938 1.789062 51.914062 2.261719 51.914062 3.164062 L 51.914062 9.507812 C 51.914062 9.882812 51.914062 10.089844 51.964844 10.355469 C 52.011719 10.617188 52.429688 10.6875 52.980469 10.730469 L 52.980469 11.15625 L 49.125 11.15625 L 49.125 10.730469 C 49.679688 10.6875 50.089844 10.617188 50.140625 10.355469 C 50.191406 10.089844 50.191406 9.882812 50.191406 9.507812 L 50.191406 4.171875 L 50.152344 4.171875 L 46.996094 11.15625 L 46.703125 11.15625 L 43.632812 3.949219 L 43.605469 3.949219 L 43.605469 9.105469 C 43.605469 9.453125 43.617188 9.757812 43.667969 10.019531 C 43.714844 10.492188 44.046875 10.683594 44.695312 10.726562 L 44.695312 11.15625 L 41.90625 11.15625 L 41.90625 10.730469 C 42.566406 10.6875 42.882812 10.492188 42.945312 10.019531 C 42.96875 9.757812 43.007812 9.453125 43.007812 9.105469 L 43.007812 3.035156 C 42.722656 2.316406 42.164062 1.789062 41.539062 1.789062 L 41.539062 1.359375 L 44.289062 1.359375 L 47.433594 8.621094 L 50.726562 1.359375 L 53.109375 1.359375 L 53.109375 1.789062 Z M 24.570312 19.460938 C 24.488281 14.832031 22.292969 15.875 20.714844 16.492188 C 19.402344 17.003906 17.363281 18.054688 17.285156 20.207031 C 17.230469 21.863281 18.542969 22.148438 21.058594 23.578125 C 24.289062 25.414062 26.546875 26.996094 26.546875 29.234375 C 26.546875 32.84375 22.871094 35.351562 19.972656 35.351562 C 18.292969 35.351562 15.914062 34.664062 14.859375 34.078125 C 14.777344 34.019531 14.71875 33.90625 14.71875 33.671875 L 14.71875 29.191406 L 15.265625 29.191406 C 15.609375 31.867188 16.945312 34.300781 19.75 34.300781 C 22.832031 34.300781 23.800781 32.1875 23.800781 30.035156 C 23.800781 28.113281 21.203125 26.761719 17.25 24.566406 C 15.570312 23.632812 14.953125 23.0625 14.953125 21.019531 C 14.953125 18.714844 17.136719 17.398438 20.027344 15.746094 C 21.628906 14.832031 24.144531 14.085938 24.910156 14.375 C 25.070312 14.429688 25.117188 14.636719 25.117188 14.78125 L 25.117188 19.460938 Z M 29.457031 22.449219 C 29.457031 22.824219 29.457031 23.03125 29.503906 23.292969 C 29.554688 23.558594 29.96875 23.625 30.519531 23.667969 L 30.519531 24.097656 L 26.664062 24.097656 L 26.664062 23.667969 C 27.21875 23.625 27.632812 23.558594 27.679688 23.292969 C 27.730469 23.03125 27.730469 22.824219 27.730469 22.449219 L 27.730469 15.949219 C 27.730469 15.578125 27.730469 15.371094 27.679688 15.105469 C 27.632812 14.839844 27.214844 14.773438 26.664062 14.730469 L 26.664062 14.300781 L 30.789062 14.300781 C 32.820312 14.300781 33.699219 15.410156 33.699219 16.90625 C 33.699219 18.777344 32.328125 19.914062 30.308594 19.914062 C 30.199219 19.914062 30.089844 19.898438 29.980469 19.898438 L 29.980469 19.554688 C 31.191406 19.511719 31.839844 18.582031 31.839844 17.042969 C 31.839844 15.796875 31.339844 14.839844 30.128906 14.839844 L 29.453125 14.839844 L 29.453125 22.449219 Z M 34.25 23.667969 C 34.789062 23.625 35.214844 23.558594 35.265625 23.292969 C 35.3125 23.03125 35.3125 22.824219 35.3125 22.449219 L 35.3125 15.949219 C 35.3125 15.578125 35.3125 15.371094 35.265625 15.105469 C 35.214844 14.839844 34.789062 14.773438 34.25 14.730469 L 34.25 14.300781 L 40.257812 14.300781 L 40.257812 16.558594 L 39.925781 16.558594 C 39.742188 15.5625 39.449219 14.8125 38.59375 14.8125 L 37.039062 14.8125 L 37.039062 18.734375 L 38.054688 18.734375 C 38.828125 18.734375 39.15625 18.195312 39.15625 17.390625 L 39.488281 17.390625 L 39.488281 20.660156 L 39.15625 20.660156 C 39.132812 19.886719 38.875 19.261719 38.054688 19.261719 L 37.042969 19.261719 L 37.042969 22.433594 C 37.042969 23.503906 37.492188 23.585938 38.496094 23.585938 C 40.050781 23.585938 40.285156 22.808594 40.796875 21.5625 L 41.128906 21.5625 L 40.761719 24.097656 L 34.25 24.097656 Z M 49.859375 21.480469 L 49.519531 23.292969 C 49.492188 23.613281 49.273438 23.667969 48.917969 23.808594 C 48.164062 24.101562 47.363281 24.253906 46.554688 24.265625 C 43.84375 24.265625 41.773438 22.714844 41.773438 19.136719 C 41.773438 16.992188 43.144531 14.136719 46.714844 14.136719 C 47.851562 14.136719 48.414062 14.382812 49.015625 14.605469 C 49.359375 14.730469 49.492188 14.925781 49.492188 15.160156 L 49.492188 16.960938 L 49.164062 16.960938 C 48.96875 15.882812 48.332031 14.589844 46.679688 14.589844 C 44.710938 14.589844 43.683594 16.515625 43.671875 19.023438 C 43.671875 21.726562 44.589844 23.808594 46.765625 23.808594 C 48.171875 23.808594 49.039062 22.699219 49.53125 21.480469 Z M 62.351562 22.394531 C 61.445312 19.644531 60.558594 16.894531 59.683594 14.136719 L 58.890625 14.136719 C 58.324219 15.820312 57.621094 17.949219 57.027344 19.703125 C 56.496094 19.347656 55.90625 19.011719 55.144531 19.011719 C 54.3125 19.011719 53.636719 19.671875 53.296875 20.082031 L 53.296875 15.953125 C 53.296875 15.578125 53.296875 15.371094 53.34375 15.105469 C 53.394531 14.84375 53.8125 14.773438 54.359375 14.734375 L 54.359375 14.300781 L 50.507812 14.300781 L 50.507812 14.730469 C 51.058594 14.769531 51.472656 14.839844 51.523438 15.101562 C 51.570312 15.367188 51.570312 15.574219 51.570312 15.949219 L 51.570312 22.449219 C 51.570312 22.820312 51.570312 23.03125 51.523438 23.292969 C 51.472656 23.554688 51.058594 23.625 50.507812 23.667969 L 50.507812 24.09375 L 54.359375 24.09375 L 54.359375 23.667969 C 53.808594 23.625 53.394531 23.554688 53.34375 23.292969 C 53.296875 23.03125 53.296875 22.820312 53.296875 22.449219 L 53.296875 20.472656 C 53.808594 20.007812 54.4375 19.523438 55.03125 19.523438 C 55.5625 19.523438 56.152344 19.933594 56.816406 20.328125 C 56.539062 21.164062 56.242188 21.988281 55.929688 22.808594 C 55.660156 23.433594 55.21875 23.667969 54.863281 23.667969 L 54.863281 24.097656 L 57.25 24.097656 L 57.25 23.667969 C 56.820312 23.667969 56.625 23.421875 56.625 23.046875 C 56.625 22.921875 56.648438 22.78125 56.6875 22.644531 L 57.328125 20.621094 C 57.808594 20.867188 58.316406 21.058594 58.871094 21.058594 C 59.457031 21.058594 60.113281 20.875 60.113281 20.875 L 60.664062 22.613281 C 60.714844 22.765625 60.746094 22.925781 60.746094 23.085938 C 60.746094 23.445312 60.550781 23.667969 60.074219 23.667969 L 60.074219 24.097656 L 63.488281 24.097656 L 63.488281 23.667969 C 62.964844 23.667969 62.597656 23.128906 62.351562 22.394531 Z M 64.015625 23.667969 C 64.566406 23.625 64.980469 23.558594 65.03125 23.292969 C 65.078125 23.03125 65.078125 22.824219 65.078125 22.449219 L 65.078125 15.949219 C 65.078125 15.578125 65.078125 15.371094 65.03125 15.105469 C 64.980469 14.839844 64.566406 14.773438 64.015625 14.730469 L 64.015625 14.300781 L 67.871094 14.300781 L 67.871094 14.730469 C 67.316406 14.769531 66.902344 14.839844 66.855469 15.101562 C 66.804688 15.367188 66.804688 15.574219 66.804688 15.949219 L 66.804688 22.546875 C 66.804688 23.5 67.257812 23.585938 68.25 23.585938 C 69.816406 23.585938 70.046875 22.808594 70.550781 21.5625 L 70.890625 21.5625 L 70.527344 24.097656 L 64.019531 24.097656 L 64.019531 23.667969 Z M 74.710938 22.449219 C 74.710938 22.824219 74.710938 23.03125 74.761719 23.292969 C 74.808594 23.558594 75.226562 23.625 75.773438 23.667969 L 75.773438 24.097656 L 71.921875 24.097656 L 71.921875 23.667969 C 72.472656 23.625 72.886719 23.558594 72.9375 23.292969 C 72.984375 23.03125 72.984375 22.824219 72.984375 22.449219 L 72.984375 14.8125 L 71.957031 14.8125 C 70.917969 14.8125 70.648438 15.5625 70.195312 16.449219 L 69.867188 16.449219 L 70.195312 14.300781 L 77.511719 14.300781 L 77.84375 16.449219 L 77.511719 16.449219 C 77.058594 15.5625 76.800781 14.8125 75.75 14.8125 L 74.710938 14.8125 Z M 80.890625 22.449219 C 80.890625 22.824219 80.890625 23.03125 80.9375 23.292969 C 80.988281 23.558594 81.402344 23.625 81.953125 23.667969 L 81.953125 24.097656 L 78.101562 24.097656 L 78.101562 23.667969 C 78.652344 23.625 79.066406 23.558594 79.117188 23.292969 C 79.164062 23.03125 79.164062 22.824219 79.164062 22.449219 L 79.164062 15.949219 C 79.164062 15.578125 79.164062 15.371094 79.117188 15.105469 C 79.066406 14.839844 78.652344 14.773438 78.101562 14.730469 L 78.101562 14.300781 L 81.953125 14.300781 L 81.953125 14.730469 C 81.402344 14.769531 80.988281 14.839844 80.941406 15.101562 C 80.890625 15.367188 80.890625 15.574219 80.890625 15.949219 Z M 82.484375 23.667969 C 83.019531 23.625 83.449219 23.558594 83.496094 23.292969 C 83.546875 23.03125 83.546875 22.824219 83.546875 22.449219 L 83.546875 15.949219 C 83.546875 15.578125 83.546875 15.371094 83.496094 15.105469 C 83.449219 14.839844 83.019531 14.773438 82.484375 14.730469 L 82.484375 14.300781 L 88.488281 14.300781 L 88.488281 16.558594 L 88.15625 16.558594 C 87.976562 15.5625 87.679688 14.8125 86.824219 14.8125 L 85.273438 14.8125 L 85.273438 18.734375 L 86.285156 18.734375 C 87.054688 18.734375 87.386719 18.195312 87.386719 17.390625 L 87.714844 17.390625 L 87.714844 20.660156 L 87.386719 20.660156 C 87.363281 19.886719 87.105469 19.261719 86.285156 19.261719 L 85.273438 19.261719 L 85.273438 22.433594 C 85.273438 23.503906 85.722656 23.585938 86.726562 23.585938 C 88.28125 23.585938 88.515625 22.808594 89.027344 21.5625 L 89.359375 21.5625 L 88.992188 24.097656 L 82.484375 24.097656 Z M 25.597656 2.34375 L 25.585938 2.25 L 25.496094 2.222656 C 25.375 2.1875 24.734375 2.140625 24.4375 2.117188 C 24.144531 2.144531 23.507812 2.1875 23.386719 2.222656 L 23.296875 2.253906 L 23.28125 2.347656 C 23.257812 2.566406 23.25 2.789062 23.257812 3.011719 L 23.257812 10.765625 L 23.28125 11.519531 L 23.394531 11.53125 C 23.574219 11.570312 24.113281 11.546875 24.597656 11.535156 C 24.957031 11.507812 25.503906 11.289062 25.574219 11.054688 C 25.617188 10.8125 25.621094 10.222656 25.621094 9.914062 L 25.621094 3.007812 C 25.628906 2.785156 25.621094 2.566406 25.597656 2.34375 Z M 25.597656 2.34375 "/>
<path style=" stroke:none;fill-rule:nonzero;fill:rgb(100%,100%,100%);fill-opacity:1;" d="M 25.316406 2.484375 C 25.226562 2.464844 24.671875 2.433594 24.445312 2.417969 L 24.433594 2.417969 C 24.199219 2.433594 23.65625 2.464844 23.570312 2.484375 C 23.558594 2.625 23.550781 2.773438 23.550781 3.007812 L 23.550781 10.765625 L 23.570312 11.257812 C 23.695312 11.273438 23.914062 11.265625 24.265625 11.257812 L 24.855469 11.191406 C 25.027344 11.175781 25.1875 11.09375 25.296875 10.957031 C 25.328125 10.730469 25.328125 10.183594 25.328125 9.914062 L 25.328125 3.007812 C 25.332031 2.832031 25.328125 2.65625 25.316406 2.484375 Z M 25.316406 2.484375 "/>
<path style=" stroke:none;fill-rule:nonzero;fill:rgb(0%,0%,0%);fill-opacity:1;" d="M 17.851562 6.742188 L 17.851562 12.382812 C 17.851562 12.730469 17.949219 12.976562 18.113281 13.15625 C 18.296875 13.222656 18.894531 13.214844 19.679688 13.117188 C 19.8125 13.105469 20.246094 12.871094 20.246094 12.871094 C 20.523438 12.742188 20.726562 12.488281 20.796875 12.191406 C 20.839844 11.949219 20.839844 11.519531 20.839844 11.171875 L 20.839844 6.742188 Z M 17.851562 6.742188 "/>
<path style=" stroke:none;fill-rule:nonzero;fill:rgb(100%,100%,100%);fill-opacity:1;" d="M 18.144531 7.035156 L 18.144531 12.382812 C 18.144531 12.636719 18.191406 12.789062 18.289062 12.910156 C 18.390625 12.929688 18.804688 12.878906 19.582031 12.839844 L 20.074219 12.601562 C 20.214844 12.59375 20.480469 12.246094 20.507812 12.128906 C 20.546875 11.921875 20.546875 11.488281 20.546875 11.171875 L 20.546875 7.035156 Z M 18.144531 7.035156 "/>
<path style=" stroke:none;fill-rule:nonzero;fill:rgb(0%,0%,0%);fill-opacity:1;" d="M 54.261719 2.34375 L 54.246094 2.25 L 54.15625 2.222656 C 53.960938 2.175781 53.757812 2.144531 53.558594 2.132812 L 53.113281 2.132812 C 52.546875 2.132812 52.261719 2.292969 52.261719 3.160156 L 52.261719 9.503906 C 52.261719 9.796875 52.261719 9.984375 52.289062 10.171875 L 52.300781 10.265625 L 52.390625 10.292969 C 52.511719 10.328125 52.980469 10.367188 53.273438 10.390625 C 53.570312 10.367188 54.035156 10.332031 54.15625 10.292969 L 54.246094 10.261719 L 54.261719 10.167969 C 54.285156 9.984375 54.285156 9.804688 54.285156 9.503906 L 54.285156 3.007812 C 54.285156 2.710938 54.285156 2.53125 54.261719 2.34375 Z M 30.128906 15.1875 L 29.800781 15.1875 L 29.800781 19.210938 L 29.96875 19.207031 C 30.953125 19.171875 31.492188 18.402344 31.492188 17.042969 C 31.492188 15.511719 30.75 15.1875 30.128906 15.1875 Z M 38.808594 17.390625 L 38.808594 17.046875 L 39.664062 17.046875 L 39.585938 16.621094 C 39.359375 15.40625 39.039062 15.160156 38.59375 15.160156 L 37.386719 15.160156 L 37.386719 18.390625 L 38.054688 18.390625 C 38.378906 18.390625 38.808594 18.285156 38.808594 17.390625 Z M 87.042969 17.390625 L 87.042969 17.046875 L 87.894531 17.046875 L 87.816406 16.621094 C 87.59375 15.40625 87.273438 15.160156 86.824219 15.160156 L 85.617188 15.160156 L 85.617188 18.390625 L 86.285156 18.390625 C 86.609375 18.390625 87.042969 18.285156 87.042969 17.390625 Z M 83.171875 15.285156 L 83.160156 15.191406 L 83.070312 15.164062 C 82.789062 15.113281 82.503906 15.082031 82.214844 15.066406 C 81.921875 15.089844 81.484375 15.125 81.363281 15.164062 L 81.273438 15.191406 L 81.261719 15.285156 C 81.234375 15.472656 81.234375 15.660156 81.234375 15.953125 L 81.234375 22.449219 C 81.234375 22.742188 81.234375 22.929688 81.261719 23.117188 L 81.273438 23.210938 L 81.363281 23.238281 C 81.484375 23.273438 81.921875 23.308594 82.21875 23.332031 C 82.511719 23.308594 82.949219 23.277344 83.070312 23.238281 L 83.160156 23.207031 L 83.171875 23.113281 C 83.199219 22.929688 83.199219 22.742188 83.199219 22.449219 L 83.199219 15.953125 C 83.207031 15.730469 83.195312 15.507812 83.171875 15.285156 Z M 94.800781 16.476562 C 94.582031 15.589844 94.128906 14.632812 93.160156 14.632812 C 92.609375 14.632812 91.976562 15.035156 91.976562 16.0625 C 91.976562 17.046875 92.792969 17.53125 94.128906 18.695312 C 95.375 19.773438 95.765625 20.550781 95.765625 21.617188 C 95.765625 23.335938 94.273438 24.265625 92.527344 24.265625 C 91.511719 24.265625 90.835938 24.097656 90.203125 23.820312 C 90.152344 23.792969 90.117188 23.738281 90.117188 23.625 L 90.117188 21.492188 L 90.445312 21.492188 C 90.65625 22.769531 91.351562 23.765625 92.390625 23.765625 C 93.1875 23.765625 93.894531 23.015625 93.894531 21.992188 C 93.894531 21.078125 93.539062 20.441406 91.828125 19.164062 C 90.910156 18.5 90.152344 17.722656 90.152344 16.503906 C 90.152344 15.117188 91.316406 14.132812 93.003906 14.132812 C 93.800781 14.132812 94.398438 14.160156 95.007812 14.355469 C 95.097656 14.398438 95.132812 14.480469 95.132812 14.550781 L 95.132812 16.476562 Z M 87.476562 2.804688 C 87.476562 2.804688 87.589844 2.347656 87.800781 2.285156 C 87.800781 2.285156 90.460938 2.300781 90.96875 2.316406 C 91.472656 2.332031 93.058594 2.796875 92.582031 4.699219 C 92.550781 4.828125 92.417969 4.761719 92.371094 4.617188 C 92.324219 4.476562 91.914062 2.742188 90.589844 2.742188 C 89.269531 2.742188 87.476562 2.804688 87.476562 2.804688 Z M 82.617188 1.5 C 82.617188 1.5 85.683594 1.535156 86.023438 1.535156 C 86.367188 1.535156 87.070312 1.617188 87.234375 1.859375 C 87.394531 2.105469 87.476562 2.480469 87.070312 2.675781 C 86.660156 2.871094 86.265625 2.667969 86.007812 2.433594 C 85.777344 2.21875 85.421875 1.894531 85.421875 1.894531 L 82.8125 1.679688 Z M 81.226562 7.113281 C 81.226562 7.113281 80.070312 8.207031 79.90625 8.335938 C 79.742188 8.46875 79.449219 8.710938 78.894531 8.710938 C 78.339844 8.710938 77.867188 8.546875 77.117188 8.042969 C 76.367188 7.535156 74.980469 6.898438 74.390625 6.753906 L 74.457031 6.671875 C 74.457031 6.671875 76.136719 7.078125 76.628906 7.226562 C 77.117188 7.371094 77.929688 7.617188 78.746094 7.617188 C 79.5625 7.617188 80.460938 7.207031 81.046875 7.046875 Z M 81.226562 7.113281 "/>
<path style=" stroke:none;fill-rule:nonzero;fill:rgb(100%,100%,100%);fill-opacity:1;" d="M 27.695312 1.898438 L 28.554688 1.898438 C 29.398438 1.898438 29.996094 2.425781 29.996094 3.9375 C 29.996094 5.253906 29.628906 6.308594 28.554688 6.308594 L 27.695312 6.308594 Z M 37.363281 10.824219 C 35.980469 10.824219 34.734375 9.035156 34.734375 5.738281 C 34.734375 3.367188 35.5625 1.691406 37.15625 1.691406 C 38.464844 1.691406 39.832031 3.121094 39.832031 6.40625 C 39.835938 8.996094 39.050781 10.824219 37.363281 10.824219 Z M 58.765625 20.511719 C 58.320312 20.511719 57.925781 20.296875 57.519531 20.027344 L 58.71875 16.253906 L 58.742188 16.253906 L 59.953125 20.34375 C 59.953125 20.34375 59.605469 20.511719 58.765625 20.511719 Z M 53.976562 2.484375 C 53.835938 2.457031 53.691406 2.4375 53.546875 2.429688 L 53.117188 2.429688 C 52.734375 2.429688 52.558594 2.429688 52.558594 3.164062 L 52.558594 9.507812 C 52.558594 9.742188 52.5625 9.894531 52.574219 10.035156 C 52.847656 10.082031 53.058594 10.113281 53.285156 10.132812 C 53.316406 10.128906 53.285156 10.132812 53.285156 10.132812 C 53.53125 10.148438 53.757812 10.101562 53.976562 10.035156 C 53.992188 9.894531 53.992188 9.742188 53.992188 9.511719 L 53.992188 3.007812 C 53.996094 2.832031 53.988281 2.65625 53.976562 2.484375 Z M 30.09375 18.894531 L 30.09375 15.480469 L 30.128906 15.480469 C 30.847656 15.480469 31.199219 15.992188 31.199219 17.046875 C 31.199219 18.183594 30.828125 18.800781 30.09375 18.894531 Z M 37.679688 15.453125 L 38.59375 15.453125 C 38.796875 15.453125 39.074219 15.453125 39.296875 16.675781 L 39.3125 16.75 L 38.515625 16.75 L 38.515625 17.390625 C 38.515625 18.09375 38.238281 18.09375 38.054688 18.09375 L 37.679688 18.09375 Z M 37.679688 15.453125 "/>
<path style=" stroke:none;fill-rule:nonzero;fill:rgb(0%,0%,0%);fill-opacity:1;" d="M 55.035156 19.871094 C 54.6875 19.871094 54.25 20.101562 53.699219 20.585938 L 53.648438 20.628906 L 53.648438 22.449219 C 53.648438 22.738281 53.683594 23.207031 53.683594 23.207031 C 53.683594 23.207031 53.921875 23.28125 54.375 23.320312 L 54.863281 23.320312 C 55.089844 23.320312 55.402344 23.152344 55.609375 22.675781 C 55.742188 22.359375 56.398438 20.480469 56.398438 20.480469 L 56.300781 20.421875 C 55.785156 20.105469 55.367188 19.871094 55.035156 19.871094 Z M 58.71875 17.394531 L 57.929688 19.878906 L 58.035156 19.9375 C 58.324219 20.09375 58.546875 20.164062 58.765625 20.164062 L 59.535156 20.113281 Z M 58.71875 17.394531 "/>
<path style=" stroke:none;fill-rule:nonzero;fill:rgb(100%,100%,100%);fill-opacity:1;" d="M 50.136719 17.601562 L 50.136719 15.34375 C 50.265625 15.355469 50.832031 15.40625 50.917969 15.421875 C 50.933594 15.5625 50.933594 15.71875 50.933594 15.949219 L 50.933594 22.449219 C 50.933594 22.683594 50.933594 22.835938 50.917969 22.976562 C 50.769531 23.003906 50.617188 23.019531 50.460938 23.03125 L 50.214844 23.046875 L 50.632812 20.839844 L 49.101562 20.839844 L 48.9375 21.242188 C 48.585938 22.121094 47.921875 23.167969 46.765625 23.167969 C 44.632812 23.167969 44.3125 20.574219 44.3125 19.023438 C 44.320312 17.191406 44.949219 15.230469 46.683594 15.230469 C 47.691406 15.230469 48.3125 15.851562 48.535156 17.074219 L 48.632812 17.601562 Z M 85.910156 15.453125 L 86.824219 15.453125 C 87.027344 15.453125 87.304688 15.453125 87.527344 16.675781 L 87.542969 16.75 L 86.746094 16.75 L 86.746094 17.390625 C 86.746094 18.09375 86.46875 18.09375 86.285156 18.09375 L 85.910156 18.09375 Z M 82.890625 15.425781 C 82.800781 15.40625 82.449219 15.382812 82.21875 15.363281 C 81.992188 15.382812 81.636719 15.40625 81.546875 15.421875 C 81.535156 15.566406 81.53125 15.71875 81.53125 15.949219 L 81.53125 22.449219 C 81.53125 22.683594 81.535156 22.835938 81.546875 22.976562 C 81.636719 22.992188 81.996094 23.015625 82.226562 23.035156 C 82.453125 23.015625 82.804688 22.992188 82.890625 22.976562 C 82.902344 22.835938 82.90625 22.683594 82.90625 22.449219 L 82.90625 15.949219 C 82.910156 15.773438 82.902344 15.597656 82.890625 15.425781 Z M 57.582031 29.5 L 57.582031 32.988281 L 57.597656 33.414062 L 57.667969 33.414062 L 57.96875 33.457031 L 58.140625 33.46875 L 58.140625 34.054688 L 55.742188 34.054688 L 55.742188 33.46875 L 55.914062 33.457031 L 56.296875 33.40625 L 56.289062 33.332031 L 56.300781 32.988281 L 56.300781 29.5 L 56.285156 29.074219 L 56.214844 29.074219 L 55.914062 29.03125 L 55.742188 29.019531 L 55.742188 28.433594 L 58.140625 28.433594 L 58.140625 29.019531 L 57.972656 29.03125 L 57.644531 29.070312 C 57.585938 29.085938 57.582031 29.304688 57.582031 29.5 Z M 63.351562 29.253906 L 63.320312 29.710938 L 63.320312 34.054688 L 62.679688 34.054688 C 62.089844 33.195312 61.484375 32.347656 60.855469 31.515625 L 59.980469 30.316406 L 59.980469 32.769531 L 60.011719 33.242188 C 60.03125 33.386719 60.164062 33.441406 60.539062 33.457031 L 60.714844 33.464844 L 60.714844 34.054688 L 58.71875 34.054688 L 58.71875 33.46875 L 58.890625 33.457031 C 59.15625 33.441406 59.25 33.382812 59.265625 33.234375 L 59.296875 32.777344 L 59.296875 29.503906 L 59.285156 29.480469 C 59.105469 29.171875 58.910156 29.03125 58.664062 29.03125 L 58.480469 29.03125 L 58.480469 28.429688 L 60.257812 28.433594 L 62.636719 31.5625 L 62.636719 29.714844 L 62.613281 29.367188 L 62.597656 29.238281 L 62.574219 29.136719 L 62.566406 29.136719 C 62.511719 29.078125 62.347656 29.042969 62.082031 29.03125 L 61.90625 29.019531 L 61.90625 28.429688 L 63.898438 28.429688 L 63.898438 29.019531 L 63.726562 29.027344 C 63.46875 29.050781 63.367188 29.105469 63.351562 29.253906 Z M 68.277344 33.453125 L 68.273438 33.457031 C 68.253906 33.726562 68.050781 33.808594 67.890625 33.871094 C 67.460938 34.046875 67 34.140625 66.535156 34.148438 C 64.839844 34.148438 63.828125 33.050781 63.828125 31.214844 C 63.828125 29.789062 64.785156 28.347656 66.617188 28.347656 C 67.199219 28.347656 67.527344 28.472656 67.816406 28.582031 C 67.84375 28.589844 67.875 28.601562 67.902344 28.605469 C 67.898438 28.605469 67.894531 28.609375 67.894531 28.609375 C 68.199219 28.722656 68.261719 28.929688 68.261719 29.082031 L 68.261719 30.230469 L 67.753906 30.230469 L 67.722656 30.078125 C 67.59375 29.355469 67.195312 28.957031 66.597656 28.957031 C 65.570312 28.957031 65.199219 30.09375 65.195312 31.152344 C 65.195312 32.039062 65.382812 33.535156 66.640625 33.535156 C 67.191406 33.535156 67.632812 33.140625 67.925781 32.402344 L 67.972656 32.285156 L 68.492188 32.285156 Z M 69.40625 34.144531 C 69.03125 34.144531 68.726562 33.808594 68.726562 33.398438 C 68.726562 32.988281 69.027344 32.65625 69.402344 32.65625 C 69.761719 32.65625 70.066406 32.996094 70.066406 33.398438 C 70.066406 33.792969 69.757812 34.144531 69.40625 34.144531 Z M 86.054688 1.910156 C 86.054688 1.910156 86.710938 1.859375 86.839844 1.890625 C 86.972656 1.925781 87.230469 2.25 87.082031 2.378906 C 86.9375 2.511719 86.789062 2.578125 86.59375 2.496094 C 86.398438 2.414062 86.054688 1.910156 86.054688 1.910156 Z M 86.054688 1.910156 "/>
<path style=" stroke:none;fill-rule:nonzero;fill:rgb(0%,0%,0%);fill-opacity:1;" d="M 29.648438 3.9375 C 29.648438 2.421875 29.023438 2.246094 28.554688 2.246094 L 28.042969 2.246094 L 28.042969 5.960938 L 28.554688 5.960938 C 29.28125 5.960938 29.648438 5.28125 29.648438 3.9375 Z M 29.648438 3.9375 "/>
<path style=" stroke:none;fill-rule:nonzero;fill:rgb(100%,100%,100%);fill-opacity:1;" d="M 28.335938 2.539062 L 28.554688 2.539062 C 28.8125 2.539062 29.355469 2.539062 29.355469 3.9375 C 29.355469 5.082031 29.085938 5.667969 28.554688 5.667969 L 28.335938 5.667969 Z M 28.335938 2.539062 "/>
<path style=" stroke:none;fill-rule:nonzero;fill:rgb(0%,0%,0%);fill-opacity:1;" d="M 37.363281 10.476562 C 39.28125 10.476562 39.488281 7.628906 39.488281 6.40625 C 39.488281 3.40625 38.277344 2.039062 37.15625 2.039062 C 35.625 2.039062 35.082031 3.949219 35.082031 5.738281 C 35.082031 8.851562 36.230469 10.476562 37.363281 10.476562 Z M 37.363281 10.476562 "/>
<path style=" stroke:none;fill-rule:nonzero;fill:rgb(100%,100%,100%);fill-opacity:1;" d="M 37.15625 2.332031 C 38.140625 2.332031 39.195312 3.605469 39.195312 6.40625 C 39.195312 7.542969 39.015625 10.183594 37.367188 10.183594 C 36.402344 10.183594 35.375 8.625 35.375 5.738281 C 35.375 4.089844 35.84375 2.332031 37.15625 2.332031 Z M 55.339844 22.558594 C 55.191406 22.90625 54.988281 23.027344 54.863281 23.027344 L 54.386719 23.027344 C 54.242188 23.019531 54.097656 23 53.953125 22.976562 C 53.941406 22.800781 53.9375 22.625 53.9375 22.449219 L 53.9375 20.765625 C 54.515625 20.277344 54.855469 20.164062 55.035156 20.164062 C 55.285156 20.164062 55.691406 20.394531 56.042969 20.609375 C 55.824219 21.265625 55.589844 21.917969 55.339844 22.558594 Z M 58.765625 19.871094 C 58.597656 19.859375 58.433594 19.808594 58.285156 19.726562 L 58.710938 18.394531 L 59.136719 19.847656 Z M 58.765625 19.871094 "/>
<path style=" stroke:none;fill-rule:nonzero;fill:rgb(0%,0%,0%);fill-opacity:1;" d="M 57.394531 32.988281 C 57.394531 33.191406 57.394531 33.300781 57.421875 33.441406 C 57.445312 33.582031 57.667969 33.621094 57.957031 33.644531 L 57.957031 33.875 L 55.925781 33.875 L 55.925781 33.644531 C 56.21875 33.621094 56.433594 33.582031 56.460938 33.441406 C 56.488281 33.300781 56.488281 33.191406 56.488281 32.988281 L 56.488281 29.5 C 56.488281 29.300781 56.488281 29.191406 56.460938 29.050781 C 56.433594 28.90625 56.21875 28.871094 55.925781 28.847656 L 55.925781 28.617188 L 57.957031 28.617188 L 57.957031 28.847656 C 57.667969 28.871094 57.445312 28.90625 57.421875 29.050781 C 57.394531 29.191406 57.394531 29.300781 57.394531 29.5 Z M 62.777344 33.875 C 62.003906 32.714844 60.769531 31.113281 59.808594 29.769531 L 59.796875 29.769531 L 59.796875 32.773438 C 59.796875 32.957031 59.808594 33.121094 59.828125 33.261719 C 59.863281 33.515625 60.035156 33.621094 60.53125 33.640625 L 60.53125 33.871094 L 58.902344 33.871094 L 58.902344 33.640625 C 59.25 33.617188 59.421875 33.515625 59.449219 33.261719 C 59.472656 33.101562 59.484375 32.9375 59.484375 32.773438 L 59.484375 29.449219 C 59.304688 29.105469 59.050781 28.847656 58.664062 28.847656 L 58.664062 28.617188 L 60.164062 28.617188 C 60.746094 29.398438 62.320312 31.429688 62.808594 32.109375 L 62.820312 32.109375 L 62.820312 29.71875 C 62.820312 29.53125 62.796875 29.367188 62.785156 29.226562 C 62.765625 28.976562 62.597656 28.871094 62.09375 28.847656 L 62.09375 28.621094 L 63.71875 28.621094 L 63.71875 28.847656 C 63.378906 28.871094 63.203125 28.976562 63.171875 29.226562 C 63.148438 29.390625 63.136719 29.554688 63.136719 29.71875 L 63.136719 33.875 Z M 68.273438 32.46875 L 68.09375 33.441406 C 68.078125 33.613281 67.964844 33.644531 67.777344 33.71875 C 67.382812 33.875 66.960938 33.957031 66.535156 33.960938 C 65.105469 33.960938 64.015625 33.128906 64.015625 31.210938 C 64.015625 30.0625 64.734375 28.527344 66.617188 28.527344 C 67.21875 28.527344 67.511719 28.664062 67.828125 28.78125 C 68.007812 28.847656 68.078125 28.949219 68.078125 29.078125 L 68.078125 30.042969 L 67.90625 30.042969 C 67.804688 29.464844 67.46875 28.773438 66.597656 28.773438 C 65.5625 28.773438 65.019531 29.804688 65.011719 31.152344 C 65.011719 32.601562 65.496094 33.714844 66.644531 33.714844 C 67.382812 33.714844 67.839844 33.121094 68.101562 32.464844 L 68.273438 32.464844 Z M 69.402344 32.839844 C 69.65625 32.839844 69.886719 33.097656 69.886719 33.398438 C 69.886719 33.691406 69.65625 33.960938 69.40625 33.960938 C 69.144531 33.960938 68.910156 33.707031 68.910156 33.398438 C 68.910156 33.085938 69.144531 32.839844 69.402344 32.839844 Z M 98.824219 23.066406 L 99.183594 23.066406 L 99.722656 23.941406 L 100.074219 23.941406 L 99.488281 23.054688 C 99.789062 23.015625 100.019531 22.859375 100.019531 22.5 C 100.019531 22.101562 99.78125 21.925781 99.296875 21.925781 L 98.511719 21.925781 L 98.511719 23.941406 L 98.824219 23.941406 Z M 98.824219 23.066406 "/>
<path style=" stroke:none;fill-rule:nonzero;fill:rgb(100%,100%,100%);fill-opacity:1;" d="M 98.824219 22.804688 L 98.824219 22.183594 L 99.246094 22.183594 C 99.464844 22.183594 99.695312 22.230469 99.695312 22.480469 C 99.695312 22.789062 99.457031 22.804688 99.195312 22.804688 Z M 98.824219 22.804688 "/>
</g>
</svg>
