<?xml version="1.0" encoding="UTF-8"?>
<svg xmlns="http://www.w3.org/2000/svg" xmlns:xlink="http://www.w3.org/1999/xlink" width="100px" height="px" viewBox="0 0 100 100" version="1.1">
<g id="surface1">
<rect x="0" y="0" width="100" height="100" style="fill:rgb(100%,100%,100%);fill-opacity:1;stroke:none;"/>
<path style="fill-rule:evenodd;fill:rgb(80%,13.333333%,16.078431%);fill-opacity:1;stroke-width:1;stroke-linecap:butt;stroke-linejoin:miter;stroke:rgb(80%,13.333333%,16.078431%);stroke-opacity:1;stroke-miterlimit:2.613;" d="M 58.436692 67.690486 C 73.781877 67.690486 86.220662 80.144331 86.220662 95.497045 C 86.220662 110.857289 73.781877 123.303604 58.436692 123.303604 C 43.083978 123.303604 30.645192 110.857289 30.645192 95.497045 C 30.645192 80.144331 43.083978 67.690486 58.436692 67.690486 Z M 58.436692 67.690486 " transform="matrix(0.518791,0,0,0.518791,0,0)"/>
<path style="fill-rule:evenodd;fill:rgb(80%,13.333333%,16.078431%);fill-opacity:1;stroke-width:1;stroke-linecap:butt;stroke-linejoin:miter;stroke:rgb(80%,13.333333%,16.078431%);stroke-opacity:1;stroke-miterlimit:2.613;" d="M 36.382695 2.831104 L 65.484333 2.831104 L 120.163789 81.808357 L 112.671906 94.60856 L 119.275305 110.066688 L 65.921046 189.924896 L 36.819408 189.924896 C 36.819408 189.924896 88.855998 118.431997 91.943106 112.702024 C 95.037743 106.97205 100.315945 94.61609 91.943106 80.053976 C 85.78395 69.339453 36.382695 2.831104 36.382695 2.831104 Z M 36.382695 2.831104 " transform="matrix(0.518791,0,0,0.518791,0,0)"/>
<path style=" stroke:none;fill-rule:evenodd;fill:rgb(80%,13.333333%,16.078431%);fill-opacity:1;" d="M 73.085938 38.550781 L 78.820312 49.386719 C 78.820312 49.386719 73.125 61.679688 72.996094 61.820312 C 72.414062 62.449219 69.503906 62.449219 69.890625 60.527344 C 70.152344 59.21875 75.351562 49.675781 75.351562 49.53125 C 75.351562 49.4375 72.722656 43.214844 70.246094 39.601562 C 69.621094 38.6875 69.875 36.378906 71.980469 36.761719 C 72.511719 36.859375 73.085938 38.550781 73.085938 38.550781 Z M 37.859375 1.46875 L 52.726562 1.46875 C 52.726562 1.46875 82.007812 42.671875 83.15625 45.878906 C 84.300781 49.085938 84.527344 51.152344 83.15625 53.894531 C 81.78125 56.636719 52.726562 98.300781 52.726562 98.300781 L 38.085938 98.300781 C 38.085938 98.300781 63.023438 64.191406 66.457031 58.46875 C 69.890625 52.746094 69.425781 45.878906 67.140625 42.214844 C 64.851562 38.554688 37.859375 1.46875 37.859375 1.46875 Z M 37.859375 1.46875 "/>
</g>
</svg>
