<?xml version="1.0" encoding="UTF-8"?>
<svg xmlns="http://www.w3.org/2000/svg" xmlns:xlink="http://www.w3.org/1999/xlink" width="100px" height="px" viewBox="0 0 100 100" version="1.1">
<g id="surface1">
<rect x="0" y="0" width="100" height="100" style="fill:rgb(100%,100%,100%);fill-opacity:1;stroke:none;"/>
<path style=" stroke:none;fill-rule:evenodd;fill:rgb(48.235294%,0%,16.862745%);fill-opacity:1;" d="M 86.480469 59.21875 L 86.476562 39.671875 L 86.476562 28.386719 L 84.558594 27.28125 L 76.882812 22.847656 L 76.707031 22.742188 L 76.703125 22.742188 L 59.773438 12.96875 L 59.597656 12.867188 L 59.597656 43.90625 L 61.515625 45.015625 L 86.476562 59.429688 Z M 86.480469 59.21875 "/>
<path style=" stroke:none;fill-rule:evenodd;fill:rgb(0%,0%,0%);fill-opacity:1;" d="M 86.476562 59.429688 L 61.515625 45.015625 L 59.597656 43.90625 L 59.597656 12.867188 L 51.921875 8.4375 L 51.921875 39.476562 L 51.917969 46.121094 L 51.921875 46.121094 L 51.917969 46.121094 L 51.917969 48.339844 L 51.921875 48.339844 L 53.84375 49.449219 L 59.597656 52.769531 L 61.515625 53.878906 L 86.476562 68.289062 Z M 86.476562 59.429688 "/>
<path style=" stroke:none;fill-rule:evenodd;fill:rgb(9.803922%,57.647059%,55.294118%);fill-opacity:1;" d="M 23.296875 76.152344 L 40.226562 85.925781 L 40.402344 86.023438 L 48.078125 90.457031 L 50.003906 91.566406 L 59.597656 86.023438 L 59.773438 85.925781 L 59.773438 85.921875 L 76.703125 76.148438 L 76.878906 76.046875 L 49.996094 60.527344 L 48.078125 61.632812 L 48.078125 61.636719 L 23.117188 76.046875 Z M 23.296875 76.152344 "/>
<path style=" stroke:none;fill-rule:evenodd;fill:rgb(0%,0%,0%);fill-opacity:1;" d="M 23.117188 76.046875 L 48.078125 61.636719 L 48.078125 61.632812 L 49.996094 60.527344 L 76.878906 76.046875 L 84.558594 71.613281 L 59.597656 57.203125 L 57.675781 56.097656 L 51.917969 52.769531 L 51.921875 52.773438 L 51.917969 52.769531 L 50.003906 51.664062 L 49.996094 51.664062 L 42.320312 56.097656 L 15.441406 71.613281 Z M 23.117188 76.046875 "/>
<path style=" stroke:none;fill-rule:evenodd;fill:rgb(92.54902%,71.764706%,23.137255%);fill-opacity:1;" d="M 40.226562 12.96875 L 23.296875 22.742188 L 23.121094 22.84375 L 15.441406 27.277344 L 15.441406 27.28125 L 13.519531 28.382812 L 13.519531 59.425781 L 38.484375 45.015625 L 40.40625 43.90625 L 40.40625 12.863281 Z M 40.226562 12.96875 "/>
<path style=" stroke:none;fill-rule:evenodd;fill:rgb(0%,0%,0%);fill-opacity:1;" d="M 40.40625 12.863281 L 40.40625 43.90625 L 38.484375 45.015625 L 13.519531 59.425781 L 13.519531 68.289062 L 38.484375 53.878906 L 40.40625 52.765625 L 40.40625 52.769531 L 46.160156 49.449219 L 46.15625 49.445312 L 46.160156 49.445312 L 48.078125 48.339844 L 48.078125 8.433594 Z M 40.40625 12.863281 "/>
</g>
</svg>
