<?xml version="1.0" encoding="UTF-8"?>
<svg xmlns="http://www.w3.org/2000/svg" xmlns:xlink="http://www.w3.org/1999/xlink" width="100px" height="px" viewBox="0 0 100 100" version="1.1">
<g id="surface1">
<rect x="0" y="0" width="100" height="100" style="fill:rgb(100%,100%,100%);fill-opacity:1;stroke:none;"/>
<path style=" stroke:none;fill-rule:evenodd;fill:rgb(0%,0%,0%);fill-opacity:1;" d="M 21.15625 27.667969 C 14.457031 29.628906 9.855469 35.777344 9.871094 42.757812 C 9.871094 49.859375 14.625 55.878906 21.15625 57.78125 C 22.230469 58.097656 23.34375 58.289062 24.484375 58.351562 L 9.078125 58.351562 L 9.078125 27.097656 L 24.453125 27.097656 C 23.34375 27.160156 22.234375 27.382812 21.15625 27.667969 Z M 70.890625 37.433594 C 70.921875 37.71875 70.953125 38.003906 70.953125 38.289062 C 70.953125 38.289062 71.015625 38.792969 70.890625 39.429688 C 70.667969 40.601562 69.84375 42.25 67.085938 42.25 L 64.453125 42.25 L 64.453125 34.484375 L 67.085938 34.484375 C 67.085938 34.484375 70.320312 34.421875 70.890625 37.433594 Z M 70.890625 27.097656 C 71.808594 27.289062 79.574219 29.128906 79.574219 37.683594 C 79.574219 37.683594 79.226562 46.023438 72.917969 47.796875 L 79.445312 58.351562 L 91.113281 58.351562 L 91.113281 50.207031 L 82.015625 50.207031 L 82.015625 46.78125 L 91.113281 46.78125 L 91.113281 39.144531 L 82.015625 39.144531 L 82.015625 35.6875 L 91.113281 35.6875 L 91.113281 27.097656 L 70.792969 27.097656 Z M 46.671875 58.574219 C 55.421875 58.574219 62.519531 51.472656 62.519531 42.757812 C 62.519531 33.976562 55.417969 26.875 46.671875 26.875 L 70.886719 27.097656 L 46.671875 26.875 C 42.550781 26.875 38.8125 28.460938 35.988281 31.027344 C 38.476562 33.257812 40.1875 36.222656 40.871094 39.492188 L 30.757812 39.492188 C 29.574219 37.265625 27.257812 35.875 24.738281 35.878906 C 23.4375 35.878906 22.203125 36.226562 21.15625 36.859375 C 19.105469 38.117188 17.855469 40.351562 17.859375 42.757812 C 17.859375 45.230469 19.191406 47.417969 21.15625 48.621094 C 22.203125 49.253906 23.4375 49.636719 24.738281 49.636719 C 27.242188 49.636719 29.363281 48.304688 30.570312 46.339844 L 40.808594 46.339844 C 40.046875 49.507812 38.335938 52.296875 35.988281 54.421875 C 38.8125 56.988281 42.550781 58.574219 46.671875 58.574219 Z M 46.671875 36.511719 C 50.125 36.511719 52.882812 39.300781 52.882812 42.757812 C 52.882812 46.179688 50.125 48.96875 46.671875 48.96875 C 43.246094 48.96875 40.457031 46.179688 40.457031 42.757812 C 40.457031 39.300781 43.25 36.511719 46.671875 36.511719 Z M 64.453125 49.351562 L 69.367188 58.351562 L 64.453125 58.351562 Z M 9.171875 66.785156 C 8.222656 66.878906 7.492188 67.734375 7.492188 68.78125 C 7.492188 69.730469 8.097656 70.367188 8.984375 70.367188 L 9.171875 70.367188 C 10.125 70.269531 10.820312 69.414062 10.820312 68.335938 C 10.820312 67.449219 10.21875 66.785156 9.332031 66.785156 Z M 93.710938 70.554688 L 93.808594 70.554688 C 94.125 70.554688 94.535156 70.429688 95.136719 70.207031 L 94.949219 71.09375 C 94.503906 71.285156 94.09375 71.378906 93.710938 71.378906 L 93.679688 71.378906 C 92.570312 71.378906 91.871094 70.683594 91.871094 69.605469 C 91.871094 68.527344 92.664062 67.671875 93.710938 67.609375 L 93.839844 67.609375 C 94.980469 67.609375 95.582031 68.464844 95.328125 69.636719 L 92.949219 69.636719 C 92.917969 70.207031 93.238281 70.523438 93.710938 70.554688 Z M 93.710938 69.003906 L 94.34375 69.003906 C 94.410156 68.621094 94.1875 68.335938 93.808594 68.335938 C 93.773438 68.335938 93.742188 68.335938 93.710938 68.371094 C 93.425781 68.402344 93.203125 68.589844 93.078125 69.003906 Z M 98.464844 68.78125 C 98.054688 68.589844 97.578125 68.496094 97.421875 68.496094 C 97.261719 68.496094 97.167969 68.558594 97.167969 68.65625 C 97.167969 69.035156 98.371094 69.351562 98.371094 70.238281 C 98.371094 70.90625 97.800781 71.347656 97.007812 71.347656 C 96.597656 71.347656 96.214844 71.253906 95.769531 71.03125 L 95.898438 70.238281 C 96.214844 70.335938 96.5625 70.492188 96.914062 70.492188 C 97.132812 70.492188 97.261719 70.398438 97.261719 70.269531 C 97.261719 69.890625 96.023438 69.511719 96.023438 68.78125 C 96.023438 68.082031 96.597656 67.609375 97.386719 67.609375 C 97.769531 67.609375 98.117188 67.703125 98.527344 67.925781 Z M 87.277344 72.425781 C 87.6875 72.394531 87.847656 72.300781 87.847656 72.109375 C 87.847656 71.886719 87.65625 71.824219 87.277344 71.730469 C 87.148438 71.699219 87.023438 71.664062 86.863281 71.632812 C 86.355469 71.699219 86.199219 71.855469 86.199219 72.078125 C 86.199219 72.332031 86.421875 72.457031 86.992188 72.457031 C 87.085938 72.457031 87.179688 72.425781 87.277344 72.425781 Z M 87.277344 70.808594 C 87.941406 70.90625 88.828125 71.0625 88.828125 71.949219 C 88.828125 72.519531 88.511719 73.058594 87.277344 73.121094 L 86.960938 73.121094 C 85.660156 73.121094 85.28125 72.679688 85.246094 72.300781 L 85.246094 72.171875 C 85.28125 71.855469 85.566406 71.601562 86.136719 71.410156 C 85.851562 71.285156 85.628906 71.03125 85.628906 70.746094 C 85.628906 70.554688 85.753906 70.367188 85.914062 70.269531 C 86.039062 70.175781 86.136719 70.144531 86.355469 70.078125 C 85.945312 69.828125 85.753906 69.476562 85.753906 69.035156 C 85.753906 68.398438 86.292969 67.703125 87.277344 67.671875 L 89.367188 67.671875 L 89.273438 68.464844 L 88.703125 68.464844 C 88.796875 68.683594 88.828125 68.84375 88.828125 69.035156 C 88.828125 69.699219 88.355469 70.363281 87.308594 70.363281 L 87.277344 70.363281 C 86.769531 70.363281 86.640625 70.429688 86.640625 70.554688 C 86.644531 70.714844 86.929688 70.746094 87.277344 70.808594 Z M 87.277344 69.699219 C 87.71875 69.667969 87.816406 69.289062 87.816406 68.910156 C 87.816406 68.589844 87.625 68.402344 87.308594 68.402344 L 87.277344 68.402344 C 86.925781 68.433594 86.738281 68.6875 86.738281 69.191406 C 86.738281 69.507812 86.925781 69.699219 87.246094 69.699219 Z M 91.367188 66.753906 L 91.460938 65.960938 L 90.382812 65.960938 L 90.289062 66.753906 Z M 90.191406 67.355469 L 89.65625 71.285156 L 90.730469 71.285156 L 91.269531 67.355469 Z M 85.246094 69.226562 C 85.183594 68.242188 84.457031 67.609375 83.441406 67.609375 L 83.316406 67.609375 C 82.203125 67.671875 81.347656 68.558594 81.347656 69.605469 C 81.347656 70.589844 82.140625 71.382812 83.1875 71.382812 L 83.316406 71.382812 C 84.394531 71.316406 85.183594 70.492188 85.25 69.414062 L 85.25 69.226562 Z M 83.316406 70.492188 L 83.1875 70.492188 C 82.871094 70.492188 82.492188 70.238281 82.492188 69.699219 C 82.492188 69.320312 82.679688 68.558594 83.316406 68.496094 L 83.410156 68.496094 C 83.855469 68.496094 84.136719 68.8125 84.136719 69.289062 C 84.136719 69.761719 83.855469 70.398438 83.316406 70.492188 Z M 85.246094 72.171875 L 85.246094 72.300781 Z M 76.785156 70.492188 C 77.324219 70.398438 77.609375 69.761719 77.609375 69.289062 C 77.609375 68.8125 77.324219 68.496094 76.878906 68.496094 L 76.785156 68.496094 C 76.152344 68.558594 75.960938 69.320312 75.960938 69.699219 C 75.960938 70.238281 76.371094 70.492188 76.691406 70.492188 Z M 76.785156 67.609375 L 76.945312 67.609375 C 77.988281 67.609375 78.71875 68.273438 78.71875 69.320312 C 78.71875 70.429688 77.894531 71.316406 76.785156 71.378906 L 76.660156 71.378906 C 75.644531 71.378906 74.851562 70.589844 74.851562 69.605469 C 74.851562 68.558594 75.707031 67.671875 76.785156 67.609375 Z M 80.273438 71.285156 L 79.195312 71.285156 L 79.984375 65.832031 L 81.0625 65.832031 Z M 60.207031 70.554688 L 60.300781 70.554688 C 60.617188 70.554688 61.03125 70.429688 61.632812 70.207031 L 61.445312 71.09375 C 61 71.285156 60.585938 71.378906 60.207031 71.378906 L 60.175781 71.378906 C 59.699219 71.378906 59.257812 71.222656 58.972656 70.96875 C 58.589844 70.683594 58.367188 70.207031 58.367188 69.605469 C 58.367188 69.035156 58.589844 68.527344 58.972656 68.179688 C 59.300781 67.847656 59.742188 67.644531 60.207031 67.609375 L 60.335938 67.609375 C 61.476562 67.609375 62.078125 68.464844 61.824219 69.636719 L 59.445312 69.636719 C 59.414062 70.207031 59.730469 70.523438 60.207031 70.554688 Z M 60.207031 69.003906 L 60.839844 69.003906 C 60.90625 68.621094 60.683594 68.335938 60.300781 68.335938 C 60.269531 68.335938 60.238281 68.335938 60.207031 68.371094 C 59.921875 68.402344 59.699219 68.589844 59.574219 69.003906 Z M 65.628906 68.71875 C 65.40625 68.621094 65.277344 68.589844 65.183594 68.558594 L 64.835938 68.558594 C 64.136719 68.558594 63.566406 69.035156 63.566406 69.667969 C 63.566406 70.175781 63.917969 70.492188 64.519531 70.492188 C 64.835938 70.492188 65.058594 70.429688 65.53125 70.238281 L 65.40625 71.222656 C 65.042969 71.324219 64.671875 71.378906 64.296875 71.382812 C 63.21875 71.382812 62.457031 70.652344 62.457031 69.605469 C 62.457031 68.464844 63.472656 67.609375 64.769531 67.609375 C 65.101562 67.609375 65.433594 67.652344 65.753906 67.734375 Z M 67.6875 68.082031 C 68.015625 67.78125 68.445312 67.613281 68.890625 67.609375 C 69.589844 67.609375 70 68.082031 69.875 68.9375 L 69.558594 71.285156 L 68.480469 71.285156 L 68.796875 68.96875 C 68.828125 68.71875 68.734375 68.496094 68.449219 68.496094 C 68.226562 68.496094 67.910156 68.621094 67.558594 68.9375 L 67.242188 71.285156 L 66.167969 71.285156 L 66.925781 65.832031 L 68.003906 65.832031 Z M 72.03125 68.082031 C 72.472656 67.734375 72.820312 67.609375 73.265625 67.609375 C 74.121094 67.609375 74.34375 68.304688 74.21875 69.066406 L 73.933594 71.285156 L 72.855469 71.285156 L 73.140625 69.128906 C 73.203125 68.78125 73.109375 68.402344 72.824219 68.402344 C 72.570312 68.402344 72.285156 68.558594 71.902344 68.972656 L 71.585938 71.285156 L 70.511719 71.285156 L 71.015625 67.671875 L 72.09375 67.671875 Z M 58.972656 65.832031 L 54.882812 65.832031 L 54.753906 66.753906 L 56.496094 66.753906 L 55.863281 71.285156 L 57.003906 71.285156 L 57.640625 66.753906 L 59.414062 66.753906 L 59.539062 65.832031 Z M 43.503906 70.554688 L 43.566406 70.554688 C 43.914062 70.554688 44.324219 70.429688 44.929688 70.207031 L 44.738281 71.09375 C 44.292969 71.285156 43.851562 71.378906 43.503906 71.378906 L 43.46875 71.378906 C 42.359375 71.378906 41.664062 70.683594 41.664062 69.605469 C 41.664062 68.527344 42.457031 67.671875 43.503906 67.609375 L 43.628906 67.609375 C 44.769531 67.609375 45.371094 68.464844 45.117188 69.636719 L 42.742188 69.636719 C 42.679688 70.207031 43.027344 70.523438 43.503906 70.554688 Z M 43.503906 69.003906 L 44.105469 69.003906 C 44.167969 68.621094 43.976562 68.335938 43.597656 68.335938 C 43.566406 68.335938 43.535156 68.335938 43.503906 68.371094 C 43.183594 68.402344 42.996094 68.589844 42.835938 69.003906 Z M 48.226562 68.78125 C 47.84375 68.589844 47.371094 68.496094 47.179688 68.496094 C 47.050781 68.496094 46.957031 68.558594 46.957031 68.65625 C 46.957031 69.035156 48.160156 69.351562 48.160156 70.238281 C 48.160156 70.90625 47.589844 71.347656 46.800781 71.347656 C 46.355469 71.347656 46.007812 71.253906 45.53125 71.03125 L 45.6875 70.238281 C 46.007812 70.335938 46.324219 70.492188 46.671875 70.492188 C 46.894531 70.492188 47.019531 70.398438 47.019531 70.269531 C 47.019531 69.890625 45.816406 69.511719 45.816406 68.78125 C 45.816406 68.082031 46.386719 67.609375 47.179688 67.609375 C 47.558594 67.609375 47.90625 67.703125 48.320312 67.925781 Z M 51.203125 68.78125 C 50.792969 68.589844 50.347656 68.496094 50.160156 68.496094 C 50.03125 68.496094 49.9375 68.558594 49.9375 68.65625 C 49.9375 69.035156 51.109375 69.351562 51.109375 70.238281 C 51.109375 70.90625 50.570312 71.347656 49.777344 71.347656 C 49.367188 71.347656 48.984375 71.253906 48.542969 71.03125 L 48.699219 70.238281 C 48.984375 70.335938 49.335938 70.492188 49.683594 70.492188 C 49.90625 70.492188 50.03125 70.398438 50.03125 70.269531 C 50.03125 69.890625 48.828125 69.511719 48.828125 68.78125 C 48.828125 68.082031 49.367188 67.609375 50.160156 67.609375 C 50.539062 67.609375 50.855469 67.703125 51.300781 67.925781 Z M 25.527344 70.398438 C 26.226562 70.367188 26.480469 69.984375 26.480469 69.574219 C 26.480469 69.097656 26.035156 68.875 25.527344 68.875 L 24.609375 68.875 L 24.386719 70.398438 Z M 25.527344 67.957031 C 26.101562 67.957031 26.289062 67.640625 26.289062 67.324219 C 26.289062 66.972656 26.066406 66.753906 25.527344 66.753906 L 24.925781 66.753906 L 24.738281 67.957031 Z M 25.527344 65.832031 L 25.625 65.832031 C 27.019531 65.832031 27.398438 66.53125 27.398438 67.164062 C 27.398438 67.703125 27.175781 68.113281 26.636719 68.367188 C 27.273438 68.558594 27.621094 69.097656 27.621094 69.730469 C 27.621094 70.398438 27.113281 71.285156 25.78125 71.285156 L 23.121094 71.285156 L 23.878906 65.832031 Z M 31.394531 71.285156 L 30.316406 71.285156 L 30.378906 70.90625 C 30 71.191406 29.585938 71.347656 29.207031 71.347656 C 28.351562 71.347656 28.035156 70.746094 28.160156 69.984375 L 28.476562 67.671875 L 29.554688 67.671875 L 29.300781 69.605469 C 29.175781 70.335938 29.332031 70.554688 29.585938 70.554688 C 29.871094 70.554688 30.15625 70.367188 30.507812 70.046875 L 30.824219 67.671875 L 31.902344 67.671875 Z M 34.878906 68.78125 C 34.5 68.589844 34.023438 68.496094 33.832031 68.496094 C 33.707031 68.496094 33.613281 68.558594 33.613281 68.65625 C 33.613281 69.035156 34.816406 69.351562 34.816406 70.238281 C 34.816406 70.90625 34.246094 71.347656 33.453125 71.347656 C 33.011719 71.347656 32.660156 71.253906 32.1875 71.03125 L 32.34375 70.238281 C 32.660156 70.335938 33.007812 70.492188 33.359375 70.492188 C 33.546875 70.492188 33.707031 70.398438 33.707031 70.269531 C 33.707031 69.890625 32.46875 69.511719 32.46875 68.78125 C 32.46875 68.082031 33.042969 67.609375 33.832031 67.609375 C 34.214844 67.609375 34.5625 67.703125 34.976562 67.925781 Z M 38.746094 68.082031 C 39.160156 67.734375 39.539062 67.609375 39.984375 67.609375 C 40.808594 67.609375 41.03125 68.304688 40.933594 69.066406 L 40.617188 71.285156 L 39.539062 71.285156 L 39.855469 69.128906 C 39.890625 68.78125 39.824219 68.402344 39.507812 68.402344 C 39.285156 68.402344 38.96875 68.558594 38.621094 68.972656 L 38.273438 71.285156 L 37.195312 71.285156 L 37.703125 67.671875 L 38.8125 67.671875 Z M 36.941406 66.753906 L 37.066406 65.960938 L 35.988281 65.960938 L 35.863281 66.753906 Z M 35.800781 67.355469 L 35.261719 71.285156 L 36.339844 71.285156 L 36.878906 67.355469 Z M 14.625 68.242188 C 15.195312 68.148438 15.449219 67.796875 15.449219 67.449219 C 15.449219 67.039062 15.132812 66.785156 14.625 66.753906 L 14.023438 66.753906 L 13.832031 68.242188 Z M 14.625 65.832031 L 14.816406 65.832031 C 16.148438 65.832031 16.589844 66.816406 16.589844 67.480469 C 16.589844 68.148438 16.210938 68.75 15.417969 68.90625 L 15.417969 68.941406 L 16.019531 71.316406 L 14.785156 71.316406 L 14.625 70.460938 L 14.402344 69.097656 L 13.707031 69.097656 L 13.421875 71.316406 L 12.308594 71.316406 L 13.039062 65.832031 Z M 20.679688 66.753906 L 18.523438 66.753906 L 18.335938 68.050781 L 20.234375 68.050781 L 20.109375 68.96875 L 18.207031 68.96875 L 18.019531 70.398438 L 20.742188 70.398438 L 20.617188 71.316406 L 16.8125 71.316406 L 17.542969 65.832031 L 20.773438 65.832031 Z M 9.171875 71.378906 L 8.984375 71.378906 C 7.460938 71.378906 6.351562 70.335938 6.351562 68.84375 C 6.351562 67.164062 7.523438 65.894531 9.171875 65.769531 L 9.425781 65.769531 C 10.917969 65.769531 11.992188 66.785156 11.992188 68.273438 C 11.996094 70.082031 10.789062 71.285156 9.171875 71.378906 Z M 6.097656 66.976562 C 5.6875 66.84375 5.261719 66.78125 4.832031 66.785156 C 3.152344 66.785156 2.613281 68.050781 2.613281 68.910156 C 2.613281 69.796875 3.183594 70.367188 4.101562 70.367188 C 4.703125 70.367188 5.242188 70.175781 6.003906 69.730469 L 5.84375 70.9375 C 5.210938 71.222656 4.609375 71.378906 4.007812 71.378906 C 2.484375 71.378906 1.472656 70.367188 1.472656 68.875 C 1.472656 67.039062 2.867188 65.769531 4.863281 65.769531 C 5.339844 65.769531 5.75 65.832031 6.289062 65.960938 Z M 6.097656 66.976562 "/>
</g>
</svg>
