<?xml version="1.0" encoding="UTF-8"?>
<svg xmlns="http://www.w3.org/2000/svg" xmlns:xlink="http://www.w3.org/1999/xlink" width="100px" height="px" viewBox="0 0 102 23" version="1.1">
<g id="surface1">
<path style=" stroke:none;fill-rule:nonzero;fill:rgb(0%,0%,0%);fill-opacity:1;" d="M 101.859375 17.75 L 88.207031 17.75 L 88.207031 17.289062 L 101.859375 17.289062 Z M 95.058594 15.15625 L 96.351562 13.90625 L 96.863281 14.414062 L 95.472656 15.574219 C 95.382812 15.710938 95.289062 15.945312 95.195312 16.082031 L 94.179688 16.082031 C 94.339844 15.671875 94.65625 15.339844 95.058594 15.15625 Z M 90.707031 7.28125 C 90.660156 7.28125 89.644531 7.558594 89.644531 7.558594 C 89.40625 7.652344 89.171875 7.761719 88.949219 7.882812 C 88.71875 8.019531 88.484375 8.253906 88.484375 8.390625 L 89.410156 8.625 C 89.539062 8.472656 89.679688 8.332031 89.828125 8.207031 L 90.058594 8.113281 L 90.800781 7.328125 C 90.847656 7.28125 90.847656 7.234375 90.683594 7.28125 Z M 96.953125 9.78125 C 96.390625 9.164062 95.867188 8.515625 95.382812 7.835938 C 95.730469 6.96875 95.855469 6.03125 95.75 5.101562 C 95.5625 4.761719 95.34375 4.433594 95.101562 4.128906 C 95.011719 3.988281 94.59375 3.527344 94.410156 3.527344 C 94.363281 3.527344 94.316406 3.527344 94.316406 3.574219 L 94.363281 4.082031 C 93.761719 4.453125 93.066406 4.917969 92.464844 5.378906 C 92.453125 5.566406 92.46875 5.753906 92.511719 5.9375 C 92.609375 6.015625 92.71875 6.078125 92.835938 6.121094 C 93.246094 6.023438 93.664062 5.945312 94.085938 5.890625 L 93.296875 7.046875 L 92.371094 7.695312 L 91.261719 7.328125 C 91.167969 7.328125 91.125 7.328125 91.078125 7.371094 L 90.246094 8.253906 C 90.1875 8.296875 90.152344 8.367188 90.152344 8.4375 L 90.105469 9.410156 L 90.105469 9.734375 C 90.089844 10.117188 90.203125 10.492188 90.429688 10.800781 L 90.9375 10.011719 C 90.832031 9.839844 90.757812 9.652344 90.707031 9.457031 L 90.707031 8.625 L 91.214844 8.253906 L 92.605469 9.226562 C 92.816406 9.621094 93.0625 9.992188 93.34375 10.339844 C 93.960938 10.878906 94.628906 11.359375 95.335938 11.773438 C 95.394531 12.136719 95.488281 12.496094 95.613281 12.839844 L 97.277344 14.554688 L 96.304688 15.804688 C 95.925781 16.007812 95.679688 16.394531 95.660156 16.824219 L 96.816406 16.824219 L 96.953125 16.175781 L 98.34375 14.648438 C 98.433594 14.554688 98.433594 14.507812 98.390625 14.414062 L 98.019531 13.117188 C 98.371094 12.71875 98.582031 12.214844 98.621094 11.683594 C 98.621094 10.429688 97.371094 10.105469 96.953125 9.757812 Z M 99.035156 11.820312 C 98.953125 11.519531 98.84375 11.226562 98.710938 10.941406 C 98.710938 10.941406 98.757812 10.894531 98.898438 10.941406 C 99.035156 10.988281 99.730469 11.496094 99.730469 11.496094 C 100.101562 12.007812 100.332031 14.230469 100.332031 15.019531 C 99.925781 14.847656 99.550781 14.613281 99.222656 14.324219 Z M 63.589844 11.3125 C 63.589844 10.476562 63.3125 9.828125 62.617188 9.828125 C 61.925781 9.828125 61.601562 10.476562 61.601562 11.3125 L 61.601562 16.824219 L 62.433594 16.824219 L 62.433594 17.707031 L 57.757812 17.707031 L 57.757812 16.824219 L 58.640625 16.824219 L 58.640625 9.226562 L 57.757812 9.226562 L 57.757812 8.367188 L 61.414062 8.367188 L 61.414062 9.804688 L 61.460938 9.804688 C 61.882812 8.820312 62.847656 8.183594 63.914062 8.183594 C 65.109375 8.113281 66.164062 8.949219 66.367188 10.128906 C 66.457031 10.632812 66.503906 11.144531 66.503906 11.660156 L 66.503906 16.847656 L 67.617188 16.847656 L 67.617188 17.726562 L 63.542969 17.726562 L 63.589844 11.289062 M 44.664062 11.289062 C 44.664062 10.453125 44.386719 9.804688 43.691406 9.804688 C 42.996094 9.804688 42.675781 10.453125 42.675781 11.289062 L 42.675781 16.800781 L 43.507812 16.800781 L 43.507812 17.683594 L 38.832031 17.683594 L 38.832031 16.800781 L 39.710938 16.800781 L 39.710938 9.226562 L 38.832031 9.226562 L 38.832031 8.367188 L 42.488281 8.367188 L 42.488281 9.804688 L 42.535156 9.804688 C 42.957031 8.820312 43.921875 8.183594 44.988281 8.183594 C 46.179688 8.113281 47.238281 8.949219 47.441406 10.128906 C 47.53125 10.632812 47.578125 11.144531 47.578125 11.660156 L 47.578125 16.847656 L 48.691406 16.847656 L 48.691406 17.726562 L 44.617188 17.726562 Z M 71.640625 9.203125 L 71.640625 16.105469 C 71.628906 16.269531 71.6875 16.433594 71.800781 16.546875 C 71.917969 16.664062 72.078125 16.722656 72.242188 16.707031 C 72.433594 16.703125 72.617188 16.671875 72.800781 16.617188 L 72.800781 17.449219 C 72.242188 17.734375 71.617188 17.863281 70.996094 17.820312 C 69.558594 17.820312 68.679688 17.125 68.679688 15.597656 L 68.679688 9.226562 L 67.707031 9.226562 L 67.707031 8.625 C 68.820312 7.742188 70.113281 6.722656 71.132812 5.890625 L 71.6875 5.890625 L 71.6875 8.367188 L 73.101562 8.367188 L 73.101562 9.203125 Z M 13.289062 3.527344 C 13.289062 3.527344 15.558594 5.796875 16.574219 6.957031 L 16.574219 7.835938 C 15.257812 6.628906 13.546875 5.953125 11.761719 5.9375 C 7.550781 5.9375 4.914062 9.132812 4.914062 13.070312 C 4.914062 17.011719 7.414062 20.160156 11.761719 20.160156 C 13.597656 20.175781 15.355469 19.429688 16.621094 18.097656 L 16.621094 18.933594 C 15.324219 20.738281 12.917969 21.898438 9.910156 21.898438 C 4.542969 21.945312 0.84375 18.050781 0.84375 13.09375 C 0.859375 10.707031 1.824219 8.425781 3.527344 6.757812 C 5.230469 5.085938 7.527344 4.167969 9.910156 4.199219 C 11.058594 4.203125 12.199219 4.390625 13.289062 4.753906 Z M 56.371094 15.25 C 55.867188 15.847656 55.113281 16.171875 54.335938 16.128906 C 53.503906 16.128906 52.160156 15.667969 52.113281 13.488281 L 57.113281 13.488281 C 57.113281 13.304688 57.15625 12.980469 57.15625 12.792969 C 57.15625 10.152344 56.09375 8.207031 53.269531 8.207031 C 50.449219 8.207031 49.015625 10.382812 49.015625 13.070312 C 49.015625 15.757812 50.449219 17.890625 53.269531 17.890625 C 54.816406 17.972656 56.261719 17.113281 56.925781 15.710938 Z M 52.066406 12.5625 C 52.066406 10.105469 52.253906 9.179688 53.085938 9.179688 C 53.917969 9.179688 54.105469 10.058594 54.148438 12.5625 Z M 10.835938 13.023438 C 10.835938 10.152344 11.113281 8.902344 12.085938 8.902344 C 13.058594 8.902344 13.335938 10.152344 13.335938 13.023438 C 13.335938 15.898438 13.058594 17.148438 12.085938 17.148438 C 11.113281 17.148438 10.835938 15.898438 10.835938 13.023438 M 7.367188 13.070312 C 7.367188 15.898438 9.078125 18.214844 12.085938 18.214844 C 15.09375 18.214844 16.804688 15.898438 16.804688 13.070312 C 16.804688 10.246094 15.09375 7.90625 12.085938 7.90625 C 9.078125 7.90625 7.367188 10.222656 7.367188 13.046875 M 23.378906 11.289062 C 23.378906 10.453125 23.101562 9.804688 22.40625 9.804688 C 21.710938 9.804688 21.386719 10.453125 21.386719 11.289062 L 21.386719 16.800781 L 22.199219 16.800781 L 22.199219 17.683594 L 17.546875 17.683594 L 17.546875 16.800781 L 18.425781 16.800781 L 18.425781 9.226562 L 17.546875 9.226562 L 17.546875 8.367188 L 21.203125 8.367188 L 21.203125 9.804688 L 21.25 9.804688 C 21.667969 8.820312 22.632812 8.183594 23.703125 8.183594 C 24.894531 8.113281 25.949219 8.949219 26.152344 10.128906 C 26.242188 10.632812 26.289062 11.144531 26.292969 11.660156 L 26.292969 16.847656 L 27.402344 16.847656 L 27.402344 17.726562 L 23.332031 17.726562 L 23.332031 11.3125 Z M 33.972656 5.867188 C 33.972656 6.699219 34.714844 7.257812 35.777344 7.257812 C 36.84375 7.257812 37.582031 6.699219 37.582031 5.867188 C 37.582031 5.03125 36.84375 4.476562 35.777344 4.476562 C 34.714844 4.476562 33.972656 5.078125 33.972656 5.867188 M 31.429688 9.203125 L 31.429688 16.105469 C 31.414062 16.269531 31.472656 16.433594 31.589844 16.546875 C 31.707031 16.664062 31.867188 16.722656 32.03125 16.707031 C 32.21875 16.703125 32.40625 16.671875 32.585938 16.617188 L 32.585938 17.449219 C 32.027344 17.734375 31.40625 17.863281 30.78125 17.820312 C 29.347656 17.820312 28.46875 17.125 28.46875 15.597656 L 28.46875 9.226562 L 27.496094 9.226562 L 27.496094 8.625 C 28.605469 7.742188 29.902344 6.722656 30.921875 5.890625 L 31.453125 5.890625 L 31.453125 8.367188 L 32.609375 8.367188 L 32.609375 9.203125 Z M 86.035156 16.847656 L 87.191406 16.847656 L 87.191406 17.726562 L 83.070312 17.726562 L 83.070312 5.796875 L 82.054688 5.796875 L 82.054688 4.917969 L 86.054688 4.917969 L 86.054688 16.871094 Z M 78.121094 13.09375 C 77.9375 12.949219 77.703125 12.882812 77.472656 12.910156 C 76.59375 12.910156 76.410156 13.789062 76.410156 14.671875 C 76.410156 15.550781 76.6875 16.246094 77.425781 16.246094 C 77.6875 16.269531 77.949219 16.167969 78.121094 15.96875 Z M 78.214844 16.617188 C 77.671875 17.441406 76.746094 17.933594 75.761719 17.914062 C 74.234375 17.914062 73.308594 16.617188 73.308594 15.039062 C 73.308594 13.1875 74.648438 11.984375 76.777344 11.984375 C 77.234375 11.964844 77.6875 12.03125 78.121094 12.167969 L 78.121094 11.566406 C 78.160156 11.101562 77.992188 10.640625 77.664062 10.308594 C 77.332031 9.980469 76.875 9.8125 76.410156 9.851562 C 75.558594 9.851562 74.765625 10.269531 74.28125 10.964844 L 73.769531 10.316406 C 74.5625 9.019531 75.957031 8.214844 77.472656 8.183594 C 79.738281 8.183594 81.082031 9.527344 81.082031 11.566406 L 81.082031 16.847656 L 82.054688 16.847656 L 82.054688 17.726562 L 78.257812 17.726562 Z M 33.464844 17.726562 L 33.464844 16.847656 L 34.296875 16.847656 L 34.296875 9.226562 L 33.464844 9.226562 L 33.464844 8.367188 L 37.261719 8.367188 L 37.261719 16.847656 L 38.140625 16.847656 L 38.140625 17.726562 Z M 33.464844 17.726562 "/>
</g>
</svg>
