<?xml version="1.0" encoding="UTF-8"?>
<svg xmlns="http://www.w3.org/2000/svg" xmlns:xlink="http://www.w3.org/1999/xlink" width="100px" height="px" viewBox="0 0 100 100" version="1.1">
<g id="surface1">
<rect x="0" y="0" width="100" height="100" style="fill:rgb(100%,100%,100%);fill-opacity:1;stroke:none;"/>
<path style="fill-rule:evenodd;fill:rgb(16.862745%,16.862745%,17.647059%);fill-opacity:1;stroke-width:0.299;stroke-linecap:butt;stroke-linejoin:miter;stroke:rgb(16.862745%,16.862745%,17.647059%);stroke-opacity:1;stroke-miterlimit:2.613;" d="M 33.852773 54.626749 C 33.56665 54.250273 32.994406 54.152389 32.617929 54.438511 C 30.328952 55.108639 28.996225 55.967006 27.279492 57.585855 C 24.41827 60.258839 22.897305 63.594421 22.897305 66.455643 C 22.897305 68.368144 23.183427 69.700871 24.132148 71.515488 C 24.90016 73.043983 25.472404 73.902349 26.805131 74.948954 L 49.107603 99.849114 C 49.868085 100.895719 50.154208 101.754085 49.868085 102.996458 C 49.679847 104.140947 49.295841 104.803545 48.34712 105.383319 C 47.39087 106.045918 46.532503 106.143802 45.388014 105.759796 C 45.388014 105.759796 47.006864 108.816786 48.249236 108.530663 C 50.056324 108.244541 50.824336 107.958419 52.247417 107.100053 C 54.44604 105.669442 55.394761 104.329185 56.351012 101.949853 C 57.111495 100.135236 57.209378 99.081102 57.209378 96.987892 C 57.209378 93.456542 55.394761 90.399552 53.775912 88.306343 C 50.628568 84.104864 38.332844 71.515488 38.332844 71.515488 C 35.953512 68.842504 32.904052 66.267405 31.473441 62.6457 C 30.99908 61.591566 31.089435 60.831083 31.285202 59.686594 C 31.473441 58.542105 31.759563 57.781623 32.520045 56.825372 C 32.806168 56.343482 33.09229 56.155244 33.57418 55.771238 C 33.950656 55.583 34.138895 55.010755 33.852773 54.626749 Z M 33.852773 54.626749 " transform="matrix(0.518791,0,0,0.518791,0,0)"/>
<path style="fill-rule:evenodd;fill:rgb(16.862745%,16.862745%,17.647059%);fill-opacity:1;stroke-width:0.299;stroke-linecap:butt;stroke-linejoin:miter;stroke:rgb(16.862745%,16.862745%,17.647059%);stroke-opacity:1;stroke-miterlimit:2.613;" d="M 26.232887 71.703726 C 25.750997 71.515488 25.464875 71.515488 24.990514 71.515488 C 22.129292 72.185616 18.989478 73.134337 16.888739 76.191327 C 15.458128 78.38242 15.081651 79.910915 15.081651 82.772137 C 15.081651 84.774992 15.367773 86.589609 16.512262 88.592465 C 17.272745 90.11343 17.844989 90.979326 19.177716 92.116285 L 41.480188 116.926091 C 42.24067 117.972696 42.428909 118.928946 42.24067 120.163789 C 42.052432 121.217924 41.668426 121.880522 40.719705 122.550651 C 39.763455 123.122895 38.905088 123.220779 37.760599 122.836773 C 37.760599 122.836773 39.379448 125.893763 40.621821 125.697995 C 42.428909 125.411873 43.196921 125.12575 44.627532 124.1695 C 46.720741 122.738889 47.676992 121.406162 48.723597 119.117184 C 49.386195 117.302567 49.581963 116.255963 49.581963 114.155223 C 49.581963 110.533519 47.579108 107.860535 45.960259 105.759796 C 42.812915 101.565847 30.231068 88.494581 30.231068 88.494581 C 27.851736 85.821597 25.276636 83.344381 23.846025 79.813031 C 23.371665 78.668543 23.175897 78.570659 23.175897 77.712292 C 23.273781 76.281681 23.748142 75.137192 24.990514 74.662832 C 26.037119 74.37671 26.895486 74.564948 27.655968 75.33296 C 28.326097 73.902349 27.663498 72.185616 26.232887 71.703726 Z M 26.232887 71.703726 " transform="matrix(0.518791,0,0,0.518791,0,0)"/>
<path style="fill-rule:evenodd;fill:rgb(16.862745%,16.862745%,17.647059%);fill-opacity:1;stroke-width:0.299;stroke-linecap:butt;stroke-linejoin:miter;stroke:rgb(16.862745%,16.862745%,17.647059%);stroke-opacity:1;stroke-miterlimit:2.613;" d="M 26.99337 137.81301 C 28.039974 138.385255 32.143569 137.910894 34.711139 136.194161 C 37.670245 134.191306 39.575216 131.2322 39.575216 128.370978 C 39.575216 126.466007 38.905088 124.65139 37.760599 122.550651 C 36.909762 121.029685 36.337518 120.171319 34.997261 118.928946 L 17.084506 98.230265 C 16.512262 97.364369 16.414378 96.603886 16.602616 95.557281 C 16.798384 94.503147 17.174861 93.930902 17.935343 93.268304 C 18.703356 92.696059 19.365954 92.500291 20.322205 92.500291 C 20.322205 92.500291 18.79371 89.450831 17.558867 89.63907 C 15.74425 89.925192 14.893413 90.211314 13.462802 91.167564 C 11.362063 92.500291 10.413342 93.930902 9.457091 96.227409 C 8.696609 98.034497 8.500841 99.088631 8.500841 101.181841 C 8.500841 104.811075 10.887702 107.476529 12.408668 109.577268 C 15.556012 113.778747 24.132148 122.648535 24.132148 122.648535 C 26.519009 125.419402 29.184463 127.128606 30.712958 130.75784 C 31.187318 131.804445 31.285202 132.662811 30.803312 133.716945 C 30.426836 134.76355 30.04283 135.335795 29.094109 135.908039 C 28.326097 136.194161 27.851736 136.292045 27.091253 136.292045 C 26.99337 136.86429 25.660643 137.052528 26.99337 137.81301 Z M 26.99337 137.81301 " transform="matrix(0.518791,0,0,0.518791,0,0)"/>
<path style=" stroke:none;fill-rule:evenodd;fill:rgb(16.862745%,16.862745%,17.647059%);fill-opacity:1;" d="M 34.96875 30.125 C 34.917969 30.023438 34.820312 29.726562 34.671875 29.726562 C 34.375 29.726562 34.621094 30.617188 33.832031 30.617188 C 33.734375 30.617188 33.433594 30.570312 33.089844 30.519531 C 32.683594 30.417969 32.269531 30.367188 31.851562 30.371094 C 28.9375 30.371094 28.046875 32.25 28.046875 33.339844 C 28.046875 35.320312 30.023438 36.011719 31.605469 36.410156 C 34.277344 37.152344 35.214844 37.597656 35.214844 38.984375 C 35.214844 40.566406 33.929688 41.210938 32.496094 41.210938 C 30.667969 41.210938 28.9375 39.824219 28.046875 38.289062 C 27.996094 38.191406 27.945312 38.042969 27.796875 38.042969 C 27.699219 38.042969 27.648438 38.140625 27.648438 38.242188 C 27.648438 38.339844 27.75 38.585938 27.796875 38.6875 L 29.085938 41.703125 C 29.132812 41.804688 29.234375 42.199219 29.429688 42.199219 C 29.578125 42.199219 29.578125 42 29.628906 41.753906 C 29.679688 41.605469 29.828125 41.359375 30.269531 41.359375 C 31.113281 41.359375 31.308594 41.410156 31.605469 41.457031 C 31.902344 41.507812 32.296875 41.605469 32.644531 41.605469 C 35.859375 41.605469 36.847656 39.675781 36.847656 38.339844 C 36.847656 35.914062 34.472656 35.222656 32.542969 34.777344 C 31.457031 34.480469 29.628906 34.132812 29.628906 32.648438 C 29.628906 31.460938 30.863281 30.769531 31.953125 30.769531 C 33.433594 30.769531 35.117188 31.808594 35.757812 33.144531 C 35.808594 33.242188 35.90625 33.539062 36.105469 33.539062 C 36.203125 33.539062 36.300781 33.488281 36.300781 33.390625 C 36.300781 33.292969 36.152344 33.09375 36.152344 32.996094 Z M 34.96875 30.125 C 34.917969 30.023438 34.820312 29.726562 34.671875 29.726562 C 34.375 29.726562 34.621094 30.617188 33.832031 30.617188 C 33.734375 30.617188 33.433594 30.570312 33.089844 30.519531 C 32.683594 30.417969 32.269531 30.367188 31.851562 30.371094 C 28.9375 30.371094 28.046875 32.25 28.046875 33.339844 C 28.046875 35.320312 30.023438 36.011719 31.605469 36.410156 C 34.277344 37.152344 35.214844 37.597656 35.214844 38.984375 C 35.214844 40.566406 33.929688 41.210938 32.496094 41.210938 C 30.667969 41.210938 28.9375 39.824219 28.046875 38.289062 C 27.996094 38.191406 27.945312 38.042969 27.796875 38.042969 C 27.699219 38.042969 27.648438 38.140625 27.648438 38.242188 C 27.648438 38.339844 27.75 38.585938 27.796875 38.6875 L 29.085938 41.703125 C 29.132812 41.804688 29.234375 42.199219 29.429688 42.199219 C 29.578125 42.199219 29.578125 42 29.628906 41.753906 C 29.679688 41.605469 29.828125 41.359375 30.269531 41.359375 C 31.113281 41.359375 31.308594 41.410156 31.605469 41.457031 C 31.902344 41.507812 32.296875 41.605469 32.644531 41.605469 C 35.859375 41.605469 36.847656 39.675781 36.847656 38.339844 C 36.847656 35.914062 34.472656 35.222656 32.542969 34.777344 C 31.457031 34.480469 29.628906 34.132812 29.628906 32.648438 C 29.628906 31.460938 30.863281 30.769531 31.953125 30.769531 C 33.433594 30.769531 35.117188 31.808594 35.757812 33.144531 C 35.808594 33.242188 35.90625 33.539062 36.105469 33.539062 C 36.203125 33.539062 36.300781 33.488281 36.300781 33.390625 C 36.300781 33.292969 36.152344 33.09375 36.152344 32.996094 Z M 34.96875 30.125 C 34.917969 30.023438 34.820312 29.726562 34.671875 29.726562 C 34.375 29.726562 34.621094 30.617188 33.832031 30.617188 C 33.734375 30.617188 33.433594 30.570312 33.089844 30.519531 C 32.683594 30.417969 32.269531 30.367188 31.851562 30.371094 C 28.9375 30.371094 28.046875 32.25 28.046875 33.339844 C 28.046875 35.320312 30.023438 36.011719 31.605469 36.410156 C 34.277344 37.152344 35.214844 37.597656 35.214844 38.984375 C 35.214844 40.566406 33.929688 41.210938 32.496094 41.210938 C 30.667969 41.210938 28.9375 39.824219 28.046875 38.289062 C 27.996094 38.191406 27.945312 38.042969 27.796875 38.042969 C 27.699219 38.042969 27.648438 38.140625 27.648438 38.242188 C 27.648438 38.339844 27.75 38.585938 27.796875 38.6875 L 29.085938 41.703125 C 29.132812 41.804688 29.234375 42.199219 29.429688 42.199219 C 29.578125 42.199219 29.578125 42 29.628906 41.753906 C 29.679688 41.605469 29.828125 41.359375 30.269531 41.359375 C 31.113281 41.359375 31.308594 41.410156 31.605469 41.457031 C 31.902344 41.507812 32.296875 41.605469 32.644531 41.605469 C 35.859375 41.605469 36.847656 39.675781 36.847656 38.339844 C 36.847656 35.914062 34.472656 35.222656 32.542969 34.777344 C 31.457031 34.480469 29.628906 34.132812 29.628906 32.648438 C 29.628906 31.460938 30.863281 30.769531 31.953125 30.769531 C 33.433594 30.769531 35.117188 31.808594 35.757812 33.144531 C 35.808594 33.242188 35.90625 33.539062 36.105469 33.539062 C 36.203125 33.539062 36.300781 33.488281 36.300781 33.390625 C 36.300781 33.292969 36.152344 33.09375 36.152344 32.996094 Z M 42.929688 40.960938 C 42.929688 41.210938 43.027344 41.308594 43.324219 41.308594 L 45.894531 41.308594 C 46.042969 41.308594 46.144531 41.308594 46.144531 41.160156 C 46.144531 40.960938 45.945312 40.960938 45.796875 40.960938 C 44.609375 40.960938 44.460938 40.664062 44.460938 38.734375 L 44.460938 34.675781 C 44.460938 34.480469 44.414062 34.328125 44.3125 34.328125 C 44.015625 34.328125 43.671875 35.074219 41.496094 35.269531 C 41.347656 35.269531 41.246094 35.367188 41.246094 35.515625 C 41.246094 35.714844 41.742188 35.664062 41.839844 35.664062 C 42.929688 35.664062 42.929688 36.210938 42.929688 37.792969 L 42.929688 39.824219 C 42.335938 40.21875 41.296875 40.8125 40.554688 40.8125 C 39.617188 40.8125 39.664062 39.824219 39.664062 39.128906 L 39.664062 34.675781 C 39.664062 34.480469 39.617188 34.328125 39.46875 34.328125 C 39.171875 34.328125 38.875 35.074219 36.648438 35.269531 C 36.5 35.269531 36.402344 35.367188 36.402344 35.515625 C 36.402344 35.714844 36.945312 35.664062 37.042969 35.664062 C 38.132812 35.664062 38.132812 36.210938 38.132812 37.792969 L 38.132812 39.824219 C 38.132812 41.109375 38.675781 41.605469 39.664062 41.605469 C 40.851562 41.605469 41.941406 40.714844 42.929688 40.167969 Z M 42.929688 40.960938 C 42.929688 41.210938 43.027344 41.308594 43.324219 41.308594 L 45.894531 41.308594 C 46.042969 41.308594 46.144531 41.308594 46.144531 41.160156 C 46.144531 40.960938 45.945312 40.960938 45.796875 40.960938 C 44.609375 40.960938 44.460938 40.664062 44.460938 38.734375 L 44.460938 34.675781 C 44.460938 34.480469 44.414062 34.328125 44.3125 34.328125 C 44.015625 34.328125 43.671875 35.074219 41.496094 35.269531 C 41.347656 35.269531 41.246094 35.367188 41.246094 35.515625 C 41.246094 35.714844 41.742188 35.664062 41.839844 35.664062 C 42.929688 35.664062 42.929688 36.210938 42.929688 37.792969 L 42.929688 39.824219 C 42.335938 40.21875 41.296875 40.8125 40.554688 40.8125 C 39.617188 40.8125 39.664062 39.824219 39.664062 39.128906 L 39.664062 34.675781 C 39.664062 34.480469 39.617188 34.328125 39.46875 34.328125 C 39.171875 34.328125 38.875 35.074219 36.648438 35.269531 C 36.5 35.269531 36.402344 35.367188 36.402344 35.515625 C 36.402344 35.714844 36.945312 35.664062 37.042969 35.664062 C 38.132812 35.664062 38.132812 36.210938 38.132812 37.792969 L 38.132812 39.824219 C 38.132812 41.109375 38.675781 41.605469 39.664062 41.605469 C 40.851562 41.605469 41.941406 40.714844 42.929688 40.167969 Z M 42.929688 40.960938 C 42.929688 41.210938 43.027344 41.308594 43.324219 41.308594 L 45.894531 41.308594 C 46.042969 41.308594 46.144531 41.308594 46.144531 41.160156 C 46.144531 40.960938 45.945312 40.960938 45.796875 40.960938 C 44.609375 40.960938 44.460938 40.664062 44.460938 38.734375 L 44.460938 34.675781 C 44.460938 34.480469 44.414062 34.328125 44.3125 34.328125 C 44.015625 34.328125 43.671875 35.074219 41.496094 35.269531 C 41.347656 35.269531 41.246094 35.367188 41.246094 35.515625 C 41.246094 35.714844 41.742188 35.664062 41.839844 35.664062 C 42.929688 35.664062 42.929688 36.210938 42.929688 37.792969 L 42.929688 39.824219 C 42.335938 40.21875 41.296875 40.8125 40.554688 40.8125 C 39.617188 40.8125 39.664062 39.824219 39.664062 39.128906 L 39.664062 34.675781 C 39.664062 34.480469 39.617188 34.328125 39.46875 34.328125 C 39.171875 34.328125 38.875 35.074219 36.648438 35.269531 C 36.5 35.269531 36.402344 35.367188 36.402344 35.515625 C 36.402344 35.714844 36.945312 35.664062 37.042969 35.664062 C 38.132812 35.664062 38.132812 36.210938 38.132812 37.792969 L 38.132812 39.824219 C 38.132812 41.109375 38.675781 41.605469 39.664062 41.605469 C 40.851562 41.605469 41.941406 40.714844 42.929688 40.167969 Z M 50.394531 41.210938 C 49.40625 41.210938 48.269531 40.566406 48.269531 38.089844 C 48.269531 36.65625 48.765625 34.675781 50.542969 34.675781 C 52.125 34.675781 52.570312 36.554688 52.570312 37.84375 C 52.570312 39.230469 52.125 41.210938 50.394531 41.210938 Z M 46.734375 38.785156 C 46.734375 40.960938 46.441406 41.257812 46.441406 41.359375 C 46.441406 41.40625 46.488281 41.503906 46.589844 41.503906 C 46.785156 41.503906 47.230469 40.664062 47.777344 40.664062 C 48.320312 40.664062 49.011719 41.605469 50.59375 41.605469 C 52.671875 41.605469 54.300781 39.921875 54.300781 37.890625 C 54.300781 35.765625 52.769531 34.328125 50.691406 34.328125 C 49.554688 34.328125 48.863281 34.773438 48.320312 35.765625 L 48.320312 30.519531 C 48.320312 30.371094 48.320312 30.222656 48.121094 30.222656 C 47.921875 30.222656 47.132812 30.964844 45.054688 31.0625 C 44.957031 31.113281 44.859375 31.113281 44.859375 31.3125 C 44.859375 31.507812 45.054688 31.460938 45.5 31.460938 C 46.636719 31.460938 46.734375 31.804688 46.734375 34.03125 Z M 50.394531 41.210938 C 49.40625 41.210938 48.269531 40.566406 48.269531 38.089844 C 48.269531 36.65625 48.765625 34.675781 50.542969 34.675781 C 52.125 34.675781 52.570312 36.554688 52.570312 37.84375 C 52.570312 39.230469 52.125 41.210938 50.394531 41.210938 Z M 46.734375 38.785156 C 46.734375 40.960938 46.441406 41.257812 46.441406 41.359375 C 46.441406 41.40625 46.488281 41.503906 46.589844 41.503906 C 46.785156 41.503906 47.230469 40.664062 47.777344 40.664062 C 48.320312 40.664062 49.011719 41.605469 50.59375 41.605469 C 52.671875 41.605469 54.300781 39.921875 54.300781 37.890625 C 54.300781 35.765625 52.769531 34.328125 50.691406 34.328125 C 49.554688 34.328125 48.863281 34.773438 48.320312 35.765625 L 48.320312 30.519531 C 48.320312 30.371094 48.320312 30.222656 48.121094 30.222656 C 47.921875 30.222656 47.132812 30.964844 45.054688 31.0625 C 44.957031 31.113281 44.859375 31.113281 44.859375 31.3125 C 44.859375 31.507812 45.054688 31.460938 45.5 31.460938 C 46.636719 31.460938 46.734375 31.804688 46.734375 34.03125 Z M 50.394531 41.210938 C 49.40625 41.210938 48.269531 40.566406 48.269531 38.089844 C 48.269531 36.65625 48.765625 34.675781 50.542969 34.675781 C 52.125 34.675781 52.570312 36.554688 52.570312 37.84375 C 52.570312 39.230469 52.125 41.210938 50.394531 41.210938 Z M 46.734375 38.785156 C 46.734375 40.960938 46.441406 41.257812 46.441406 41.359375 C 46.441406 41.40625 46.488281 41.503906 46.589844 41.503906 C 46.785156 41.503906 47.230469 40.664062 47.777344 40.664062 C 48.320312 40.664062 49.011719 41.605469 50.59375 41.605469 C 52.671875 41.605469 54.300781 39.921875 54.300781 37.890625 C 54.300781 35.765625 52.769531 34.328125 50.691406 34.328125 C 49.554688 34.328125 48.863281 34.773438 48.320312 35.765625 L 48.320312 30.519531 C 48.320312 30.371094 48.320312 30.222656 48.121094 30.222656 C 47.921875 30.222656 47.132812 30.964844 45.054688 31.0625 C 44.957031 31.113281 44.859375 31.113281 44.859375 31.3125 C 44.859375 31.507812 45.054688 31.460938 45.5 31.460938 C 46.636719 31.460938 46.734375 31.804688 46.734375 34.03125 Z M 60.53125 40.960938 C 60.53125 41.210938 60.582031 41.308594 60.878906 41.308594 L 63.5 41.308594 C 63.597656 41.308594 63.695312 41.308594 63.695312 41.160156 C 63.695312 40.960938 63.5 40.960938 63.351562 40.960938 C 62.164062 40.960938 62.066406 40.664062 62.066406 38.734375 L 62.066406 34.675781 C 62.066406 34.480469 61.964844 34.328125 61.867188 34.328125 C 61.570312 34.328125 61.273438 35.074219 59.046875 35.269531 C 58.898438 35.269531 58.800781 35.367188 58.800781 35.515625 C 58.800781 35.714844 59.292969 35.664062 59.445312 35.664062 C 60.53125 35.664062 60.53125 36.210938 60.53125 37.792969 L 60.53125 39.824219 C 59.886719 40.21875 58.851562 40.8125 58.109375 40.8125 C 57.167969 40.8125 57.21875 39.824219 57.21875 39.128906 L 57.21875 34.675781 C 57.21875 34.480469 57.167969 34.328125 57.019531 34.328125 C 56.773438 34.328125 56.425781 35.074219 54.203125 35.269531 C 54.054688 35.269531 53.953125 35.367188 53.953125 35.515625 C 53.953125 35.714844 54.5 35.664062 54.597656 35.664062 C 55.683594 35.664062 55.683594 36.210938 55.683594 37.792969 L 55.683594 39.824219 C 55.683594 41.109375 56.230469 41.605469 57.21875 41.605469 C 58.453125 41.605469 59.492188 40.714844 60.53125 40.167969 Z M 60.53125 40.960938 C 60.53125 41.210938 60.582031 41.308594 60.878906 41.308594 L 63.5 41.308594 C 63.597656 41.308594 63.695312 41.308594 63.695312 41.160156 C 63.695312 40.960938 63.5 40.960938 63.351562 40.960938 C 62.164062 40.960938 62.066406 40.664062 62.066406 38.734375 L 62.066406 34.675781 C 62.066406 34.480469 61.964844 34.328125 61.867188 34.328125 C 61.570312 34.328125 61.273438 35.074219 59.046875 35.269531 C 58.898438 35.269531 58.800781 35.367188 58.800781 35.515625 C 58.800781 35.714844 59.292969 35.664062 59.445312 35.664062 C 60.53125 35.664062 60.53125 36.210938 60.53125 37.792969 L 60.53125 39.824219 C 59.886719 40.21875 58.851562 40.8125 58.109375 40.8125 C 57.167969 40.8125 57.21875 39.824219 57.21875 39.128906 L 57.21875 34.675781 C 57.21875 34.480469 57.167969 34.328125 57.019531 34.328125 C 56.773438 34.328125 56.425781 35.074219 54.203125 35.269531 C 54.054688 35.269531 53.953125 35.367188 53.953125 35.515625 C 53.953125 35.714844 54.5 35.664062 54.597656 35.664062 C 55.683594 35.664062 55.683594 36.210938 55.683594 37.792969 L 55.683594 39.824219 C 55.683594 41.109375 56.230469 41.605469 57.21875 41.605469 C 58.453125 41.605469 59.492188 40.714844 60.53125 40.167969 Z M 60.53125 40.960938 C 60.53125 41.210938 60.582031 41.308594 60.878906 41.308594 L 63.5 41.308594 C 63.597656 41.308594 63.695312 41.308594 63.695312 41.160156 C 63.695312 40.960938 63.5 40.960938 63.351562 40.960938 C 62.164062 40.960938 62.066406 40.664062 62.066406 38.734375 L 62.066406 34.675781 C 62.066406 34.480469 61.964844 34.328125 61.867188 34.328125 C 61.570312 34.328125 61.273438 35.074219 59.046875 35.269531 C 58.898438 35.269531 58.800781 35.367188 58.800781 35.515625 C 58.800781 35.714844 59.292969 35.664062 59.445312 35.664062 C 60.53125 35.664062 60.53125 36.210938 60.53125 37.792969 L 60.53125 39.824219 C 59.886719 40.21875 58.851562 40.8125 58.109375 40.8125 C 57.167969 40.8125 57.21875 39.824219 57.21875 39.128906 L 57.21875 34.675781 C 57.21875 34.480469 57.167969 34.328125 57.019531 34.328125 C 56.773438 34.328125 56.425781 35.074219 54.203125 35.269531 C 54.054688 35.269531 53.953125 35.367188 53.953125 35.515625 C 53.953125 35.714844 54.5 35.664062 54.597656 35.664062 C 55.683594 35.664062 55.683594 36.210938 55.683594 37.792969 L 55.683594 39.824219 C 55.683594 41.109375 56.230469 41.605469 57.21875 41.605469 C 58.453125 41.605469 59.492188 40.714844 60.53125 40.167969 Z M 66.464844 34.675781 C 66.464844 34.480469 66.414062 34.328125 66.265625 34.328125 C 66.121094 34.328125 65.96875 34.527344 65.574219 34.726562 C 65.179688 34.925781 64.535156 35.171875 63.449219 35.269531 C 63.300781 35.269531 63.203125 35.367188 63.203125 35.515625 C 63.203125 35.714844 63.746094 35.664062 63.84375 35.664062 C 64.929688 35.664062 64.929688 36.210938 64.929688 37.792969 L 64.929688 38.734375 C 64.929688 40.664062 64.785156 40.960938 63.792969 40.960938 L 63.597656 40.960938 C 63.449219 40.960938 63.25 40.960938 63.25 41.109375 C 63.25 41.257812 63.347656 41.308594 63.496094 41.308594 L 68.144531 41.308594 C 68.246094 41.308594 68.394531 41.257812 68.394531 41.109375 C 68.394531 40.960938 68.296875 40.960938 67.699219 40.960938 C 66.613281 40.960938 66.464844 40.714844 66.464844 38.734375 L 66.464844 36.0625 C 66.664062 35.8125 67.207031 35.320312 67.601562 35.320312 C 68.097656 35.320312 68.144531 36.109375 68.9375 36.109375 C 69.382812 36.109375 69.828125 35.765625 69.828125 35.269531 C 69.828125 34.675781 69.285156 34.328125 68.738281 34.328125 C 67.949219 34.328125 67.007812 35.171875 66.464844 35.664062 Z M 66.464844 34.675781 C 66.464844 34.480469 66.414062 34.328125 66.265625 34.328125 C 66.121094 34.328125 65.96875 34.527344 65.574219 34.726562 C 65.179688 34.925781 64.535156 35.171875 63.449219 35.269531 C 63.300781 35.269531 63.203125 35.367188 63.203125 35.515625 C 63.203125 35.714844 63.746094 35.664062 63.84375 35.664062 C 64.929688 35.664062 64.929688 36.210938 64.929688 37.792969 L 64.929688 38.734375 C 64.929688 40.664062 64.785156 40.960938 63.792969 40.960938 L 63.597656 40.960938 C 63.449219 40.960938 63.25 40.960938 63.25 41.109375 C 63.25 41.257812 63.347656 41.308594 63.496094 41.308594 L 68.144531 41.308594 C 68.246094 41.308594 68.394531 41.257812 68.394531 41.109375 C 68.394531 40.960938 68.296875 40.960938 67.699219 40.960938 C 66.613281 40.960938 66.464844 40.714844 66.464844 38.734375 L 66.464844 36.0625 C 66.664062 35.8125 67.207031 35.320312 67.601562 35.320312 C 68.097656 35.320312 68.144531 36.109375 68.9375 36.109375 C 69.382812 36.109375 69.828125 35.765625 69.828125 35.269531 C 69.828125 34.675781 69.285156 34.328125 68.738281 34.328125 C 67.949219 34.328125 67.007812 35.171875 66.464844 35.664062 Z M 66.464844 34.675781 C 66.464844 34.480469 66.414062 34.328125 66.265625 34.328125 C 66.121094 34.328125 65.96875 34.527344 65.574219 34.726562 C 65.179688 34.925781 64.535156 35.171875 63.449219 35.269531 C 63.300781 35.269531 63.203125 35.367188 63.203125 35.515625 C 63.203125 35.714844 63.746094 35.664062 63.84375 35.664062 C 64.929688 35.664062 64.929688 36.210938 64.929688 37.792969 L 64.929688 38.734375 C 64.929688 40.664062 64.785156 40.960938 63.792969 40.960938 L 63.597656 40.960938 C 63.449219 40.960938 63.25 40.960938 63.25 41.109375 C 63.25 41.257812 63.347656 41.308594 63.496094 41.308594 L 68.144531 41.308594 C 68.246094 41.308594 68.394531 41.257812 68.394531 41.109375 C 68.394531 40.960938 68.296875 40.960938 67.699219 40.960938 C 66.613281 40.960938 66.464844 40.714844 66.464844 38.734375 L 66.464844 36.0625 C 66.664062 35.8125 67.207031 35.320312 67.601562 35.320312 C 68.097656 35.320312 68.144531 36.109375 68.9375 36.109375 C 69.382812 36.109375 69.828125 35.765625 69.828125 35.269531 C 69.828125 34.675781 69.285156 34.328125 68.738281 34.328125 C 67.949219 34.328125 67.007812 35.171875 66.464844 35.664062 Z M 74.328125 41.210938 C 73.339844 41.210938 72.199219 40.566406 72.199219 38.089844 C 72.199219 36.65625 72.695312 34.675781 74.476562 34.675781 C 76.058594 34.675781 76.503906 36.554688 76.503906 37.84375 C 76.503906 39.230469 76.058594 41.210938 74.328125 41.210938 Z M 70.71875 38.785156 C 70.71875 40.960938 70.371094 41.257812 70.371094 41.359375 C 70.371094 41.40625 70.421875 41.503906 70.519531 41.503906 C 70.765625 41.503906 71.160156 40.664062 71.707031 40.664062 C 72.300781 40.664062 72.941406 41.605469 74.523438 41.605469 C 76.601562 41.605469 78.234375 39.921875 78.234375 37.890625 C 78.234375 35.765625 76.699219 34.328125 74.625 34.328125 C 73.484375 34.328125 72.792969 34.773438 72.300781 35.765625 L 72.25 35.765625 L 72.25 30.519531 C 72.25 30.371094 72.25 30.222656 72.050781 30.222656 C 71.855469 30.222656 71.0625 30.964844 68.988281 31.0625 C 68.886719 31.113281 68.789062 31.113281 68.789062 31.3125 C 68.789062 31.507812 68.988281 31.460938 69.429688 31.460938 C 70.566406 31.460938 70.71875 31.804688 70.71875 34.03125 Z M 74.328125 41.210938 C 73.339844 41.210938 72.199219 40.566406 72.199219 38.089844 C 72.199219 36.65625 72.695312 34.675781 74.476562 34.675781 C 76.058594 34.675781 76.503906 36.554688 76.503906 37.84375 C 76.503906 39.230469 76.058594 41.210938 74.328125 41.210938 Z M 70.71875 38.785156 C 70.71875 40.960938 70.371094 41.257812 70.371094 41.359375 C 70.371094 41.40625 70.421875 41.503906 70.519531 41.503906 C 70.765625 41.503906 71.160156 40.664062 71.707031 40.664062 C 72.300781 40.664062 72.941406 41.605469 74.523438 41.605469 C 76.601562 41.605469 78.234375 39.921875 78.234375 37.890625 C 78.234375 35.765625 76.699219 34.328125 74.625 34.328125 C 73.484375 34.328125 72.792969 34.773438 72.300781 35.765625 L 72.25 35.765625 L 72.25 30.519531 C 72.25 30.371094 72.25 30.222656 72.050781 30.222656 C 71.855469 30.222656 71.0625 30.964844 68.988281 31.0625 C 68.886719 31.113281 68.789062 31.113281 68.789062 31.3125 C 68.789062 31.507812 68.988281 31.460938 69.429688 31.460938 C 70.566406 31.460938 70.71875 31.804688 70.71875 34.03125 Z M 74.328125 41.210938 C 73.339844 41.210938 72.199219 40.566406 72.199219 38.089844 C 72.199219 36.65625 72.695312 34.675781 74.476562 34.675781 C 76.058594 34.675781 76.503906 36.554688 76.503906 37.84375 C 76.503906 39.230469 76.058594 41.210938 74.328125 41.210938 Z M 70.71875 38.785156 C 70.71875 40.960938 70.371094 41.257812 70.371094 41.359375 C 70.371094 41.40625 70.421875 41.503906 70.519531 41.503906 C 70.765625 41.503906 71.160156 40.664062 71.707031 40.664062 C 72.300781 40.664062 72.941406 41.605469 74.523438 41.605469 C 76.601562 41.605469 78.234375 39.921875 78.234375 37.890625 C 78.234375 35.765625 76.699219 34.328125 74.625 34.328125 C 73.484375 34.328125 72.792969 34.773438 72.300781 35.765625 L 72.25 35.765625 L 72.25 30.519531 C 72.25 30.371094 72.25 30.222656 72.050781 30.222656 C 71.855469 30.222656 71.0625 30.964844 68.988281 31.0625 C 68.886719 31.113281 68.789062 31.113281 68.789062 31.3125 C 68.789062 31.507812 68.988281 31.460938 69.429688 31.460938 C 70.566406 31.460938 70.71875 31.804688 70.71875 34.03125 Z M 80.308594 39.476562 C 80.308594 38.488281 81.199219 37.496094 83.476562 37.597656 L 83.476562 38.535156 C 83.476562 40.121094 82.386719 40.8125 81.644531 40.8125 C 80.902344 40.8125 80.308594 40.21875 80.308594 39.476562 Z M 83.472656 37.25 L 83.375 37.25 C 81.742188 37.347656 78.726562 37.644531 78.726562 39.824219 C 78.726562 40.960938 79.714844 41.605469 80.753906 41.605469 C 81.890625 41.605469 83.128906 40.914062 83.472656 39.773438 L 83.472656 40.367188 C 83.472656 41.109375 84.214844 41.605469 84.910156 41.605469 C 86.09375 41.605469 86.640625 40.761719 86.640625 40.21875 C 86.640625 40.121094 86.589844 40.023438 86.488281 40.023438 C 86.242188 40.023438 86.34375 40.8125 85.648438 40.8125 C 85.007812 40.8125 85.007812 40.171875 85.007812 39.722656 L 85.007812 36.359375 C 85.007812 35.320312 84.265625 34.328125 82.1875 34.328125 C 80.0625 34.328125 78.976562 35.46875 78.976562 36.109375 C 78.976562 36.65625 79.273438 37.050781 79.816406 37.050781 C 80.359375 37.050781 80.804688 36.703125 80.804688 36.160156 C 80.804688 35.863281 80.65625 35.714844 80.65625 35.566406 C 80.65625 34.921875 81.546875 34.675781 82.039062 34.675781 C 83.078125 34.675781 83.425781 35.320312 83.476562 36.160156 L 83.476562 37.25 Z M 80.308594 39.476562 C 80.308594 38.488281 81.199219 37.496094 83.476562 37.597656 L 83.476562 38.535156 C 83.476562 40.121094 82.386719 40.8125 81.644531 40.8125 C 80.902344 40.8125 80.308594 40.21875 80.308594 39.476562 Z M 83.472656 37.25 L 83.375 37.25 C 81.742188 37.347656 78.726562 37.644531 78.726562 39.824219 C 78.726562 40.960938 79.714844 41.605469 80.753906 41.605469 C 81.890625 41.605469 83.128906 40.914062 83.472656 39.773438 L 83.472656 40.367188 C 83.472656 41.109375 84.214844 41.605469 84.910156 41.605469 C 86.09375 41.605469 86.640625 40.761719 86.640625 40.21875 C 86.640625 40.121094 86.589844 40.023438 86.488281 40.023438 C 86.242188 40.023438 86.34375 40.8125 85.648438 40.8125 C 85.007812 40.8125 85.007812 40.171875 85.007812 39.722656 L 85.007812 36.359375 C 85.007812 35.320312 84.265625 34.328125 82.1875 34.328125 C 80.0625 34.328125 78.976562 35.46875 78.976562 36.109375 C 78.976562 36.65625 79.273438 37.050781 79.816406 37.050781 C 80.359375 37.050781 80.804688 36.703125 80.804688 36.160156 C 80.804688 35.863281 80.65625 35.714844 80.65625 35.566406 C 80.65625 34.921875 81.546875 34.675781 82.039062 34.675781 C 83.078125 34.675781 83.425781 35.320312 83.476562 36.160156 L 83.476562 37.25 Z M 80.308594 39.476562 C 80.308594 38.488281 81.199219 37.496094 83.476562 37.597656 L 83.476562 38.535156 C 83.476562 40.121094 82.386719 40.8125 81.644531 40.8125 C 80.902344 40.8125 80.308594 40.21875 80.308594 39.476562 Z M 83.472656 37.25 L 83.375 37.25 C 81.742188 37.347656 78.726562 37.644531 78.726562 39.824219 C 78.726562 40.960938 79.714844 41.605469 80.753906 41.605469 C 81.890625 41.605469 83.128906 40.914062 83.472656 39.773438 L 83.472656 40.367188 C 83.472656 41.109375 84.214844 41.605469 84.910156 41.605469 C 86.09375 41.605469 86.640625 40.761719 86.640625 40.21875 C 86.640625 40.121094 86.589844 40.023438 86.488281 40.023438 C 86.242188 40.023438 86.34375 40.8125 85.648438 40.8125 C 85.007812 40.8125 85.007812 40.171875 85.007812 39.722656 L 85.007812 36.359375 C 85.007812 35.320312 84.265625 34.328125 82.1875 34.328125 C 80.0625 34.328125 78.976562 35.46875 78.976562 36.109375 C 78.976562 36.65625 79.273438 37.050781 79.816406 37.050781 C 80.359375 37.050781 80.804688 36.703125 80.804688 36.160156 C 80.804688 35.863281 80.65625 35.714844 80.65625 35.566406 C 80.65625 34.921875 81.546875 34.675781 82.039062 34.675781 C 83.078125 34.675781 83.425781 35.320312 83.476562 36.160156 L 83.476562 37.25 Z M 89.359375 36.113281 C 89.902344 35.765625 90.988281 35.074219 91.632812 35.074219 C 92.472656 35.074219 92.375 36.261719 92.375 36.804688 L 92.375 38.734375 C 92.375 40.714844 92.175781 40.960938 91.433594 40.960938 C 91.335938 40.960938 91.1875 41.0625 91.1875 41.210938 C 91.1875 41.308594 91.335938 41.308594 91.433594 41.308594 L 95.339844 41.308594 C 95.488281 41.308594 95.589844 41.308594 95.589844 41.160156 C 95.589844 40.960938 95.390625 40.960938 95.242188 40.960938 L 95.042969 40.960938 C 94.054688 40.960938 93.90625 40.664062 93.90625 38.734375 L 93.90625 35.964844 C 93.90625 34.824219 93.265625 34.332031 92.425781 34.332031 C 91.386719 34.332031 90.199219 35.222656 89.359375 35.765625 L 89.359375 34.675781 C 89.359375 34.480469 89.308594 34.332031 89.160156 34.332031 C 89.0625 34.332031 88.914062 34.527344 88.519531 34.726562 C 88.125 34.925781 87.480469 35.171875 86.34375 35.269531 C 86.195312 35.269531 86.09375 35.371094 86.09375 35.519531 C 86.09375 35.714844 86.640625 35.667969 86.738281 35.667969 C 87.824219 35.667969 87.824219 36.210938 87.824219 37.796875 L 87.824219 38.734375 C 87.824219 40.664062 87.726562 40.960938 86.6875 40.960938 L 86.539062 40.960938 C 86.394531 40.960938 86.144531 40.960938 86.144531 41.109375 C 86.144531 41.257812 86.292969 41.308594 86.394531 41.308594 L 90.445312 41.308594 C 90.546875 41.308594 90.644531 41.308594 90.644531 41.210938 C 90.644531 41.0625 90.546875 40.960938 90.445312 40.960938 C 89.605469 40.960938 89.359375 40.8125 89.359375 38.734375 Z M 89.359375 36.113281 C 89.902344 35.765625 90.988281 35.074219 91.632812 35.074219 C 92.472656 35.074219 92.375 36.261719 92.375 36.804688 L 92.375 38.734375 C 92.375 40.714844 92.175781 40.960938 91.433594 40.960938 C 91.335938 40.960938 91.1875 41.0625 91.1875 41.210938 C 91.1875 41.308594 91.335938 41.308594 91.433594 41.308594 L 95.339844 41.308594 C 95.488281 41.308594 95.589844 41.308594 95.589844 41.160156 C 95.589844 40.960938 95.390625 40.960938 95.242188 40.960938 L 95.042969 40.960938 C 94.054688 40.960938 93.90625 40.664062 93.90625 38.734375 L 93.90625 35.964844 C 93.90625 34.824219 93.265625 34.332031 92.425781 34.332031 C 91.386719 34.332031 90.199219 35.222656 89.359375 35.765625 L 89.359375 34.675781 C 89.359375 34.480469 89.308594 34.332031 89.160156 34.332031 C 89.0625 34.332031 88.914062 34.527344 88.519531 34.726562 C 88.125 34.925781 87.480469 35.171875 86.34375 35.269531 C 86.195312 35.269531 86.09375 35.371094 86.09375 35.519531 C 86.09375 35.714844 86.640625 35.667969 86.738281 35.667969 C 87.824219 35.667969 87.824219 36.210938 87.824219 37.796875 L 87.824219 38.734375 C 87.824219 40.664062 87.726562 40.960938 86.6875 40.960938 L 86.539062 40.960938 C 86.394531 40.960938 86.144531 40.960938 86.144531 41.109375 C 86.144531 41.257812 86.292969 41.308594 86.394531 41.308594 L 90.445312 41.308594 C 90.546875 41.308594 90.644531 41.308594 90.644531 41.210938 C 90.644531 41.0625 90.546875 40.960938 90.445312 40.960938 C 89.605469 40.960938 89.359375 40.8125 89.359375 38.734375 Z M 89.359375 36.113281 C 89.902344 35.765625 90.988281 35.074219 91.632812 35.074219 C 92.472656 35.074219 92.375 36.261719 92.375 36.804688 L 92.375 38.734375 C 92.375 40.714844 92.175781 40.960938 91.433594 40.960938 C 91.335938 40.960938 91.1875 41.0625 91.1875 41.210938 C 91.1875 41.308594 91.335938 41.308594 91.433594 41.308594 L 95.339844 41.308594 C 95.488281 41.308594 95.589844 41.308594 95.589844 41.160156 C 95.589844 40.960938 95.390625 40.960938 95.242188 40.960938 L 95.042969 40.960938 C 94.054688 40.960938 93.90625 40.664062 93.90625 38.734375 L 93.90625 35.964844 C 93.90625 34.824219 93.265625 34.332031 92.425781 34.332031 C 91.386719 34.332031 90.199219 35.222656 89.359375 35.765625 L 89.359375 34.675781 C 89.359375 34.480469 89.308594 34.332031 89.160156 34.332031 C 89.0625 34.332031 88.914062 34.527344 88.519531 34.726562 C 88.125 34.925781 87.480469 35.171875 86.34375 35.269531 C 86.195312 35.269531 86.09375 35.371094 86.09375 35.519531 C 86.09375 35.714844 86.640625 35.667969 86.738281 35.667969 C 87.824219 35.667969 87.824219 36.210938 87.824219 37.796875 L 87.824219 38.734375 C 87.824219 40.664062 87.726562 40.960938 86.6875 40.960938 L 86.539062 40.960938 C 86.394531 40.960938 86.144531 40.960938 86.144531 41.109375 C 86.144531 41.257812 86.292969 41.308594 86.394531 41.308594 L 90.445312 41.308594 C 90.546875 41.308594 90.644531 41.308594 90.644531 41.210938 C 90.644531 41.0625 90.546875 40.960938 90.445312 40.960938 C 89.605469 40.960938 89.359375 40.8125 89.359375 38.734375 Z M 38.824219 43.535156 C 38.777344 43.4375 38.726562 43.140625 38.578125 43.140625 C 38.28125 43.140625 38.527344 44.03125 37.738281 44.03125 C 37.589844 44.03125 37.292969 43.929688 36.945312 43.882812 C 36.601562 43.785156 36.15625 43.734375 35.757812 43.734375 C 32.84375 43.734375 31.902344 45.613281 31.902344 46.703125 C 31.902344 48.683594 33.929688 49.375 35.511719 49.820312 C 38.183594 50.5625 39.121094 50.960938 39.121094 52.34375 C 39.121094 53.929688 37.835938 54.570312 36.355469 54.570312 C 34.574219 54.570312 32.792969 53.234375 31.953125 51.652344 C 31.855469 51.601562 31.804688 51.453125 31.65625 51.453125 C 31.605469 51.453125 31.507812 51.503906 31.507812 51.601562 C 31.507812 51.699219 31.65625 52 31.707031 52.097656 L 32.992188 55.066406 C 33.042969 55.214844 33.140625 55.5625 33.289062 55.5625 C 33.4375 55.5625 33.4375 55.363281 33.535156 55.164062 C 33.585938 54.96875 33.734375 54.769531 34.179688 54.769531 C 35.019531 54.769531 35.167969 54.769531 35.464844 54.820312 C 35.761719 54.867188 36.15625 54.96875 36.550781 54.96875 C 39.765625 54.96875 40.703125 53.035156 40.703125 51.699219 C 40.703125 49.324219 38.332031 48.632812 36.453125 48.136719 C 35.363281 47.890625 33.535156 47.496094 33.535156 46.058594 C 33.535156 44.820312 34.722656 44.128906 35.808594 44.128906 C 37.292969 44.128906 38.972656 45.167969 39.617188 46.503906 C 39.714844 46.652344 39.8125 46.949219 40.011719 46.949219 C 40.0625 46.949219 40.160156 46.851562 40.160156 46.75 C 40.160156 46.703125 40.0625 46.457031 40.011719 46.40625 Z M 38.824219 43.535156 C 38.777344 43.4375 38.726562 43.140625 38.578125 43.140625 C 38.28125 43.140625 38.527344 44.03125 37.738281 44.03125 C 37.589844 44.03125 37.292969 43.929688 36.945312 43.882812 C 36.601562 43.785156 36.15625 43.734375 35.757812 43.734375 C 32.84375 43.734375 31.902344 45.613281 31.902344 46.703125 C 31.902344 48.683594 33.929688 49.375 35.511719 49.820312 C 38.183594 50.5625 39.121094 50.960938 39.121094 52.34375 C 39.121094 53.929688 37.835938 54.570312 36.355469 54.570312 C 34.574219 54.570312 32.792969 53.234375 31.953125 51.652344 C 31.855469 51.601562 31.804688 51.453125 31.65625 51.453125 C 31.605469 51.453125 31.507812 51.503906 31.507812 51.601562 C 31.507812 51.699219 31.65625 52 31.707031 52.097656 L 32.992188 55.066406 C 33.042969 55.214844 33.140625 55.5625 33.289062 55.5625 C 33.4375 55.5625 33.4375 55.363281 33.535156 55.164062 C 33.585938 54.96875 33.734375 54.769531 34.179688 54.769531 C 35.019531 54.769531 35.167969 54.769531 35.464844 54.820312 C 35.761719 54.867188 36.15625 54.96875 36.550781 54.96875 C 39.765625 54.96875 40.703125 53.035156 40.703125 51.699219 C 40.703125 49.324219 38.332031 48.632812 36.453125 48.136719 C 35.363281 47.890625 33.535156 47.496094 33.535156 46.058594 C 33.535156 44.820312 34.722656 44.128906 35.808594 44.128906 C 37.292969 44.128906 38.972656 45.167969 39.617188 46.503906 C 39.714844 46.652344 39.8125 46.949219 40.011719 46.949219 C 40.0625 46.949219 40.160156 46.851562 40.160156 46.75 C 40.160156 46.703125 40.0625 46.457031 40.011719 46.40625 Z M 38.824219 43.535156 C 38.777344 43.4375 38.726562 43.140625 38.578125 43.140625 C 38.28125 43.140625 38.527344 44.03125 37.738281 44.03125 C 37.589844 44.03125 37.292969 43.929688 36.945312 43.882812 C 36.601562 43.785156 36.15625 43.734375 35.757812 43.734375 C 32.84375 43.734375 31.902344 45.613281 31.902344 46.703125 C 31.902344 48.683594 33.929688 49.375 35.511719 49.820312 C 38.183594 50.5625 39.121094 50.960938 39.121094 52.34375 C 39.121094 53.929688 37.835938 54.570312 36.355469 54.570312 C 34.574219 54.570312 32.792969 53.234375 31.953125 51.652344 C 31.855469 51.601562 31.804688 51.453125 31.65625 51.453125 C 31.605469 51.453125 31.507812 51.503906 31.507812 51.601562 C 31.507812 51.699219 31.65625 52 31.707031 52.097656 L 32.992188 55.066406 C 33.042969 55.214844 33.140625 55.5625 33.289062 55.5625 C 33.4375 55.5625 33.4375 55.363281 33.535156 55.164062 C 33.585938 54.96875 33.734375 54.769531 34.179688 54.769531 C 35.019531 54.769531 35.167969 54.769531 35.464844 54.820312 C 35.761719 54.867188 36.15625 54.96875 36.550781 54.96875 C 39.765625 54.96875 40.703125 53.035156 40.703125 51.699219 C 40.703125 49.324219 38.332031 48.632812 36.453125 48.136719 C 35.363281 47.890625 33.535156 47.496094 33.535156 46.058594 C 33.535156 44.820312 34.722656 44.128906 35.808594 44.128906 C 37.292969 44.128906 38.972656 45.167969 39.617188 46.503906 C 39.714844 46.652344 39.8125 46.949219 40.011719 46.949219 C 40.0625 46.949219 40.160156 46.851562 40.160156 46.75 C 40.160156 46.703125 40.0625 46.457031 40.011719 46.40625 Z M 44.859375 54.96875 C 46.984375 54.96875 48.617188 53.53125 48.617188 51.355469 C 48.617188 49.277344 46.933594 47.742188 44.90625 47.742188 C 42.832031 47.742188 41.101562 49.128906 41.101562 51.304688 C 41.101562 53.433594 42.730469 54.96875 44.859375 54.96875 Z M 44.859375 54.621094 C 43.078125 54.621094 42.878906 52.742188 42.878906 51.355469 C 42.878906 49.96875 43.128906 48.089844 44.90625 48.089844 C 46.636719 48.089844 46.835938 49.917969 46.835938 51.257812 C 46.835938 52.640625 46.6875 54.621094 44.859375 54.621094 Z M 44.859375 54.96875 C 46.984375 54.96875 48.617188 53.53125 48.617188 51.355469 C 48.617188 49.277344 46.933594 47.742188 44.90625 47.742188 C 42.832031 47.742188 41.101562 49.128906 41.101562 51.304688 C 41.101562 53.433594 42.730469 54.96875 44.859375 54.96875 Z M 44.859375 54.621094 C 43.078125 54.621094 42.878906 52.742188 42.878906 51.355469 C 42.878906 49.96875 43.128906 48.089844 44.90625 48.089844 C 46.636719 48.089844 46.835938 49.917969 46.835938 51.257812 C 46.835938 52.640625 46.6875 54.621094 44.859375 54.621094 Z M 44.859375 54.96875 C 46.984375 54.96875 48.617188 53.53125 48.617188 51.355469 C 48.617188 49.277344 46.933594 47.742188 44.90625 47.742188 C 42.832031 47.742188 41.101562 49.128906 41.101562 51.304688 C 41.101562 53.433594 42.730469 54.96875 44.859375 54.96875 Z M 44.859375 54.621094 C 43.078125 54.621094 42.878906 52.742188 42.878906 51.355469 C 42.878906 49.96875 43.128906 48.089844 44.90625 48.089844 C 46.636719 48.089844 46.835938 49.917969 46.835938 51.257812 C 46.835938 52.640625 46.6875 54.621094 44.859375 54.621094 Z M 51.878906 48.335938 L 53.066406 48.335938 C 53.410156 48.335938 53.558594 48.335938 53.558594 48.136719 C 53.558594 47.988281 53.410156 47.988281 53.066406 47.988281 L 51.878906 47.988281 L 51.878906 46.058594 C 51.878906 44.277344 52.867188 43.929688 53.261719 43.929688 C 54.203125 43.929688 53.363281 45.515625 54.796875 45.515625 C 55.289062 45.515625 55.6875 45.265625 55.6875 44.773438 C 55.6875 43.78125 54.300781 43.585938 53.511719 43.585938 C 51.382812 43.585938 50.347656 45.367188 50.347656 47.296875 C 50.347656 48.039062 50.097656 47.988281 49.40625 47.988281 C 48.960938 47.988281 48.765625 47.988281 48.765625 48.1875 C 48.765625 48.335938 49.011719 48.335938 49.207031 48.335938 L 50.347656 48.335938 L 50.347656 52.144531 C 50.347656 54.027344 50.199219 54.324219 49.207031 54.324219 L 49.011719 54.324219 C 48.863281 54.324219 48.664062 54.375 48.664062 54.519531 C 48.664062 54.671875 48.8125 54.671875 48.914062 54.671875 L 53.558594 54.671875 C 53.707031 54.671875 53.808594 54.671875 53.808594 54.519531 C 53.808594 54.375 53.707031 54.324219 53.117188 54.324219 C 52.078125 54.324219 51.878906 54.074219 51.878906 52.144531 Z M 51.878906 48.335938 L 53.066406 48.335938 C 53.410156 48.335938 53.558594 48.335938 53.558594 48.136719 C 53.558594 47.988281 53.410156 47.988281 53.066406 47.988281 L 51.878906 47.988281 L 51.878906 46.058594 C 51.878906 44.277344 52.867188 43.929688 53.261719 43.929688 C 54.203125 43.929688 53.363281 45.515625 54.796875 45.515625 C 55.289062 45.515625 55.6875 45.265625 55.6875 44.773438 C 55.6875 43.78125 54.300781 43.585938 53.511719 43.585938 C 51.382812 43.585938 50.347656 45.367188 50.347656 47.296875 C 50.347656 48.039062 50.097656 47.988281 49.40625 47.988281 C 48.960938 47.988281 48.765625 47.988281 48.765625 48.1875 C 48.765625 48.335938 49.011719 48.335938 49.207031 48.335938 L 50.347656 48.335938 L 50.347656 52.144531 C 50.347656 54.027344 50.199219 54.324219 49.207031 54.324219 L 49.011719 54.324219 C 48.863281 54.324219 48.664062 54.375 48.664062 54.519531 C 48.664062 54.671875 48.8125 54.671875 48.914062 54.671875 L 53.558594 54.671875 C 53.707031 54.671875 53.808594 54.671875 53.808594 54.519531 C 53.808594 54.375 53.707031 54.324219 53.117188 54.324219 C 52.078125 54.324219 51.878906 54.074219 51.878906 52.144531 Z M 51.878906 48.335938 L 53.066406 48.335938 C 53.410156 48.335938 53.558594 48.335938 53.558594 48.136719 C 53.558594 47.988281 53.410156 47.988281 53.066406 47.988281 L 51.878906 47.988281 L 51.878906 46.058594 C 51.878906 44.277344 52.867188 43.929688 53.261719 43.929688 C 54.203125 43.929688 53.363281 45.515625 54.796875 45.515625 C 55.289062 45.515625 55.6875 45.265625 55.6875 44.773438 C 55.6875 43.78125 54.300781 43.585938 53.511719 43.585938 C 51.382812 43.585938 50.347656 45.367188 50.347656 47.296875 C 50.347656 48.039062 50.097656 47.988281 49.40625 47.988281 C 48.960938 47.988281 48.765625 47.988281 48.765625 48.1875 C 48.765625 48.335938 49.011719 48.335938 49.207031 48.335938 L 50.347656 48.335938 L 50.347656 52.144531 C 50.347656 54.027344 50.199219 54.324219 49.207031 54.324219 L 49.011719 54.324219 C 48.863281 54.324219 48.664062 54.375 48.664062 54.519531 C 48.664062 54.671875 48.8125 54.671875 48.914062 54.671875 L 53.558594 54.671875 C 53.707031 54.671875 53.808594 54.671875 53.808594 54.519531 C 53.808594 54.375 53.707031 54.324219 53.117188 54.324219 C 52.078125 54.324219 51.878906 54.074219 51.878906 52.144531 Z M 55.09375 48.335938 L 55.09375 53.136719 C 55.09375 54.222656 55.835938 54.96875 57.515625 54.96875 C 59.097656 54.96875 59.691406 53.976562 59.691406 53.332031 C 59.691406 53.234375 59.640625 53.136719 59.542969 53.136719 C 59.292969 53.136719 59.292969 53.332031 59.246094 53.53125 C 59.148438 54.175781 58.554688 54.472656 57.910156 54.472656 C 56.675781 54.472656 56.625 53.582031 56.625 52.59375 L 56.625 48.335938 L 58.503906 48.335938 C 58.652344 48.335938 59 48.335938 59 48.1875 C 59 47.988281 58.75 47.988281 58.601562 47.988281 L 56.625 47.988281 L 56.625 45.367188 C 56.625 45.21875 56.675781 44.773438 56.425781 44.773438 C 56.179688 44.773438 56.179688 45.117188 56.179688 45.316406 C 56.179688 47.59375 54.203125 47.988281 53.609375 47.988281 C 53.460938 47.988281 53.363281 47.988281 53.363281 48.1875 C 53.363281 48.335938 53.707031 48.335938 53.855469 48.335938 Z M 55.09375 48.335938 L 55.09375 53.136719 C 55.09375 54.222656 55.835938 54.96875 57.515625 54.96875 C 59.097656 54.96875 59.691406 53.976562 59.691406 53.332031 C 59.691406 53.234375 59.640625 53.136719 59.542969 53.136719 C 59.292969 53.136719 59.292969 53.332031 59.246094 53.53125 C 59.148438 54.175781 58.554688 54.472656 57.910156 54.472656 C 56.675781 54.472656 56.625 53.582031 56.625 52.59375 L 56.625 48.335938 L 58.503906 48.335938 C 58.652344 48.335938 59 48.335938 59 48.1875 C 59 47.988281 58.75 47.988281 58.601562 47.988281 L 56.625 47.988281 L 56.625 45.367188 C 56.625 45.21875 56.675781 44.773438 56.425781 44.773438 C 56.179688 44.773438 56.179688 45.117188 56.179688 45.316406 C 56.179688 47.59375 54.203125 47.988281 53.609375 47.988281 C 53.460938 47.988281 53.363281 47.988281 53.363281 48.1875 C 53.363281 48.335938 53.707031 48.335938 53.855469 48.335938 Z M 55.09375 48.335938 L 55.09375 53.136719 C 55.09375 54.222656 55.835938 54.96875 57.515625 54.96875 C 59.097656 54.96875 59.691406 53.976562 59.691406 53.332031 C 59.691406 53.234375 59.640625 53.136719 59.542969 53.136719 C 59.292969 53.136719 59.292969 53.332031 59.246094 53.53125 C 59.148438 54.175781 58.554688 54.472656 57.910156 54.472656 C 56.675781 54.472656 56.625 53.582031 56.625 52.59375 L 56.625 48.335938 L 58.503906 48.335938 C 58.652344 48.335938 59 48.335938 59 48.1875 C 59 47.988281 58.75 47.988281 58.601562 47.988281 L 56.625 47.988281 L 56.625 45.367188 C 56.625 45.21875 56.675781 44.773438 56.425781 44.773438 C 56.179688 44.773438 56.179688 45.117188 56.179688 45.316406 C 56.179688 47.59375 54.203125 47.988281 53.609375 47.988281 C 53.460938 47.988281 53.363281 47.988281 53.363281 48.1875 C 53.363281 48.335938 53.707031 48.335938 53.855469 48.335938 Z M 66.21875 50.070312 C 66.121094 49.769531 65.871094 49.226562 65.871094 48.878906 C 65.871094 48.386719 66.316406 48.335938 66.710938 48.335938 C 66.859375 48.335938 67.109375 48.335938 67.109375 48.1875 C 67.109375 47.9375 66.664062 47.988281 66.515625 47.988281 L 63.597656 47.988281 C 63.5 47.988281 63.101562 47.9375 63.101562 48.136719 C 63.101562 48.285156 63.203125 48.335938 63.300781 48.335938 C 64.042969 48.386719 64.289062 49.324219 64.585938 49.871094 L 63.351562 53.234375 L 61.964844 49.820312 C 61.867188 49.574219 61.667969 49.128906 61.667969 48.832031 C 61.667969 48.433594 62.066406 48.335938 62.410156 48.335938 C 62.507812 48.335938 62.609375 48.285156 62.609375 48.136719 C 62.609375 47.988281 62.410156 47.988281 62.261719 47.988281 L 58.851562 47.988281 C 58.753906 47.988281 58.554688 47.988281 58.554688 48.085938 C 58.554688 48.285156 58.753906 48.335938 58.851562 48.335938 C 59.59375 48.335938 59.742188 48.1875 61.226562 51.847656 L 62.410156 54.769531 C 62.460938 54.917969 62.507812 55.066406 62.609375 55.066406 C 62.808594 55.066406 63.054688 54.222656 64.042969 53.929688 C 64.09375 53.929688 64.242188 53.878906 64.242188 53.828125 C 64.242188 53.679688 63.992188 53.78125 63.546875 53.484375 L 64.734375 50.316406 L 66.367188 54.375 C 66.417969 54.472656 66.566406 55.066406 66.761719 55.066406 C 66.910156 55.066406 67.40625 54.175781 68.296875 54.027344 C 68.34375 53.976562 68.445312 53.976562 68.445312 53.878906 C 68.445312 53.730469 68.046875 53.878906 67.703125 53.433594 L 68.34375 51.699219 C 68.691406 50.808594 69.53125 48.386719 70.71875 48.335938 C 70.867188 48.335938 71.015625 48.285156 71.015625 48.1875 C 71.015625 48.039062 70.914062 47.988281 70.765625 47.988281 L 67.851562 47.988281 C 67.75 47.988281 67.554688 48.039062 67.554688 48.1875 C 67.554688 48.285156 67.699219 48.335938 67.851562 48.335938 C 68.394531 48.335938 68.839844 48.433594 68.839844 49.128906 C 68.839844 49.574219 68.640625 50.167969 68.492188 50.613281 L 67.554688 53.234375 Z M 66.21875 50.070312 C 66.121094 49.769531 65.871094 49.226562 65.871094 48.878906 C 65.871094 48.386719 66.316406 48.335938 66.710938 48.335938 C 66.859375 48.335938 67.109375 48.335938 67.109375 48.1875 C 67.109375 47.9375 66.664062 47.988281 66.515625 47.988281 L 63.597656 47.988281 C 63.5 47.988281 63.101562 47.9375 63.101562 48.136719 C 63.101562 48.285156 63.203125 48.335938 63.300781 48.335938 C 64.042969 48.386719 64.289062 49.324219 64.585938 49.871094 L 63.351562 53.234375 L 61.964844 49.820312 C 61.867188 49.574219 61.667969 49.128906 61.667969 48.832031 C 61.667969 48.433594 62.066406 48.335938 62.410156 48.335938 C 62.507812 48.335938 62.609375 48.285156 62.609375 48.136719 C 62.609375 47.988281 62.410156 47.988281 62.261719 47.988281 L 58.851562 47.988281 C 58.753906 47.988281 58.554688 47.988281 58.554688 48.085938 C 58.554688 48.285156 58.753906 48.335938 58.851562 48.335938 C 59.59375 48.335938 59.742188 48.1875 61.226562 51.847656 L 62.410156 54.769531 C 62.460938 54.917969 62.507812 55.066406 62.609375 55.066406 C 62.808594 55.066406 63.054688 54.222656 64.042969 53.929688 C 64.09375 53.929688 64.242188 53.878906 64.242188 53.828125 C 64.242188 53.679688 63.992188 53.78125 63.546875 53.484375 L 64.734375 50.316406 L 66.367188 54.375 C 66.417969 54.472656 66.566406 55.066406 66.761719 55.066406 C 66.910156 55.066406 67.40625 54.175781 68.296875 54.027344 C 68.34375 53.976562 68.445312 53.976562 68.445312 53.878906 C 68.445312 53.730469 68.046875 53.878906 67.703125 53.433594 L 68.34375 51.699219 C 68.691406 50.808594 69.53125 48.386719 70.71875 48.335938 C 70.867188 48.335938 71.015625 48.285156 71.015625 48.1875 C 71.015625 48.039062 70.914062 47.988281 70.765625 47.988281 L 67.851562 47.988281 C 67.75 47.988281 67.554688 48.039062 67.554688 48.1875 C 67.554688 48.285156 67.699219 48.335938 67.851562 48.335938 C 68.394531 48.335938 68.839844 48.433594 68.839844 49.128906 C 68.839844 49.574219 68.640625 50.167969 68.492188 50.613281 L 67.554688 53.234375 Z M 66.21875 50.070312 C 66.121094 49.769531 65.871094 49.226562 65.871094 48.878906 C 65.871094 48.386719 66.316406 48.335938 66.710938 48.335938 C 66.859375 48.335938 67.109375 48.335938 67.109375 48.1875 C 67.109375 47.9375 66.664062 47.988281 66.515625 47.988281 L 63.597656 47.988281 C 63.5 47.988281 63.101562 47.9375 63.101562 48.136719 C 63.101562 48.285156 63.203125 48.335938 63.300781 48.335938 C 64.042969 48.386719 64.289062 49.324219 64.585938 49.871094 L 63.351562 53.234375 L 61.964844 49.820312 C 61.867188 49.574219 61.667969 49.128906 61.667969 48.832031 C 61.667969 48.433594 62.066406 48.335938 62.410156 48.335938 C 62.507812 48.335938 62.609375 48.285156 62.609375 48.136719 C 62.609375 47.988281 62.410156 47.988281 62.261719 47.988281 L 58.851562 47.988281 C 58.753906 47.988281 58.554688 47.988281 58.554688 48.085938 C 58.554688 48.285156 58.753906 48.335938 58.851562 48.335938 C 59.59375 48.335938 59.742188 48.1875 61.226562 51.847656 L 62.410156 54.769531 C 62.460938 54.917969 62.507812 55.066406 62.609375 55.066406 C 62.808594 55.066406 63.054688 54.222656 64.042969 53.929688 C 64.09375 53.929688 64.242188 53.878906 64.242188 53.828125 C 64.242188 53.679688 63.992188 53.78125 63.546875 53.484375 L 64.734375 50.316406 L 66.367188 54.375 C 66.417969 54.472656 66.566406 55.066406 66.761719 55.066406 C 66.910156 55.066406 67.40625 54.175781 68.296875 54.027344 C 68.34375 53.976562 68.445312 53.976562 68.445312 53.878906 C 68.445312 53.730469 68.046875 53.878906 67.703125 53.433594 L 68.34375 51.699219 C 68.691406 50.808594 69.53125 48.386719 70.71875 48.335938 C 70.867188 48.335938 71.015625 48.285156 71.015625 48.1875 C 71.015625 48.039062 70.914062 47.988281 70.765625 47.988281 L 67.851562 47.988281 C 67.75 47.988281 67.554688 48.039062 67.554688 48.1875 C 67.554688 48.285156 67.699219 48.335938 67.851562 48.335938 C 68.394531 48.335938 68.839844 48.433594 68.839844 49.128906 C 68.839844 49.574219 68.640625 50.167969 68.492188 50.613281 L 67.554688 53.234375 Z M 72.25 52.890625 C 72.25 51.847656 73.140625 50.910156 75.414062 51.007812 L 75.414062 51.949219 C 75.414062 53.484375 74.277344 54.175781 73.535156 54.175781 C 72.792969 54.175781 72.25 53.582031 72.25 52.890625 Z M 75.414062 50.613281 L 75.265625 50.613281 C 73.632812 50.761719 70.617188 51.007812 70.617188 53.234375 C 70.617188 54.375 71.605469 54.96875 72.644531 54.96875 C 73.78125 54.96875 75.019531 54.273438 75.363281 53.1875 L 75.414062 53.1875 L 75.414062 53.78125 C 75.414062 54.472656 76.15625 54.96875 76.800781 54.96875 C 77.984375 54.96875 78.53125 54.128906 78.53125 53.632812 C 78.53125 53.535156 78.53125 53.433594 78.382812 53.433594 C 78.183594 53.433594 78.28125 54.175781 77.589844 54.175781 C 76.898438 54.175781 76.949219 53.582031 76.949219 53.085938 L 76.949219 49.722656 C 76.949219 48.683594 76.207031 47.742188 74.082031 47.742188 C 71.953125 47.742188 70.867188 48.832031 70.867188 49.523438 C 70.867188 50.019531 71.210938 50.414062 71.707031 50.414062 C 72.25 50.414062 72.746094 50.117188 72.746094 49.574219 C 72.746094 49.226562 72.546875 49.078125 72.546875 48.929688 C 72.546875 48.335938 73.488281 48.089844 73.933594 48.089844 C 75.019531 48.089844 75.367188 48.730469 75.414062 49.574219 Z M 72.25 52.890625 C 72.25 51.847656 73.140625 50.910156 75.414062 51.007812 L 75.414062 51.949219 C 75.414062 53.484375 74.277344 54.175781 73.535156 54.175781 C 72.792969 54.175781 72.25 53.582031 72.25 52.890625 Z M 75.414062 50.613281 L 75.265625 50.613281 C 73.632812 50.761719 70.617188 51.007812 70.617188 53.234375 C 70.617188 54.375 71.605469 54.96875 72.644531 54.96875 C 73.78125 54.96875 75.019531 54.273438 75.363281 53.1875 L 75.414062 53.1875 L 75.414062 53.78125 C 75.414062 54.472656 76.15625 54.96875 76.800781 54.96875 C 77.984375 54.96875 78.53125 54.128906 78.53125 53.632812 C 78.53125 53.535156 78.53125 53.433594 78.382812 53.433594 C 78.183594 53.433594 78.28125 54.175781 77.589844 54.175781 C 76.898438 54.175781 76.949219 53.582031 76.949219 53.085938 L 76.949219 49.722656 C 76.949219 48.683594 76.207031 47.742188 74.082031 47.742188 C 71.953125 47.742188 70.867188 48.832031 70.867188 49.523438 C 70.867188 50.019531 71.210938 50.414062 71.707031 50.414062 C 72.25 50.414062 72.746094 50.117188 72.746094 49.574219 C 72.746094 49.226562 72.546875 49.078125 72.546875 48.929688 C 72.546875 48.335938 73.488281 48.089844 73.933594 48.089844 C 75.019531 48.089844 75.367188 48.730469 75.414062 49.574219 Z M 72.25 52.890625 C 72.25 51.847656 73.140625 50.910156 75.414062 51.007812 L 75.414062 51.949219 C 75.414062 53.484375 74.277344 54.175781 73.535156 54.175781 C 72.792969 54.175781 72.25 53.582031 72.25 52.890625 Z M 75.414062 50.613281 L 75.265625 50.613281 C 73.632812 50.761719 70.617188 51.007812 70.617188 53.234375 C 70.617188 54.375 71.605469 54.96875 72.644531 54.96875 C 73.78125 54.96875 75.019531 54.273438 75.363281 53.1875 L 75.414062 53.1875 L 75.414062 53.78125 C 75.414062 54.472656 76.15625 54.96875 76.800781 54.96875 C 77.984375 54.96875 78.53125 54.128906 78.53125 53.632812 C 78.53125 53.535156 78.53125 53.433594 78.382812 53.433594 C 78.183594 53.433594 78.28125 54.175781 77.589844 54.175781 C 76.898438 54.175781 76.949219 53.582031 76.949219 53.085938 L 76.949219 49.722656 C 76.949219 48.683594 76.207031 47.742188 74.082031 47.742188 C 71.953125 47.742188 70.867188 48.832031 70.867188 49.523438 C 70.867188 50.019531 71.210938 50.414062 71.707031 50.414062 C 72.25 50.414062 72.746094 50.117188 72.746094 49.574219 C 72.746094 49.226562 72.546875 49.078125 72.546875 48.929688 C 72.546875 48.335938 73.488281 48.089844 73.933594 48.089844 C 75.019531 48.089844 75.367188 48.730469 75.414062 49.574219 Z M 81.496094 48.039062 C 81.496094 47.890625 81.445312 47.742188 81.300781 47.742188 C 81.148438 47.742188 81.003906 47.890625 80.605469 48.089844 C 80.210938 48.335938 79.617188 48.535156 78.480469 48.683594 C 78.332031 48.683594 78.234375 48.78125 78.234375 48.878906 C 78.234375 49.128906 78.777344 49.027344 78.875 49.027344 C 79.964844 49.027344 79.964844 49.621094 79.964844 51.207031 L 79.964844 52.144531 C 79.964844 54.027344 79.816406 54.324219 78.828125 54.324219 L 78.628906 54.324219 C 78.480469 54.324219 78.28125 54.324219 78.28125 54.519531 C 78.28125 54.671875 78.378906 54.671875 78.53125 54.671875 L 83.175781 54.671875 C 83.277344 54.671875 83.425781 54.671875 83.425781 54.519531 C 83.425781 54.375 83.324219 54.324219 82.734375 54.324219 C 81.695312 54.324219 81.496094 54.074219 81.496094 52.144531 L 81.496094 49.472656 C 81.695312 49.175781 82.238281 48.730469 82.632812 48.730469 C 83.128906 48.730469 83.175781 49.472656 83.96875 49.472656 C 84.414062 49.472656 84.859375 49.128906 84.859375 48.683594 C 84.859375 48.039062 84.3125 47.742188 83.769531 47.742188 C 82.980469 47.742188 82.039062 48.582031 81.496094 49.027344 Z M 81.496094 48.039062 C 81.496094 47.890625 81.445312 47.742188 81.300781 47.742188 C 81.148438 47.742188 81.003906 47.890625 80.605469 48.089844 C 80.210938 48.335938 79.617188 48.535156 78.480469 48.683594 C 78.332031 48.683594 78.234375 48.78125 78.234375 48.878906 C 78.234375 49.128906 78.777344 49.027344 78.875 49.027344 C 79.964844 49.027344 79.964844 49.621094 79.964844 51.207031 L 79.964844 52.144531 C 79.964844 54.027344 79.816406 54.324219 78.828125 54.324219 L 78.628906 54.324219 C 78.480469 54.324219 78.28125 54.324219 78.28125 54.519531 C 78.28125 54.671875 78.378906 54.671875 78.53125 54.671875 L 83.175781 54.671875 C 83.277344 54.671875 83.425781 54.671875 83.425781 54.519531 C 83.425781 54.375 83.324219 54.324219 82.734375 54.324219 C 81.695312 54.324219 81.496094 54.074219 81.496094 52.144531 L 81.496094 49.472656 C 81.695312 49.175781 82.238281 48.730469 82.632812 48.730469 C 83.128906 48.730469 83.175781 49.472656 83.96875 49.472656 C 84.414062 49.472656 84.859375 49.128906 84.859375 48.683594 C 84.859375 48.039062 84.3125 47.742188 83.769531 47.742188 C 82.980469 47.742188 82.039062 48.582031 81.496094 49.027344 Z M 81.496094 48.039062 C 81.496094 47.890625 81.445312 47.742188 81.300781 47.742188 C 81.148438 47.742188 81.003906 47.890625 80.605469 48.089844 C 80.210938 48.335938 79.617188 48.535156 78.480469 48.683594 C 78.332031 48.683594 78.234375 48.78125 78.234375 48.878906 C 78.234375 49.128906 78.777344 49.027344 78.875 49.027344 C 79.964844 49.027344 79.964844 49.621094 79.964844 51.207031 L 79.964844 52.144531 C 79.964844 54.027344 79.816406 54.324219 78.828125 54.324219 L 78.628906 54.324219 C 78.480469 54.324219 78.28125 54.324219 78.28125 54.519531 C 78.28125 54.671875 78.378906 54.671875 78.53125 54.671875 L 83.175781 54.671875 C 83.277344 54.671875 83.425781 54.671875 83.425781 54.519531 C 83.425781 54.375 83.324219 54.324219 82.734375 54.324219 C 81.695312 54.324219 81.496094 54.074219 81.496094 52.144531 L 81.496094 49.472656 C 81.695312 49.175781 82.238281 48.730469 82.632812 48.730469 C 83.128906 48.730469 83.175781 49.472656 83.96875 49.472656 C 84.414062 49.472656 84.859375 49.128906 84.859375 48.683594 C 84.859375 48.039062 84.3125 47.742188 83.769531 47.742188 C 82.980469 47.742188 82.039062 48.582031 81.496094 49.027344 Z M 91.832031 49.472656 C 91.878906 49.472656 92.324219 49.324219 92.324219 49.175781 C 92.324219 49.078125 92.125 49.027344 92.078125 49.027344 C 91.78125 49.027344 91.78125 48.980469 91.582031 48.78125 C 91.039062 48.039062 90.050781 47.742188 89.210938 47.742188 C 87.082031 47.742188 85.054688 49.226562 85.054688 51.453125 C 85.054688 53.582031 86.589844 54.96875 88.664062 54.96875 C 91.1875 54.96875 92.570312 53.085938 92.570312 52.640625 C 92.570312 52.59375 92.570312 52.542969 92.472656 52.542969 C 92.226562 52.542969 91.535156 54.175781 89.605469 54.175781 C 88.222656 54.175781 87.132812 52.988281 86.785156 51.699219 Z M 86.6875 51.355469 C 86.640625 51.105469 86.589844 50.808594 86.589844 50.5625 C 86.589844 49.078125 87.480469 48.136719 88.519531 48.136719 C 89.507812 48.136719 90.296875 49.175781 90.296875 49.621094 C 90.296875 49.820312 90 49.917969 89.855469 49.96875 Z M 91.832031 49.472656 C 91.878906 49.472656 92.324219 49.324219 92.324219 49.175781 C 92.324219 49.078125 92.125 49.027344 92.078125 49.027344 C 91.78125 49.027344 91.78125 48.980469 91.582031 48.78125 C 91.039062 48.039062 90.050781 47.742188 89.210938 47.742188 C 87.082031 47.742188 85.054688 49.226562 85.054688 51.453125 C 85.054688 53.582031 86.589844 54.96875 88.664062 54.96875 C 91.1875 54.96875 92.570312 53.085938 92.570312 52.640625 C 92.570312 52.59375 92.570312 52.542969 92.472656 52.542969 C 92.226562 52.542969 91.535156 54.175781 89.605469 54.175781 C 88.222656 54.175781 87.132812 52.988281 86.785156 51.699219 Z M 86.6875 51.355469 C 86.640625 51.105469 86.589844 50.808594 86.589844 50.5625 C 86.589844 49.078125 87.480469 48.136719 88.519531 48.136719 C 89.507812 48.136719 90.296875 49.175781 90.296875 49.621094 C 90.296875 49.820312 90 49.917969 89.855469 49.96875 Z M 91.832031 49.472656 C 91.878906 49.472656 92.324219 49.324219 92.324219 49.175781 C 92.324219 49.078125 92.125 49.027344 92.078125 49.027344 C 91.78125 49.027344 91.78125 48.980469 91.582031 48.78125 C 91.039062 48.039062 90.050781 47.742188 89.210938 47.742188 C 87.082031 47.742188 85.054688 49.226562 85.054688 51.453125 C 85.054688 53.582031 86.589844 54.96875 88.664062 54.96875 C 91.1875 54.96875 92.570312 53.085938 92.570312 52.640625 C 92.570312 52.59375 92.570312 52.542969 92.472656 52.542969 C 92.226562 52.542969 91.535156 54.175781 89.605469 54.175781 C 88.222656 54.175781 87.132812 52.988281 86.785156 51.699219 Z M 86.6875 51.355469 C 86.640625 51.105469 86.589844 50.808594 86.589844 50.5625 C 86.589844 49.078125 87.480469 48.136719 88.519531 48.136719 C 89.507812 48.136719 90.296875 49.175781 90.296875 49.621094 C 90.296875 49.820312 90 49.917969 89.855469 49.96875 Z M 42.730469 57.195312 C 42.683594 57.09375 42.632812 56.847656 42.433594 56.847656 C 42.1875 56.847656 42.433594 57.6875 41.59375 57.6875 C 41.496094 57.6875 41.199219 57.640625 40.851562 57.589844 C 40.449219 57.488281 40.03125 57.441406 39.617188 57.441406 C 36.699219 57.441406 35.808594 59.324219 35.808594 60.414062 C 35.808594 62.390625 37.785156 63.082031 39.371094 63.480469 C 42.039062 64.222656 42.980469 64.667969 42.980469 66.054688 C 42.980469 67.636719 41.691406 68.28125 40.257812 68.28125 C 38.429688 68.28125 36.699219 66.894531 35.808594 65.359375 C 35.757812 65.261719 35.710938 65.113281 35.5625 65.113281 C 35.464844 65.113281 35.414062 65.210938 35.414062 65.3125 C 35.414062 65.410156 35.5625 65.65625 35.5625 65.757812 L 36.847656 68.773438 C 36.898438 68.875 36.996094 69.269531 37.191406 69.269531 C 37.339844 69.269531 37.339844 69.070312 37.390625 68.824219 C 37.441406 68.675781 37.589844 68.429688 38.035156 68.429688 C 38.875 68.429688 39.070312 68.476562 39.367188 68.527344 C 39.664062 68.578125 40.0625 68.675781 40.40625 68.675781 C 43.621094 68.675781 44.609375 66.746094 44.609375 65.410156 C 44.609375 62.984375 42.234375 62.292969 40.308594 61.847656 C 39.21875 61.550781 37.390625 61.203125 37.390625 59.71875 C 37.390625 58.53125 38.625 57.835938 39.714844 57.835938 C 41.199219 57.835938 42.878906 58.878906 43.519531 60.210938 C 43.570312 60.3125 43.71875 60.609375 43.917969 60.609375 C 43.964844 60.609375 44.066406 60.558594 44.066406 60.460938 C 44.066406 60.363281 43.917969 60.164062 43.917969 60.066406 Z M 42.730469 57.195312 C 42.683594 57.09375 42.632812 56.847656 42.433594 56.847656 C 42.1875 56.847656 42.433594 57.6875 41.59375 57.6875 C 41.496094 57.6875 41.199219 57.640625 40.851562 57.589844 C 40.449219 57.488281 40.03125 57.441406 39.617188 57.441406 C 36.699219 57.441406 35.808594 59.324219 35.808594 60.414062 C 35.808594 62.390625 37.785156 63.082031 39.371094 63.480469 C 42.039062 64.222656 42.980469 64.667969 42.980469 66.054688 C 42.980469 67.636719 41.691406 68.28125 40.257812 68.28125 C 38.429688 68.28125 36.699219 66.894531 35.808594 65.359375 C 35.757812 65.261719 35.710938 65.113281 35.5625 65.113281 C 35.464844 65.113281 35.414062 65.210938 35.414062 65.3125 C 35.414062 65.410156 35.5625 65.65625 35.5625 65.757812 L 36.847656 68.773438 C 36.898438 68.875 36.996094 69.269531 37.191406 69.269531 C 37.339844 69.269531 37.339844 69.070312 37.390625 68.824219 C 37.441406 68.675781 37.589844 68.429688 38.035156 68.429688 C 38.875 68.429688 39.070312 68.476562 39.367188 68.527344 C 39.664062 68.578125 40.0625 68.675781 40.40625 68.675781 C 43.621094 68.675781 44.609375 66.746094 44.609375 65.410156 C 44.609375 62.984375 42.234375 62.292969 40.308594 61.847656 C 39.21875 61.550781 37.390625 61.203125 37.390625 59.71875 C 37.390625 58.53125 38.625 57.835938 39.714844 57.835938 C 41.199219 57.835938 42.878906 58.878906 43.519531 60.210938 C 43.570312 60.3125 43.71875 60.609375 43.917969 60.609375 C 43.964844 60.609375 44.066406 60.558594 44.066406 60.460938 C 44.066406 60.363281 43.917969 60.164062 43.917969 60.066406 Z M 42.730469 57.195312 C 42.683594 57.09375 42.632812 56.847656 42.433594 56.847656 C 42.1875 56.847656 42.433594 57.6875 41.59375 57.6875 C 41.496094 57.6875 41.199219 57.640625 40.851562 57.589844 C 40.449219 57.488281 40.03125 57.441406 39.617188 57.441406 C 36.699219 57.441406 35.808594 59.324219 35.808594 60.414062 C 35.808594 62.390625 37.785156 63.082031 39.371094 63.480469 C 42.039062 64.222656 42.980469 64.667969 42.980469 66.054688 C 42.980469 67.636719 41.691406 68.28125 40.257812 68.28125 C 38.429688 68.28125 36.699219 66.894531 35.808594 65.359375 C 35.757812 65.261719 35.710938 65.113281 35.5625 65.113281 C 35.464844 65.113281 35.414062 65.210938 35.414062 65.3125 C 35.414062 65.410156 35.5625 65.65625 35.5625 65.757812 L 36.847656 68.773438 C 36.898438 68.875 36.996094 69.269531 37.191406 69.269531 C 37.339844 69.269531 37.339844 69.070312 37.390625 68.824219 C 37.441406 68.675781 37.589844 68.429688 38.035156 68.429688 C 38.875 68.429688 39.070312 68.476562 39.367188 68.527344 C 39.664062 68.578125 40.0625 68.675781 40.40625 68.675781 C 43.621094 68.675781 44.609375 66.746094 44.609375 65.410156 C 44.609375 62.984375 42.234375 62.292969 40.308594 61.847656 C 39.21875 61.550781 37.390625 61.203125 37.390625 59.71875 C 37.390625 58.53125 38.625 57.835938 39.714844 57.835938 C 41.199219 57.835938 42.878906 58.878906 43.519531 60.210938 C 43.570312 60.3125 43.71875 60.609375 43.917969 60.609375 C 43.964844 60.609375 44.066406 60.558594 44.066406 60.460938 C 44.066406 60.363281 43.917969 60.164062 43.917969 60.066406 Z M 49.753906 61.699219 C 49.605469 61.699219 49.40625 61.699219 49.40625 61.847656 C 49.40625 62.046875 49.554688 62.046875 49.703125 62.046875 C 50.199219 62.046875 50.59375 62.144531 50.59375 62.738281 C 50.59375 63.675781 49.554688 65.757812 49.257812 66.746094 L 47.824219 63.578125 C 47.726562 63.28125 47.527344 62.886719 47.527344 62.589844 C 47.527344 62.046875 48.070312 62.046875 48.417969 62.046875 C 48.566406 62.046875 48.910156 62.09375 48.910156 61.898438 C 48.910156 61.699219 48.664062 61.699219 48.515625 61.699219 L 44.558594 61.699219 C 44.460938 61.699219 44.265625 61.699219 44.265625 61.898438 C 44.265625 62.046875 44.460938 62.046875 44.558594 62.046875 C 45.351562 62.046875 45.449219 62.195312 46.441406 64.222656 L 48.464844 68.726562 C 48.171875 69.171875 47.578125 70.953125 46.882812 70.953125 C 46.539062 70.953125 46.539062 70.210938 45.746094 70.210938 C 45.351562 70.210938 45.003906 70.507812 45.003906 70.953125 C 45.003906 71.546875 45.597656 71.84375 46.09375 71.84375 C 47.378906 71.84375 48.019531 70.558594 48.417969 69.566406 C 48.910156 68.480469 49.503906 67.933594 49.898438 67.835938 C 50 67.835938 50.148438 67.785156 50.148438 67.738281 C 50.148438 67.539062 49.503906 67.539062 49.457031 67.140625 L 50.246094 65.0625 C 51.035156 63.035156 51.730469 62.046875 52.621094 62.046875 C 52.71875 62.046875 52.816406 61.996094 52.816406 61.898438 C 52.816406 61.699219 52.667969 61.699219 52.519531 61.699219 Z M 49.753906 61.699219 C 49.605469 61.699219 49.40625 61.699219 49.40625 61.847656 C 49.40625 62.046875 49.554688 62.046875 49.703125 62.046875 C 50.199219 62.046875 50.59375 62.144531 50.59375 62.738281 C 50.59375 63.675781 49.554688 65.757812 49.257812 66.746094 L 47.824219 63.578125 C 47.726562 63.28125 47.527344 62.886719 47.527344 62.589844 C 47.527344 62.046875 48.070312 62.046875 48.417969 62.046875 C 48.566406 62.046875 48.910156 62.09375 48.910156 61.898438 C 48.910156 61.699219 48.664062 61.699219 48.515625 61.699219 L 44.558594 61.699219 C 44.460938 61.699219 44.265625 61.699219 44.265625 61.898438 C 44.265625 62.046875 44.460938 62.046875 44.558594 62.046875 C 45.351562 62.046875 45.449219 62.195312 46.441406 64.222656 L 48.464844 68.726562 C 48.171875 69.171875 47.578125 70.953125 46.882812 70.953125 C 46.539062 70.953125 46.539062 70.210938 45.746094 70.210938 C 45.351562 70.210938 45.003906 70.507812 45.003906 70.953125 C 45.003906 71.546875 45.597656 71.84375 46.09375 71.84375 C 47.378906 71.84375 48.019531 70.558594 48.417969 69.566406 C 48.910156 68.480469 49.503906 67.933594 49.898438 67.835938 C 50 67.835938 50.148438 67.785156 50.148438 67.738281 C 50.148438 67.539062 49.503906 67.539062 49.457031 67.140625 L 50.246094 65.0625 C 51.035156 63.035156 51.730469 62.046875 52.621094 62.046875 C 52.71875 62.046875 52.816406 61.996094 52.816406 61.898438 C 52.816406 61.699219 52.667969 61.699219 52.519531 61.699219 Z M 49.753906 61.699219 C 49.605469 61.699219 49.40625 61.699219 49.40625 61.847656 C 49.40625 62.046875 49.554688 62.046875 49.703125 62.046875 C 50.199219 62.046875 50.59375 62.144531 50.59375 62.738281 C 50.59375 63.675781 49.554688 65.757812 49.257812 66.746094 L 47.824219 63.578125 C 47.726562 63.28125 47.527344 62.886719 47.527344 62.589844 C 47.527344 62.046875 48.070312 62.046875 48.417969 62.046875 C 48.566406 62.046875 48.910156 62.09375 48.910156 61.898438 C 48.910156 61.699219 48.664062 61.699219 48.515625 61.699219 L 44.558594 61.699219 C 44.460938 61.699219 44.265625 61.699219 44.265625 61.898438 C 44.265625 62.046875 44.460938 62.046875 44.558594 62.046875 C 45.351562 62.046875 45.449219 62.195312 46.441406 64.222656 L 48.464844 68.726562 C 48.171875 69.171875 47.578125 70.953125 46.882812 70.953125 C 46.539062 70.953125 46.539062 70.210938 45.746094 70.210938 C 45.351562 70.210938 45.003906 70.507812 45.003906 70.953125 C 45.003906 71.546875 45.597656 71.84375 46.09375 71.84375 C 47.378906 71.84375 48.019531 70.558594 48.417969 69.566406 C 48.910156 68.480469 49.503906 67.933594 49.898438 67.835938 C 50 67.835938 50.148438 67.785156 50.148438 67.738281 C 50.148438 67.539062 49.503906 67.539062 49.457031 67.140625 L 50.246094 65.0625 C 51.035156 63.035156 51.730469 62.046875 52.621094 62.046875 C 52.71875 62.046875 52.816406 61.996094 52.816406 61.898438 C 52.816406 61.699219 52.667969 61.699219 52.519531 61.699219 Z M 53.3125 68.476562 C 53.363281 68.578125 53.410156 68.972656 53.609375 68.972656 C 53.707031 68.972656 53.757812 68.824219 53.855469 68.726562 C 54.003906 68.578125 54.152344 68.476562 54.449219 68.476562 C 55.042969 68.476562 55.636719 68.675781 56.28125 68.675781 C 57.761719 68.675781 59.296875 67.882812 59.296875 66.203125 C 59.296875 63.183594 53.957031 65.0625 53.957031 62.933594 C 53.957031 62.144531 54.796875 61.746094 55.539062 61.746094 C 56.578125 61.746094 57.761719 62.539062 58.207031 63.480469 C 58.257812 63.578125 58.355469 63.828125 58.503906 63.828125 C 58.554688 63.828125 58.652344 63.777344 58.652344 63.675781 C 58.652344 63.628906 58.601562 63.53125 58.554688 63.480469 L 57.910156 61.648438 C 57.910156 61.550781 57.8125 61.054688 57.613281 61.054688 C 57.417969 61.054688 57.515625 61.550781 56.871094 61.550781 C 56.429688 61.550781 55.933594 61.402344 55.4375 61.402344 C 54.105469 61.402344 52.570312 62.042969 52.570312 63.578125 C 52.570312 64.46875 52.769531 65.261719 55.636719 65.605469 C 57.070312 65.757812 57.910156 65.953125 57.910156 66.945312 C 57.910156 67.882812 56.972656 68.28125 56.082031 68.28125 C 54.695312 68.28125 53.363281 67.09375 52.820312 65.902344 C 52.769531 65.757812 52.71875 65.558594 52.570312 65.558594 C 52.472656 65.558594 52.421875 65.605469 52.421875 65.65625 C 52.421875 65.753906 52.421875 65.855469 52.472656 65.902344 Z M 53.3125 68.476562 C 53.363281 68.578125 53.410156 68.972656 53.609375 68.972656 C 53.707031 68.972656 53.757812 68.824219 53.855469 68.726562 C 54.003906 68.578125 54.152344 68.476562 54.449219 68.476562 C 55.042969 68.476562 55.636719 68.675781 56.28125 68.675781 C 57.761719 68.675781 59.296875 67.882812 59.296875 66.203125 C 59.296875 63.183594 53.957031 65.0625 53.957031 62.933594 C 53.957031 62.144531 54.796875 61.746094 55.539062 61.746094 C 56.578125 61.746094 57.761719 62.539062 58.207031 63.480469 C 58.257812 63.578125 58.355469 63.828125 58.503906 63.828125 C 58.554688 63.828125 58.652344 63.777344 58.652344 63.675781 C 58.652344 63.628906 58.601562 63.53125 58.554688 63.480469 L 57.910156 61.648438 C 57.910156 61.550781 57.8125 61.054688 57.613281 61.054688 C 57.417969 61.054688 57.515625 61.550781 56.871094 61.550781 C 56.429688 61.550781 55.933594 61.402344 55.4375 61.402344 C 54.105469 61.402344 52.570312 62.042969 52.570312 63.578125 C 52.570312 64.46875 52.769531 65.261719 55.636719 65.605469 C 57.070312 65.757812 57.910156 65.953125 57.910156 66.945312 C 57.910156 67.882812 56.972656 68.28125 56.082031 68.28125 C 54.695312 68.28125 53.363281 67.09375 52.820312 65.902344 C 52.769531 65.757812 52.71875 65.558594 52.570312 65.558594 C 52.472656 65.558594 52.421875 65.605469 52.421875 65.65625 C 52.421875 65.753906 52.421875 65.855469 52.472656 65.902344 Z M 53.3125 68.476562 C 53.363281 68.578125 53.410156 68.972656 53.609375 68.972656 C 53.707031 68.972656 53.757812 68.824219 53.855469 68.726562 C 54.003906 68.578125 54.152344 68.476562 54.449219 68.476562 C 55.042969 68.476562 55.636719 68.675781 56.28125 68.675781 C 57.761719 68.675781 59.296875 67.882812 59.296875 66.203125 C 59.296875 63.183594 53.957031 65.0625 53.957031 62.933594 C 53.957031 62.144531 54.796875 61.746094 55.539062 61.746094 C 56.578125 61.746094 57.761719 62.539062 58.207031 63.480469 C 58.257812 63.578125 58.355469 63.828125 58.503906 63.828125 C 58.554688 63.828125 58.652344 63.777344 58.652344 63.675781 C 58.652344 63.628906 58.601562 63.53125 58.554688 63.480469 L 57.910156 61.648438 C 57.910156 61.550781 57.8125 61.054688 57.613281 61.054688 C 57.417969 61.054688 57.515625 61.550781 56.871094 61.550781 C 56.429688 61.550781 55.933594 61.402344 55.4375 61.402344 C 54.105469 61.402344 52.570312 62.042969 52.570312 63.578125 C 52.570312 64.46875 52.769531 65.261719 55.636719 65.605469 C 57.070312 65.757812 57.910156 65.953125 57.910156 66.945312 C 57.910156 67.882812 56.972656 68.28125 56.082031 68.28125 C 54.695312 68.28125 53.363281 67.09375 52.820312 65.902344 C 52.769531 65.757812 52.71875 65.558594 52.570312 65.558594 C 52.472656 65.558594 52.421875 65.605469 52.421875 65.65625 C 52.421875 65.753906 52.421875 65.855469 52.472656 65.902344 Z M 60.925781 62.046875 L 60.925781 66.84375 C 60.925781 67.933594 61.71875 68.675781 63.398438 68.675781 C 64.980469 68.675781 65.574219 67.6875 65.574219 67.042969 C 65.574219 66.945312 65.523438 66.84375 65.425781 66.84375 C 65.179688 66.84375 65.179688 67.042969 65.128906 67.191406 C 64.980469 67.886719 64.4375 68.179688 63.796875 68.179688 C 62.558594 68.179688 62.460938 67.242188 62.460938 66.25 L 62.460938 62.046875 L 64.339844 62.046875 C 64.488281 62.046875 64.882812 62.046875 64.882812 61.894531 C 64.882812 61.699219 64.636719 61.699219 64.4375 61.699219 L 62.460938 61.699219 L 62.460938 59.074219 C 62.511719 58.878906 62.558594 58.480469 62.261719 58.480469 C 62.015625 58.480469 62.066406 58.828125 62.066406 59.027344 C 62.066406 61.253906 60.085938 61.699219 59.445312 61.699219 C 59.296875 61.699219 59.195312 61.699219 59.195312 61.894531 C 59.195312 62.042969 59.542969 62.042969 59.742188 62.042969 L 60.925781 62.042969 Z M 60.925781 62.046875 L 60.925781 66.84375 C 60.925781 67.933594 61.71875 68.675781 63.398438 68.675781 C 64.980469 68.675781 65.574219 67.6875 65.574219 67.042969 C 65.574219 66.945312 65.523438 66.84375 65.425781 66.84375 C 65.179688 66.84375 65.179688 67.042969 65.128906 67.191406 C 64.980469 67.886719 64.4375 68.179688 63.796875 68.179688 C 62.558594 68.179688 62.460938 67.242188 62.460938 66.25 L 62.460938 62.046875 L 64.339844 62.046875 C 64.488281 62.046875 64.882812 62.046875 64.882812 61.894531 C 64.882812 61.699219 64.636719 61.699219 64.4375 61.699219 L 62.460938 61.699219 L 62.460938 59.074219 C 62.511719 58.878906 62.558594 58.480469 62.261719 58.480469 C 62.015625 58.480469 62.066406 58.828125 62.066406 59.027344 C 62.066406 61.253906 60.085938 61.699219 59.445312 61.699219 C 59.296875 61.699219 59.195312 61.699219 59.195312 61.894531 C 59.195312 62.042969 59.542969 62.042969 59.742188 62.042969 L 60.925781 62.042969 Z M 60.925781 62.046875 L 60.925781 66.84375 C 60.925781 67.933594 61.71875 68.675781 63.398438 68.675781 C 64.980469 68.675781 65.574219 67.6875 65.574219 67.042969 C 65.574219 66.945312 65.523438 66.84375 65.425781 66.84375 C 65.179688 66.84375 65.179688 67.042969 65.128906 67.191406 C 64.980469 67.886719 64.4375 68.179688 63.796875 68.179688 C 62.558594 68.179688 62.460938 67.242188 62.460938 66.25 L 62.460938 62.046875 L 64.339844 62.046875 C 64.488281 62.046875 64.882812 62.046875 64.882812 61.894531 C 64.882812 61.699219 64.636719 61.699219 64.4375 61.699219 L 62.460938 61.699219 L 62.460938 59.074219 C 62.511719 58.878906 62.558594 58.480469 62.261719 58.480469 C 62.015625 58.480469 62.066406 58.828125 62.066406 59.027344 C 62.066406 61.253906 60.085938 61.699219 59.445312 61.699219 C 59.296875 61.699219 59.195312 61.699219 59.195312 61.894531 C 59.195312 62.042969 59.542969 62.042969 59.742188 62.042969 L 60.925781 62.042969 Z M 72.347656 63.183594 C 72.398438 63.132812 72.84375 62.984375 72.84375 62.835938 C 72.84375 62.738281 72.695312 62.738281 72.597656 62.738281 C 72.300781 62.738281 72.300781 62.6875 72.101562 62.488281 C 71.558594 61.746094 70.570312 61.402344 69.730469 61.402344 C 67.601562 61.402344 65.574219 62.886719 65.574219 65.164062 C 65.574219 67.242188 67.109375 68.675781 69.183594 68.675781 C 71.707031 68.675781 73.089844 66.796875 73.089844 66.351562 C 73.089844 66.300781 73.089844 66.203125 72.992188 66.203125 C 72.746094 66.203125 72.050781 67.882812 70.125 67.882812 C 68.738281 67.882812 67.652344 66.695312 67.304688 65.410156 Z M 67.207031 65.015625 C 67.15625 64.765625 67.109375 64.519531 67.109375 64.273438 C 67.109375 62.785156 68 61.847656 69.035156 61.847656 C 70.027344 61.847656 70.816406 62.886719 70.816406 63.332031 C 70.816406 63.527344 70.519531 63.628906 70.371094 63.675781 Z M 72.347656 63.183594 C 72.398438 63.132812 72.84375 62.984375 72.84375 62.835938 C 72.84375 62.738281 72.695312 62.738281 72.597656 62.738281 C 72.300781 62.738281 72.300781 62.6875 72.101562 62.488281 C 71.558594 61.746094 70.570312 61.402344 69.730469 61.402344 C 67.601562 61.402344 65.574219 62.886719 65.574219 65.164062 C 65.574219 67.242188 67.109375 68.675781 69.183594 68.675781 C 71.707031 68.675781 73.089844 66.796875 73.089844 66.351562 C 73.089844 66.300781 73.089844 66.203125 72.992188 66.203125 C 72.746094 66.203125 72.050781 67.882812 70.125 67.882812 C 68.738281 67.882812 67.652344 66.695312 67.304688 65.410156 Z M 67.207031 65.015625 C 67.15625 64.765625 67.109375 64.519531 67.109375 64.273438 C 67.109375 62.785156 68 61.847656 69.035156 61.847656 C 70.027344 61.847656 70.816406 62.886719 70.816406 63.332031 C 70.816406 63.527344 70.519531 63.628906 70.371094 63.675781 Z M 72.347656 63.183594 C 72.398438 63.132812 72.84375 62.984375 72.84375 62.835938 C 72.84375 62.738281 72.695312 62.738281 72.597656 62.738281 C 72.300781 62.738281 72.300781 62.6875 72.101562 62.488281 C 71.558594 61.746094 70.570312 61.402344 69.730469 61.402344 C 67.601562 61.402344 65.574219 62.886719 65.574219 65.164062 C 65.574219 67.242188 67.109375 68.675781 69.183594 68.675781 C 71.707031 68.675781 73.089844 66.796875 73.089844 66.351562 C 73.089844 66.300781 73.089844 66.203125 72.992188 66.203125 C 72.746094 66.203125 72.050781 67.882812 70.125 67.882812 C 68.738281 67.882812 67.652344 66.695312 67.304688 65.410156 Z M 67.207031 65.015625 C 67.15625 64.765625 67.109375 64.519531 67.109375 64.273438 C 67.109375 62.785156 68 61.847656 69.035156 61.847656 C 70.027344 61.847656 70.816406 62.886719 70.816406 63.332031 C 70.816406 63.527344 70.519531 63.628906 70.371094 63.675781 Z M 76.453125 63.035156 C 76.945312 62.785156 77.984375 62.144531 78.53125 62.144531 C 79.320312 62.144531 79.417969 62.835938 79.417969 63.480469 L 79.417969 65.804688 C 79.417969 67.785156 79.273438 67.984375 78.429688 68.03125 C 78.332031 68.03125 78.132812 68.082031 78.132812 68.230469 C 78.132812 68.378906 78.382812 68.378906 78.480469 68.378906 L 81.890625 68.378906 C 81.992188 68.378906 82.1875 68.378906 82.1875 68.230469 C 82.1875 68.03125 81.992188 68.03125 81.84375 68.03125 C 81.199219 68.03125 80.953125 67.835938 80.953125 65.804688 L 80.953125 63.035156 C 81.496094 62.738281 82.4375 62.144531 83.078125 62.144531 C 83.917969 62.144531 83.96875 62.933594 83.96875 63.628906 L 83.96875 65.804688 C 83.96875 67.785156 83.820312 67.984375 83.03125 68.03125 C 82.929688 68.03125 82.683594 68.03125 82.683594 68.179688 C 82.683594 68.378906 82.882812 68.378906 82.980469 68.378906 L 87.085938 68.378906 C 87.183594 68.378906 87.28125 68.378906 87.28125 68.230469 C 87.28125 68.03125 87.183594 68.03125 86.6875 68.03125 C 85.601562 68.03125 85.5 67.734375 85.5 65.804688 L 85.5 63.03125 C 85.5 61.945312 84.910156 61.402344 83.917969 61.402344 C 83.128906 61.402344 81.644531 62.242188 80.953125 62.6875 C 80.902344 61.84375 80.160156 61.402344 79.417969 61.402344 C 78.382812 61.402344 77.34375 62.191406 76.453125 62.6875 L 76.453125 61.746094 C 76.453125 61.546875 76.402344 61.402344 76.253906 61.402344 C 76.105469 61.402344 75.957031 61.597656 75.5625 61.796875 C 75.167969 61.996094 74.523438 62.242188 73.4375 62.339844 C 73.289062 62.339844 73.1875 62.441406 73.1875 62.589844 C 73.1875 62.785156 73.734375 62.738281 73.832031 62.738281 C 74.921875 62.738281 74.921875 63.28125 74.921875 64.867188 L 74.921875 65.804688 C 74.921875 67.785156 74.722656 68.03125 73.734375 68.03125 C 73.335938 68.03125 73.238281 68.082031 73.238281 68.230469 C 73.238281 68.378906 73.386719 68.378906 73.484375 68.378906 L 77.34375 68.378906 C 77.441406 68.378906 77.6875 68.378906 77.6875 68.230469 C 77.6875 68.03125 77.492188 68.03125 77.34375 68.03125 C 76.652344 68.03125 76.453125 67.835938 76.453125 65.804688 Z M 76.453125 63.035156 C 76.945312 62.785156 77.984375 62.144531 78.53125 62.144531 C 79.320312 62.144531 79.417969 62.835938 79.417969 63.480469 L 79.417969 65.804688 C 79.417969 67.785156 79.273438 67.984375 78.429688 68.03125 C 78.332031 68.03125 78.132812 68.082031 78.132812 68.230469 C 78.132812 68.378906 78.382812 68.378906 78.480469 68.378906 L 81.890625 68.378906 C 81.992188 68.378906 82.1875 68.378906 82.1875 68.230469 C 82.1875 68.03125 81.992188 68.03125 81.84375 68.03125 C 81.199219 68.03125 80.953125 67.835938 80.953125 65.804688 L 80.953125 63.035156 C 81.496094 62.738281 82.4375 62.144531 83.078125 62.144531 C 83.917969 62.144531 83.96875 62.933594 83.96875 63.628906 L 83.96875 65.804688 C 83.96875 67.785156 83.820312 67.984375 83.03125 68.03125 C 82.929688 68.03125 82.683594 68.03125 82.683594 68.179688 C 82.683594 68.378906 82.882812 68.378906 82.980469 68.378906 L 87.085938 68.378906 C 87.183594 68.378906 87.28125 68.378906 87.28125 68.230469 C 87.28125 68.03125 87.183594 68.03125 86.6875 68.03125 C 85.601562 68.03125 85.5 67.734375 85.5 65.804688 L 85.5 63.03125 C 85.5 61.945312 84.910156 61.402344 83.917969 61.402344 C 83.128906 61.402344 81.644531 62.242188 80.953125 62.6875 C 80.902344 61.84375 80.160156 61.402344 79.417969 61.402344 C 78.382812 61.402344 77.34375 62.191406 76.453125 62.6875 L 76.453125 61.746094 C 76.453125 61.546875 76.402344 61.402344 76.253906 61.402344 C 76.105469 61.402344 75.957031 61.597656 75.5625 61.796875 C 75.167969 61.996094 74.523438 62.242188 73.4375 62.339844 C 73.289062 62.339844 73.1875 62.441406 73.1875 62.589844 C 73.1875 62.785156 73.734375 62.738281 73.832031 62.738281 C 74.921875 62.738281 74.921875 63.28125 74.921875 64.867188 L 74.921875 65.804688 C 74.921875 67.785156 74.722656 68.03125 73.734375 68.03125 C 73.335938 68.03125 73.238281 68.082031 73.238281 68.230469 C 73.238281 68.378906 73.386719 68.378906 73.484375 68.378906 L 77.34375 68.378906 C 77.441406 68.378906 77.6875 68.378906 77.6875 68.230469 C 77.6875 68.03125 77.492188 68.03125 77.34375 68.03125 C 76.652344 68.03125 76.453125 67.835938 76.453125 65.804688 Z M 76.453125 63.035156 C 76.945312 62.785156 77.984375 62.144531 78.53125 62.144531 C 79.320312 62.144531 79.417969 62.835938 79.417969 63.480469 L 79.417969 65.804688 C 79.417969 67.785156 79.273438 67.984375 78.429688 68.03125 C 78.332031 68.03125 78.132812 68.082031 78.132812 68.230469 C 78.132812 68.378906 78.382812 68.378906 78.480469 68.378906 L 81.890625 68.378906 C 81.992188 68.378906 82.1875 68.378906 82.1875 68.230469 C 82.1875 68.03125 81.992188 68.03125 81.84375 68.03125 C 81.199219 68.03125 80.953125 67.835938 80.953125 65.804688 L 80.953125 63.035156 C 81.496094 62.738281 82.4375 62.144531 83.078125 62.144531 C 83.917969 62.144531 83.96875 62.933594 83.96875 63.628906 L 83.96875 65.804688 C 83.96875 67.785156 83.820312 67.984375 83.03125 68.03125 C 82.929688 68.03125 82.683594 68.03125 82.683594 68.179688 C 82.683594 68.378906 82.882812 68.378906 82.980469 68.378906 L 87.085938 68.378906 C 87.183594 68.378906 87.28125 68.378906 87.28125 68.230469 C 87.28125 68.03125 87.183594 68.03125 86.6875 68.03125 C 85.601562 68.03125 85.5 67.734375 85.5 65.804688 L 85.5 63.03125 C 85.5 61.945312 84.910156 61.402344 83.917969 61.402344 C 83.128906 61.402344 81.644531 62.242188 80.953125 62.6875 C 80.902344 61.84375 80.160156 61.402344 79.417969 61.402344 C 78.382812 61.402344 77.34375 62.191406 76.453125 62.6875 L 76.453125 61.746094 C 76.453125 61.546875 76.402344 61.402344 76.253906 61.402344 C 76.105469 61.402344 75.957031 61.597656 75.5625 61.796875 C 75.167969 61.996094 74.523438 62.242188 73.4375 62.339844 C 73.289062 62.339844 73.1875 62.441406 73.1875 62.589844 C 73.1875 62.785156 73.734375 62.738281 73.832031 62.738281 C 74.921875 62.738281 74.921875 63.28125 74.921875 64.867188 L 74.921875 65.804688 C 74.921875 67.785156 74.722656 68.03125 73.734375 68.03125 C 73.335938 68.03125 73.238281 68.082031 73.238281 68.230469 C 73.238281 68.378906 73.386719 68.378906 73.484375 68.378906 L 77.34375 68.378906 C 77.441406 68.378906 77.6875 68.378906 77.6875 68.230469 C 77.6875 68.03125 77.492188 68.03125 77.34375 68.03125 C 76.652344 68.03125 76.453125 67.835938 76.453125 65.804688 Z M 88.371094 68.476562 C 88.417969 68.578125 88.519531 68.972656 88.714844 68.972656 C 88.765625 68.972656 88.863281 68.824219 88.960938 68.726562 C 89.0625 68.578125 89.257812 68.476562 89.507812 68.476562 C 90.101562 68.476562 90.742188 68.675781 91.386719 68.675781 C 92.867188 68.675781 94.351562 67.882812 94.351562 66.203125 C 94.351562 63.183594 89.0625 65.0625 89.0625 62.933594 C 89.0625 62.144531 89.902344 61.746094 90.59375 61.746094 C 91.683594 61.746094 92.871094 62.539062 93.3125 63.480469 C 93.363281 63.578125 93.460938 63.828125 93.5625 63.828125 C 93.660156 63.828125 93.710938 63.777344 93.710938 63.675781 C 93.710938 63.628906 93.710938 63.53125 93.660156 63.480469 L 93.019531 61.648438 C 92.96875 61.550781 92.871094 61.054688 92.722656 61.054688 C 92.472656 61.054688 92.574219 61.550781 91.980469 61.550781 C 91.484375 61.550781 90.992188 61.402344 90.496094 61.402344 C 89.160156 61.402344 87.675781 62.042969 87.675781 63.578125 C 87.675781 64.46875 87.875 65.261719 90.742188 65.605469 C 92.128906 65.757812 92.96875 65.953125 92.96875 66.945312 C 92.96875 67.882812 92.027344 68.28125 91.1875 68.28125 C 89.753906 68.28125 88.417969 67.09375 87.875 65.902344 C 87.875 65.757812 87.777344 65.558594 87.628906 65.558594 C 87.578125 65.558594 87.480469 65.605469 87.480469 65.65625 C 87.480469 65.753906 87.527344 65.855469 87.578125 65.902344 Z M 88.371094 68.476562 C 88.417969 68.578125 88.519531 68.972656 88.714844 68.972656 C 88.765625 68.972656 88.863281 68.824219 88.960938 68.726562 C 89.0625 68.578125 89.257812 68.476562 89.507812 68.476562 C 90.101562 68.476562 90.742188 68.675781 91.386719 68.675781 C 92.867188 68.675781 94.351562 67.882812 94.351562 66.203125 C 94.351562 63.183594 89.0625 65.0625 89.0625 62.933594 C 89.0625 62.144531 89.902344 61.746094 90.59375 61.746094 C 91.683594 61.746094 92.871094 62.539062 93.3125 63.480469 C 93.363281 63.578125 93.460938 63.828125 93.5625 63.828125 C 93.660156 63.828125 93.710938 63.777344 93.710938 63.675781 C 93.710938 63.628906 93.710938 63.53125 93.660156 63.480469 L 93.019531 61.648438 C 92.96875 61.550781 92.871094 61.054688 92.722656 61.054688 C 92.472656 61.054688 92.574219 61.550781 91.980469 61.550781 C 91.484375 61.550781 90.992188 61.402344 90.496094 61.402344 C 89.160156 61.402344 87.675781 62.042969 87.675781 63.578125 C 87.675781 64.46875 87.875 65.261719 90.742188 65.605469 C 92.128906 65.757812 92.96875 65.953125 92.96875 66.945312 C 92.96875 67.882812 92.027344 68.28125 91.1875 68.28125 C 89.753906 68.28125 88.417969 67.09375 87.875 65.902344 C 87.875 65.757812 87.777344 65.558594 87.628906 65.558594 C 87.578125 65.558594 87.480469 65.605469 87.480469 65.65625 C 87.480469 65.753906 87.527344 65.855469 87.578125 65.902344 Z M 88.371094 68.476562 C 88.417969 68.578125 88.519531 68.972656 88.714844 68.972656 C 88.765625 68.972656 88.863281 68.824219 88.960938 68.726562 C 89.0625 68.578125 89.257812 68.476562 89.507812 68.476562 C 90.101562 68.476562 90.742188 68.675781 91.386719 68.675781 C 92.867188 68.675781 94.351562 67.882812 94.351562 66.203125 C 94.351562 63.183594 89.0625 65.0625 89.0625 62.933594 C 89.0625 62.144531 89.902344 61.746094 90.59375 61.746094 C 91.683594 61.746094 92.871094 62.539062 93.3125 63.480469 C 93.363281 63.578125 93.460938 63.828125 93.5625 63.828125 C 93.660156 63.828125 93.710938 63.777344 93.710938 63.675781 C 93.710938 63.628906 93.710938 63.53125 93.660156 63.480469 L 93.019531 61.648438 C 92.96875 61.550781 92.871094 61.054688 92.722656 61.054688 C 92.472656 61.054688 92.574219 61.550781 91.980469 61.550781 C 91.484375 61.550781 90.992188 61.402344 90.496094 61.402344 C 89.160156 61.402344 87.675781 62.042969 87.675781 63.578125 C 87.675781 64.46875 87.875 65.261719 90.742188 65.605469 C 92.128906 65.757812 92.96875 65.953125 92.96875 66.945312 C 92.96875 67.882812 92.027344 68.28125 91.1875 68.28125 C 89.753906 68.28125 88.417969 67.09375 87.875 65.902344 C 87.875 65.757812 87.777344 65.558594 87.628906 65.558594 C 87.578125 65.558594 87.480469 65.605469 87.480469 65.65625 C 87.480469 65.753906 87.527344 65.855469 87.578125 65.902344 Z M 88.371094 68.476562 "/>
</g>
</svg>
